<svg width="335" height="219" viewBox="0 0 335 219" fill="none" xmlns="http://www.w3.org/2000/svg">
<path d="M3.04053 75.8357C3.04053 75.8357 4.74925 90.6523 5.84222 94.0467C6.93518 97.441 13.2159 102.675 24.6459 104.168C36.0835 105.661 42.0718 98.6417 42.0718 98.6417L3.04053 75.8357Z" fill="#5C2D91" stroke="#2C004B" stroke-width="1.7" stroke-miterlimit="10" stroke-linejoin="round"/>
<path d="M198.635 185.102C198.635 185.102 199.22 199.533 200.891 203.043C202.569 206.553 208.126 214.504 223.312 216.782C238.498 219.068 243.709 212.172 245.241 209.185C246.772 206.191 252.907 189.858 252.907 189.858L198.635 185.102Z" fill="#5C2D91" stroke="#2C004B" stroke-width="1.7" stroke-miterlimit="10" stroke-linejoin="round"/>
<path d="M325.304 121.171C325.304 121.171 318.592 136.634 317.422 138.643C316.245 140.659 311.442 144.169 302.883 141.167C294.332 138.166 325.304 121.171 325.304 121.171Z" fill="#5C2D91" stroke="#2C004B" stroke-width="1.7" stroke-miterlimit="10" stroke-linejoin="round"/>
<path d="M333.663 99.9577C333.663 99.9577 334.648 105.276 331.693 114.174C330.068 119.069 322.579 126.02 322.579 126.02L260.326 187.503C260.326 187.503 246.734 203.474 232.125 200.611C216.485 197.547 200.891 188.234 190.823 182.608C180.763 176.981 14.1549 85.7954 14.1549 85.7954C14.1549 85.7954 1.14708 80.2074 1.73205 70.3399C2.3401 60.1722 2.98665 53.8376 2.98665 53.8376L95.1191 26.0286L151.345 28.6455L297.726 90.3904L333.663 99.9577Z" fill="#5C2D91" stroke="#2C004B" stroke-width="1.7" stroke-miterlimit="10" stroke-linejoin="round"/>
<path d="M113.415 11.3427L17.5877 44.5474C17.5877 44.5474 3.58699 48.8346 2.98663 53.8299C2.38627 58.8252 10.4758 62.6275 16.8642 65.9295C23.2527 69.2238 217.116 171.655 217.116 171.655C217.116 171.655 230.809 178.898 240.93 178.759C251.052 178.62 257.502 175.157 263.598 169.061C269.694 162.965 328.968 109.433 328.968 109.433C328.968 109.433 336.526 103.537 333.116 97.8025C329.576 91.8528 323.48 90.1595 316.868 86.7112C310.811 83.5555 150.83 16.0225 150.83 16.0225C150.83 16.0225 137.706 10.4653 132.911 9.54933C125.091 8.07152 122.335 9.00285 113.415 11.3427Z" fill="#5C2D91" stroke="#2C004B" stroke-width="1.7" stroke-miterlimit="10" stroke-linejoin="round"/>
<path d="M252.052 89.7594C246.849 114.544 197.289 125.119 141.355 113.381C85.4211 101.644 44.2963 72.0334 49.4994 47.2492C54.7026 22.465 104.894 8.84913 160.828 20.587C216.762 32.3325 257.248 64.9753 252.052 89.7594Z" fill="#A880B9" stroke="#2C004B" stroke-width="1.7" stroke-miterlimit="10" stroke-linejoin="round"/>
<path d="M243.526 77.0361C247.986 55.7849 211.059 30.0488 161.048 19.5529C111.036 9.05688 66.8778 17.7757 62.4178 39.0268C57.9578 60.2779 94.8848 86.014 144.897 96.51C194.908 107.006 239.066 98.2872 243.526 77.0361Z" fill="#8F499C" stroke="#2C004B" stroke-width="1.7" stroke-miterlimit="10" stroke-linejoin="round"/>
<path d="M164.846 60.5264C164.261 63.3126 158.473 64.4518 151.915 63.0817C145.357 61.704 140.516 58.3327 141.101 55.5464C141.686 52.7601 147.474 51.6133 154.032 52.991C160.589 54.3611 165.431 57.7401 164.846 60.5264Z" fill="#D3BFDD" stroke="#2C004B" stroke-width="1.7" stroke-miterlimit="10" stroke-linejoin="round"/>
<path d="M224.251 152.967C223.843 154.899 219.833 155.691 215.292 154.737C210.75 153.783 207.395 151.443 207.795 149.518C208.203 147.587 212.213 146.794 216.754 147.748C221.303 148.703 224.659 151.035 224.251 152.967Z" fill="#8F499C" stroke="#2C004B" stroke-width="1.7" stroke-miterlimit="10" stroke-linejoin="round"/>
<path d="M201.637 142.799C201.229 144.731 197.219 145.524 192.678 144.569C188.137 143.615 184.781 141.275 185.181 139.343C185.589 137.411 189.599 136.618 194.14 137.573C198.689 138.535 202.045 140.875 201.637 142.799Z" fill="#8F499C" stroke="#2C004B" stroke-width="1.7" stroke-miterlimit="10" stroke-linejoin="round"/>
<path d="M42.8413 34.6339L40.8709 52.9911C40.6246 55.3233 35.9756 56.7318 30.4954 56.1468C25.0152 55.5619 20.7742 53.1912 21.0205 50.8667L22.9909 32.5095" fill="#D6DE26"/>
<path d="M42.8413 34.6339L40.8709 52.9911C40.6246 55.3233 35.9756 56.7318 30.4954 56.1468C25.0152 55.5619 20.7742 53.1912 21.0205 50.8667L22.9909 32.5095" stroke="#2C004B" stroke-width="1.7" stroke-miterlimit="10" stroke-linejoin="round"/>
<path d="M315.521 106C314.105 112.742 299.604 115.405 283.117 111.942C266.638 108.486 254.423 100.212 255.839 93.4691C257.255 86.7266 272.503 80.5151 288.982 83.9788C305.469 87.4424 316.937 99.2572 315.521 106Z" fill="#A880B9" stroke="#2C004B" stroke-width="1.7" stroke-miterlimit="10" stroke-linejoin="round"/>
<path d="M312.465 98.9109C311.357 104.199 299.05 106.092 284.972 103.137C270.902 100.181 260.388 93.4999 261.496 88.2121C262.605 82.9243 274.912 81.0309 288.99 83.9865C303.067 86.9344 313.574 93.6154 312.465 98.9109Z" fill="#D3BFDD" stroke="#2C004B" stroke-width="1.7" stroke-miterlimit="10" stroke-linejoin="round"/>
<path d="M301.267 80.1765L297.972 95.8629C297.495 98.1489 292.184 98.9648 286.104 97.6871C280.031 96.4094 275.49 93.5307 275.974 91.2447L279.269 75.5583" fill="#A880B9"/>
<path d="M301.267 80.1765L297.972 95.8629C297.495 98.1489 292.184 98.9648 286.104 97.6871C280.031 96.4094 275.49 93.5307 275.974 91.2447L279.269 75.5583" stroke="#2C004B" stroke-width="1.7" stroke-miterlimit="10" stroke-linejoin="round"/>
<path d="M301.266 80.1766C300.789 82.4549 295.478 83.2785 289.398 82.0008C283.325 80.7231 278.791 77.8367 279.269 75.5584C279.746 73.2724 285.064 72.4565 291.137 73.7342C297.21 75.0119 301.751 77.8983 301.266 80.1766Z" fill="#D3BFDD" stroke="#2C004B" stroke-width="1.7" stroke-miterlimit="10" stroke-linejoin="round"/>
<path d="M42.8413 34.6339C42.595 36.9661 37.9461 38.3746 32.4659 37.7896C26.9856 37.2047 22.7446 34.8417 22.9909 32.5095C23.2372 30.1773 27.8862 28.7688 33.3664 29.3538C38.8466 29.9387 43.0877 32.3017 42.8413 34.6339Z" fill="#D6DE26" stroke="#2C004B" stroke-width="1.7" stroke-miterlimit="10" stroke-linejoin="round"/>
<path d="M299.181 62.0579L304.284 59.9412C307.663 59.0176 311.303 61.5422 312.412 65.5831C313.52 69.624 311.673 73.6495 308.294 74.5808L303.191 76.6975" fill="#A880B9"/>
<path d="M299.181 62.0579L304.284 59.9412C307.663 59.0176 311.303 61.5422 312.412 65.5831C313.52 69.624 311.673 73.6495 308.294 74.5808L303.191 76.6975" stroke="#2C004B" stroke-width="1.7" stroke-miterlimit="10" stroke-linejoin="round"/>
<path d="M295.063 71.0556C293.954 67.0147 295.802 62.9892 299.181 62.0579C302.56 61.1343 306.2 63.6589 307.309 67.6998C308.417 71.7407 306.57 75.7662 303.191 76.6975C299.804 77.6211 296.163 75.0965 295.063 71.0556Z" fill="#A880B9" stroke="#2C004B" stroke-width="1.7" stroke-miterlimit="10" stroke-linejoin="round"/>
<path d="M297.287 66.6532C297.287 66.6532 276.952 72.7261 271.841 78.3294C266.23 84.4793 260.881 98.0182 253.907 101.828C246.934 105.638 219.586 108.932 219.586 108.932C219.586 108.932 224.135 110.941 221.618 117.191C221.618 117.191 244.086 113.474 247.911 112.465C251.737 111.457 260.357 108.902 263.759 103.437C267.169 97.9797 273.95 87.4041 277.491 83.9328C279.854 81.616 293.931 75.4354 299.127 73.6651C299.127 73.6651 301.682 72.2411 300.789 69.3471C299.889 66.4453 297.287 66.6532 297.287 66.6532Z" fill="#A880B9" stroke="#2C004B" stroke-width="1.7" stroke-miterlimit="10" stroke-linejoin="round"/>
<path d="M213.152 103.46L223.296 111.611L188.976 117.761L180.132 108.678L213.152 103.46Z" fill="#A880B9" stroke="#2C004B" stroke-width="1.7" stroke-miterlimit="10" stroke-linejoin="round"/>
<path d="M188.976 117.761L180.132 108.678L179.262 113.789L188.137 122.71L188.976 117.761Z" fill="#A880B9" stroke="#2C004B" stroke-width="1.7" stroke-miterlimit="10" stroke-linejoin="round"/>
<path d="M188.976 117.761L188.137 122.71L219.848 125.65L223.296 111.611L188.976 117.761Z" fill="#A880B9" stroke="#2C004B" stroke-width="1.7" stroke-miterlimit="10" stroke-linejoin="round"/>
<path d="M256.701 143.446L241.838 153.96L249.412 157.731L261.443 146.324" fill="#2C004B"/>
<path d="M256.701 143.446L241.838 153.96L249.412 157.731L261.443 146.324" stroke="#2C004B" stroke-width="1.7" stroke-miterlimit="10" stroke-linejoin="round"/>
<path d="M269.286 132.608L278.737 125.635L282.678 127.29L274.227 134.925L269.286 132.608Z" fill="#2C004B" stroke="#2C004B" stroke-width="1.7" stroke-miterlimit="10" stroke-linejoin="round"/>
<path d="M268.254 136.611L264.814 147.733L276.351 137.703L273.504 133.093L268.254 136.611Z" fill="#A880B9" stroke="#2C004B" stroke-width="1.7" stroke-miterlimit="10" stroke-linejoin="round"/>
<path d="M273.503 133.093L268.254 136.611L258.202 131.638L264.521 128.998L273.503 133.093Z" fill="#A880B9" stroke="#2C004B" stroke-width="1.7" stroke-miterlimit="10" stroke-linejoin="round"/>
<path d="M264.814 147.733L268.254 136.61L258.202 131.638L252.044 140.636L264.814 147.733Z" fill="#A880B9" stroke="#2C004B" stroke-width="1.7" stroke-miterlimit="10" stroke-linejoin="round"/>
<path d="M177.284 29.0535C177.284 29.0535 152.161 18.9782 115.709 20.5715C88.8 21.7491 75.6074 30.1542 75.6074 30.1542C75.6074 30.1542 93.8492 26.6059 119.511 25.6284C133.827 25.0819 150.168 24.9664 177.284 29.0535Z" fill="#D3BFDD" stroke="#2C004B" stroke-width="1.7" stroke-miterlimit="10" stroke-linejoin="round"/>
<path d="M11.8074 79.2607L203.823 185.132C203.823 185.132 233.572 201.973 244.671 193.707C244.671 193.707 228.492 193.268 203.161 180.068C177.823 166.86 11.8074 79.2607 11.8074 79.2607Z" fill="#A880B9" stroke="#2C004B" stroke-width="1.7" stroke-miterlimit="10" stroke-linejoin="round"/>
<path d="M104.825 78.006C104.825 78.006 139.038 95.6012 178.4 95.9707C217.762 96.3401 232.286 87.0653 237.974 76.4204C237.974 76.4204 218.886 89.5514 185.235 90.4366C150.275 91.3679 137.314 87.9735 104.825 78.006Z" fill="#5C2D91" stroke="#2C004B" stroke-width="1.7" stroke-miterlimit="10" stroke-linejoin="round"/>
<path d="M110.898 111.642C110.898 111.642 199.444 157.839 208.634 162.226C217.824 166.621 241.115 180.137 253.73 171.693C253.73 171.693 243.239 175.288 214.468 162.588C184.327 149.287 110.898 111.642 110.898 111.642Z" fill="#A880B9" stroke="#2C004B" stroke-width="1.7" stroke-miterlimit="10" stroke-linejoin="round"/>
<path d="M316.052 89.9824C316.052 89.9824 329.622 95.7859 329.476 100.012C329.33 104.237 318.038 112.219 310.172 118.892C310.172 118.892 324.165 106.238 326.081 101.212C327.467 97.6024 322.633 93.5846 316.052 89.9824Z" fill="#A880B9" stroke="#2C004B" stroke-width="1.7" stroke-miterlimit="10" stroke-linejoin="round"/>
<path d="M8.71314 83.417C8.71314 83.417 8.69774 92.9073 12.7617 95.8553C16.8257 98.8032 28.8484 103.175 36.5838 98.6339L8.71314 83.417Z" fill="#2C004B" stroke="#2C004B" stroke-width="1.7" stroke-miterlimit="10" stroke-linejoin="round"/>
<path d="M202.738 189.712C202.738 189.712 203.554 201.096 208.911 205.552C214.26 210.001 225.798 213.165 232.648 212.264C239.491 211.356 241.423 207.438 243.016 201.611C243.016 201.611 237.813 201.15 228.176 199.495C218.54 197.832 202.738 189.712 202.738 189.712Z" fill="#2C004B" stroke="#2C004B" stroke-width="1.7" stroke-miterlimit="10" stroke-linejoin="round"/>
<path d="M296.671 85.9724L295.294 94.3082C295.294 94.3082 289.544 96.4326 280.569 92.2069C280.569 92.2069 293.785 96.2171 296.671 85.9724Z" fill="#8F499C" stroke="#2C004B" stroke-width="1.7" stroke-miterlimit="10" stroke-linejoin="round"/>
<path d="M24.9536 50.0893C24.9536 50.0893 31.65 54.5766 37.3611 51.4593L38.8851 40.6836C38.8851 40.6913 37.769 53.6453 24.9536 50.0893Z" fill="#006938" stroke="#2C004B" stroke-width="1.7" stroke-miterlimit="10" stroke-linecap="round" stroke-linejoin="round"/>
<path d="M195.441 120.509L216.631 121.748L218.601 115.875L195.441 120.509Z" fill="#8F499C" stroke="#2C004B" stroke-width="1.7" stroke-miterlimit="10" stroke-linejoin="round"/>
<path d="M224.42 55.7464C224.02 57.6706 213.475 57.0856 200.883 54.4456C188.291 51.8055 178.4 48.0956 178.808 46.1714C179.208 44.2471 189.753 44.8321 202.345 47.4721C214.938 50.1199 224.82 53.8221 224.42 55.7464Z" fill="#5C2D91" stroke="#2C004B" stroke-width="1.7" stroke-miterlimit="10" stroke-linejoin="round"/>
<path d="M222.047 41.126C228.622 31.5635 226.201 18.4812 216.638 11.9058C207.076 5.33042 193.993 7.75198 187.418 17.3145C180.843 26.877 183.264 39.9593 192.827 46.5347C202.389 53.1101 215.471 50.6885 222.047 41.126Z" fill="#8F499C" stroke="#2C004B" stroke-width="1.7" stroke-miterlimit="10" stroke-linejoin="round"/>
<path d="M225.298 33.5408C222.911 44.9015 211.774 52.1751 200.413 49.789C189.053 47.403 181.779 36.2655 184.165 24.9048C184.165 24.9048 181.41 36.5657 199.336 41.1223C220.564 46.5255 225.298 33.5408 225.298 33.5408Z" fill="#5C2D91" stroke="#2C004B" stroke-width="1.7" stroke-miterlimit="10" stroke-linecap="round" stroke-linejoin="round"/>
<path d="M208.611 11.7046C208.611 11.7046 201.422 9.97281 196.234 13.2748C190.584 16.8693 194.71 23.7965 200.329 23.8042C206.879 23.8196 204.046 18.4241 211.535 18.8628C214.314 19.0244 218.139 23.8119 219.132 20.3252C219.763 18.1239 217.085 13.8444 208.611 11.7046Z" fill="#A880B9" stroke="#2C004B" stroke-width="1.7" stroke-miterlimit="10" stroke-linejoin="round"/>
<path d="M193.763 27.0599C193.047 29.8308 191.269 31.3471 189.168 29.9847C187.59 28.9687 186.928 26.9829 187.398 24.62C187.867 22.2647 189.337 19.3553 191.585 21.0178C193.101 22.1339 194.364 24.7277 193.763 27.0599Z" fill="#A880B9" stroke="#2C004B" stroke-width="1.7" stroke-miterlimit="10" stroke-linejoin="round"/>
<path d="M132.804 71.6177C132.511 73.0109 124.868 72.5875 115.732 70.671C106.595 68.7545 99.4295 66.0682 99.722 64.6751C100.015 63.2819 107.658 63.6976 116.794 65.6141C125.922 67.5383 133.096 70.2246 132.804 71.6177Z" fill="#5C2D91" stroke="#2C004B" stroke-width="1.7" stroke-miterlimit="10" stroke-linejoin="round"/>
<path d="M119.563 67.5908C127.96 67.0184 134.304 59.747 133.732 51.3496C133.159 42.9521 125.888 36.6086 117.49 37.181C109.093 37.7533 102.749 45.0248 103.322 53.4222C103.894 61.8196 111.166 68.1631 119.563 67.5908Z" fill="#CBDB2A" stroke="#2C004B" stroke-width="1.7" stroke-miterlimit="10" stroke-linejoin="round"/>
<path d="M133.435 55.5157C131.703 63.7514 123.629 69.0315 115.393 67.2997C107.157 65.5679 101.877 57.4938 103.609 49.2581C103.609 49.2581 102.762 58.5329 114.608 61.019C130.156 64.2825 133.435 55.5157 133.435 55.5157Z" fill="#72BF44" stroke="#2C004B" stroke-width="1.7" stroke-miterlimit="10" stroke-linejoin="round"/>
<path d="M121.335 39.6831C121.335 39.6831 116.047 38.3131 112.36 40.8223C108.674 43.3315 110.159 46.5026 113.376 46.418C116.586 46.3333 118.626 43.5932 122.821 44.1858C126.646 44.7246 129.101 47.5956 128.97 45.9407C128.84 44.2782 127.477 41.2302 121.335 39.6831Z" fill="#F5F19A" stroke="#2C004B" stroke-width="1.7" stroke-miterlimit="10" stroke-linejoin="round"/>
<path d="M121.712 50.4434C120.481 50.3741 119.526 49.489 119.588 48.4653C119.65 47.4416 120.696 46.6719 121.928 46.7411C123.159 46.8104 124.114 47.6956 124.052 48.7193C123.998 49.743 122.952 50.5127 121.712 50.4434Z" fill="#F5F19A" stroke="#2C004B" stroke-width="1.7" stroke-miterlimit="10" stroke-linejoin="round"/>
</svg>
