<svg width="251" height="258" viewBox="0 0 251 258" fill="none" xmlns="http://www.w3.org/2000/svg">
<path d="M28.1475 98.1551L17.0939 117.401C17.0939 117.401 4.57234 99.1797 1.77559 84.2244C-1.01536 69.275 1.13152 56.7822 4.53173 46.8974C7.93193 37.0126 12.7769 23.3556 27.9212 10.6881L29.1397 13.2379C29.1397 13.2379 16.1191 20.1654 13.8678 33.7352C11.6165 47.3049 11.7615 63.9484 17.355 76.936C22.9485 89.9295 28.1475 98.1551 28.1475 98.1551Z" fill="#ABE1FA" stroke="#041241" stroke-width="1.7" stroke-miterlimit="10" stroke-linecap="round" stroke-linejoin="round"/>
<path d="M24.1147 86.9896C24.1147 86.9896 11.8717 66.5564 18.1092 48.2014C22.931 34.0088 39.4214 27.8322 47.5274 26.7145C55.6333 25.5968 74.4273 24.9099 89.4903 32.1052C104.553 39.3005 121.456 47.8754 137.383 73.0182L151.576 57.213C151.576 57.213 145.118 41.338 125.187 25.038C105.255 8.73213 88.1152 5.14031 88.1152 5.14031C88.1152 5.14031 68.2942 -0.820832 51.8212 2.36349C35.3482 5.54781 25.1708 11.7884 19.7629 20.6835C14.3551 29.5787 10.5255 40.7093 10.6009 51.1937C10.6764 61.6781 21.2309 83.5259 22.316 85.5867C23.401 87.6474 24.1147 86.9896 24.1147 86.9896Z" fill="#243A76" stroke="#041241" stroke-width="1.7" stroke-miterlimit="10" stroke-linecap="round" stroke-linejoin="round"/>
<path d="M27.0218 98.8013C27.0218 98.8013 13.6241 79.4509 10.5256 60.9329C8.03057 46.0242 9.20266 35.1556 15.0921 24.8924C20.9815 14.6293 31.6985 5.86218 45.9376 2.30528C60.1767 -1.24579 85.3185 -0.401682 108.308 12.3123C130.2 24.4209 146.922 40.5987 154.953 56.7473L151.57 57.2072C151.57 57.2072 144.068 44.3127 133.211 33.6479C122.355 22.983 102.94 11.0956 86.4209 6.33954C69.9073 1.58343 49.3958 1.58925 35.2902 8.87186C22.1362 15.6713 10.4676 31.8665 13.7633 54.4187C17.0591 76.971 30.4626 96.1002 30.4626 96.1002L27.0218 98.8013Z" fill="#44C8F5" stroke="#041241" stroke-width="1.7" stroke-miterlimit="10" stroke-linecap="round" stroke-linejoin="round"/>
<path d="M136.206 74.1708L140.54 82.2801L156.7 64.5946L152.313 56.235L136.206 74.1708Z" fill="#44C8F5" stroke="#041241" stroke-width="1.7" stroke-miterlimit="10" stroke-linecap="round" stroke-linejoin="round"/>
<path d="M144.689 81.9657L140.54 82.2801L156.7 64.5946L160.86 64.3326L144.689 81.9657Z" fill="#243A76" stroke="#041241" stroke-width="1.7" stroke-miterlimit="10" stroke-linecap="round" stroke-linejoin="round"/>
<path d="M156.526 56.2234L160.86 64.3326L156.7 64.5946L152.313 56.235L156.526 56.2234Z" fill="#44C8F5" stroke="#041241" stroke-width="1.7" stroke-miterlimit="10" stroke-linecap="round" stroke-linejoin="round"/>
<path d="M156.99 66.0208L143.754 80.5278C143.754 80.5278 144.81 83.8519 149.278 86.4482C151.68 87.8454 158.405 93.0614 159.984 96.0827C161.568 99.104 173.242 100.018 173.242 100.018L180.315 96.8861C180.315 96.8861 176.358 87.1002 175.801 85.7846C175.244 84.469 174.147 82.6934 172.25 81.3021C169.865 79.5498 162.2 72.9309 162.2 72.9309C162.2 72.9309 159.369 70.9982 156.99 66.0208Z" fill="#243A76" stroke="#041241" stroke-width="1.7" stroke-miterlimit="10" stroke-linecap="round" stroke-linejoin="round"/>
<path d="M180.315 96.8861C180.315 96.8861 176.358 87.1002 175.801 85.7846C175.244 84.469 174.147 82.6934 172.25 81.3021C169.865 79.5498 162.2 72.9309 162.2 72.9309C162.2 72.9309 159.369 70.9923 156.984 66.015L158.748 65.7181C161.127 70.6954 163.964 72.634 163.964 72.634C163.964 72.634 171.623 79.2529 174.014 81.0052C175.911 82.3965 177.008 84.1721 177.565 85.4877C178.122 86.8034 182.079 96.5892 182.079 96.5892L180.315 96.8861Z" fill="#44C8F5" stroke="#041241" stroke-width="1.7" stroke-miterlimit="10" stroke-linecap="round" stroke-linejoin="round"/>
<path d="M13.5195 116.725L19.2929 123.88L31.8609 103.47L25.9889 96.0885L13.5195 116.725Z" fill="#ABE1FA" stroke="#041241" stroke-width="1.7" stroke-miterlimit="10" stroke-linecap="round" stroke-linejoin="round"/>
<path d="M24.2018 122.739L19.293 123.88L31.861 103.47L36.793 102.376L24.2018 122.739Z" fill="#243A76" stroke="#041241" stroke-width="1.7" stroke-miterlimit="10" stroke-linecap="round" stroke-linejoin="round"/>
<path d="M31.0139 95.227L36.7931 102.376L31.861 103.47L25.989 96.0885L31.0139 95.227Z" fill="#44C8F5" stroke="#041241" stroke-width="1.7" stroke-miterlimit="10" stroke-linecap="round" stroke-linejoin="round"/>
<path d="M248.824 253.052C248.818 253.058 248.807 253.058 248.801 253.063C248.076 253.407 230.843 261.365 215.774 255.124C207.877 251.858 202.115 245.362 198.645 235.82C192.791 219.707 189.791 220.103 182.555 221.057C174.205 222.157 161.585 223.817 139.896 205.334C138.648 204.268 138.492 202.388 139.554 201.136C140.61 199.885 142.484 199.727 143.737 200.793C163.419 217.564 174.031 216.167 181.783 215.148C192.175 213.78 197.438 215.131 204.215 233.777C207.088 241.671 211.724 246.998 218.002 249.606C230.634 254.851 246.126 247.737 246.277 247.667C247.762 246.974 249.526 247.615 250.217 249.105C250.919 250.589 250.292 252.347 248.824 253.052Z" fill="#FFCB05" stroke="#041241" stroke-width="1.7" stroke-miterlimit="10" stroke-linecap="round" stroke-linejoin="round"/>
<path d="M146.719 207.284C145.182 209.077 142.489 209.286 140.702 207.744L128.889 197.568C127.102 196.025 126.893 193.324 128.43 191.531C129.968 189.738 132.66 189.528 134.447 191.071L146.261 201.247C148.048 202.79 148.251 205.491 146.719 207.284Z" fill="#44C8F5" stroke="#041241" stroke-width="1.7" stroke-miterlimit="10" stroke-linecap="round" stroke-linejoin="round"/>
<path d="M141.822 203.069C139.658 205.601 135.857 205.892 133.333 203.715L116.669 189.365C114.145 187.194 113.855 183.381 116.025 180.849C118.189 178.316 121.99 178.025 124.514 180.202L141.178 194.552C143.696 196.724 143.986 200.537 141.822 203.069Z" fill="#44C8F5" stroke="#041241" stroke-width="1.7" stroke-miterlimit="10" stroke-linecap="round" stroke-linejoin="round"/>
<path d="M125.645 204.711C125.645 204.711 129.921 200.1 136.327 191.42C146.377 179.481 137.958 155.764 117.528 138.457C97.0973 121.15 72.3849 116.795 62.3351 128.735C62.3351 128.735 56.0454 135.919 52.4595 145.629" fill="#243A76"/>
<path d="M125.645 204.711C125.645 204.711 129.921 200.1 136.327 191.42C146.377 179.481 137.958 155.764 117.528 138.457C97.0973 121.15 72.3849 116.795 62.3351 128.735C62.3351 128.735 56.0454 135.919 52.4595 145.629" stroke="#041241" stroke-width="1.7" stroke-miterlimit="10" stroke-linecap="round" stroke-linejoin="round"/>
<path d="M72.8724 194.116C52.9528 177.239 44.7424 154.122 54.5427 142.474C64.3429 130.837 88.4287 135.08 108.354 151.951C128.274 168.827 136.484 191.944 126.684 203.587C116.884 215.236 92.7979 210.992 72.8724 194.116Z" fill="#44C8F5" stroke="#041241" stroke-width="1.7" stroke-miterlimit="10" stroke-linecap="round" stroke-linejoin="round"/>
<path d="M74.5841 192.078C55.9178 176.267 47.0169 156.043 54.7051 146.91C62.3933 137.782 83.7519 143.196 102.418 159.007C121.084 174.818 129.985 195.041 122.297 204.175C114.615 213.309 93.2562 207.889 74.5841 192.078Z" fill="#ABE1FA" stroke="#041241" stroke-width="1.7" stroke-miterlimit="10" stroke-linecap="round" stroke-linejoin="round"/>
<path d="M51.9373 169.305C51.9373 169.305 54.4613 164.956 61.4126 157.726C67.0003 151.089 82.5275 155.025 96.0935 166.516C109.659 178.008 116.129 192.707 110.547 199.349L101.072 210.928" fill="#44C8F5"/>
<path d="M51.9373 169.305C51.9373 169.305 54.4613 164.956 61.4126 157.726C67.0003 151.089 82.5275 155.025 96.0935 166.516C109.659 178.008 116.129 192.707 110.547 199.349L101.072 210.928" stroke="#041241" stroke-width="1.7" stroke-miterlimit="10" stroke-linecap="round" stroke-linejoin="round"/>
<path d="M66.3854 202.138C52.8194 190.646 46.3497 175.947 51.9374 169.305C57.5251 162.668 73.0524 166.604 86.6184 178.095C100.184 189.587 106.654 204.286 101.072 210.928C95.4786 217.57 79.9514 213.635 66.3854 202.138Z" fill="#ABE1FA" stroke="#041241" stroke-width="1.7" stroke-miterlimit="10" stroke-linecap="round" stroke-linejoin="round"/>
<path d="M195.825 146.753C199.337 146.529 201.704 138.781 201.112 129.447C200.52 120.113 197.193 112.728 193.682 112.952C190.17 113.176 187.803 120.924 188.395 130.258C188.987 139.592 192.314 146.977 195.825 146.753Z" fill="#243A76" stroke="#041241" stroke-width="1.7" stroke-miterlimit="10" stroke-linecap="round" stroke-linejoin="round"/>
<path d="M84.9877 194.389C84.9877 194.389 44.1505 150.135 37.7562 140.675C33.5437 134.446 36.7988 121.324 36.3172 111.859C35.9981 105.572 34.6751 104.995 34.6751 104.995L31.7507 105.752C31.7507 105.752 33.6133 109.652 33.3754 114.1C33.1375 118.548 32.6327 128.275 32.7662 135.866C32.8764 142.346 35.8414 143.411 40.8953 148.965C45.7171 154.262 83.1658 196.607 83.1658 196.607L84.9877 194.389Z" fill="#44C8F5" stroke="#041241" stroke-width="1.7" stroke-miterlimit="10" stroke-linecap="round" stroke-linejoin="round"/>
<path d="M31.7507 105.758L22.4495 121.109C22.4495 121.109 25.4203 123.921 25.0838 129.445C24.7472 134.976 24.8575 144.313 24.6834 146.927C24.4281 150.804 26.633 153.767 29.6967 156.94C32.7545 160.113 72.6982 204.542 72.6982 204.542L83.1715 196.613L38.7426 146.397C38.7426 146.397 34.9594 141.816 34.0659 139.231C32.9692 136.041 33.3348 120.731 33.6075 116.958C33.8802 113.174 33.9266 109.658 31.7507 105.758Z" fill="#ABE1FA" stroke="#041241" stroke-width="1.7" stroke-miterlimit="10" stroke-linecap="round" stroke-linejoin="round"/>
<path d="M67.2151 192.806C67.2151 192.806 67.598 192.142 68.6599 191.042C69.5128 190.029 71.8802 190.629 73.9517 192.381C76.0231 194.133 77.0095 196.374 76.1566 197.387L74.7118 199.151" fill="#44C8F5"/>
<path d="M67.2151 192.806C67.2151 192.806 67.598 192.142 68.6599 191.042C69.5128 190.029 71.8802 190.629 73.9517 192.381C76.0231 194.133 77.0095 196.374 76.1566 197.387L74.7118 199.151" stroke="#041241" stroke-width="1.7" stroke-miterlimit="10" stroke-linecap="round" stroke-linejoin="round"/>
<path d="M69.4199 197.812C67.3485 196.06 66.362 193.819 67.215 192.806C68.0679 191.793 70.4353 192.392 72.5068 194.145C74.5782 195.897 75.5646 198.138 74.7117 199.151C73.8587 200.17 71.4914 199.564 69.4199 197.812Z" fill="#ABE1FA" stroke="#041241" stroke-width="1.7" stroke-miterlimit="10" stroke-linecap="round" stroke-linejoin="round"/>
<path d="M157.854 92.0077L169.732 90.8376C184.157 89.9178 196.986 107.138 198.396 129.306C199.806 151.474 189.251 170.19 174.826 171.109L166.181 171.913" fill="#243A76"/>
<path d="M157.854 92.0077L169.732 90.8376C184.157 89.9178 196.986 107.138 198.396 129.306C199.806 151.474 189.251 170.19 174.826 171.109L166.181 171.913" stroke="#041241" stroke-width="1.7" stroke-miterlimit="10" stroke-linecap="round" stroke-linejoin="round"/>
<path d="M164.84 172.064C179.264 171.143 189.817 152.426 188.411 130.257C187.005 108.088 174.173 90.8636 159.749 91.7844C145.325 92.7052 134.772 111.423 136.178 133.591C137.584 155.76 150.416 172.985 164.84 172.064Z" fill="#44C8F5" stroke="#041241" stroke-width="1.7" stroke-miterlimit="10" stroke-linecap="round" stroke-linejoin="round"/>
<path d="M161.039 148.971C166.831 148.601 171.046 140.735 170.454 131.401C169.862 122.067 164.687 114.8 158.895 115.169C153.103 115.539 148.888 123.406 149.48 132.74C150.072 142.074 155.247 149.34 161.039 148.971Z" fill="#0082C6" stroke="#041241" stroke-width="1.7" stroke-miterlimit="10" stroke-linecap="round" stroke-linejoin="round"/>
<path d="M170.445 131.396C170.051 125.155 167.602 119.852 164.295 117.121C160.796 119.991 158.614 126.075 159.055 132.961C159.45 139.202 161.898 144.505 165.206 147.236C168.705 144.366 170.886 138.282 170.445 131.396Z" fill="#243A76" stroke="#041241" stroke-width="1.7" stroke-miterlimit="10" stroke-linecap="round" stroke-linejoin="round"/>
</svg>
