<svg width="260" height="259" viewBox="0 0 260 259" fill="none" xmlns="http://www.w3.org/2000/svg">
<g filter="url(#filter0_d)">
<path d="M251.466 114.012C245.422 107.972 243.153 96.5682 246.421 88.6685C249.699 80.7687 245.914 71.6335 238.015 68.3653C230.125 65.1021 223.662 55.4304 223.662 46.8859C223.662 38.3364 216.673 31.3472 208.119 31.3472C199.574 31.3472 189.907 24.8896 186.649 16.9898C184.173 11.0195 178.341 7.4018 172.237 7.4018C170.269 7.4018 168.261 7.7808 166.341 8.57323C163.89 9.58716 161.094 10.0695 158.235 10.0695C151.875 10.0695 145.162 7.69712 140.993 3.52821C137.971 0.511045 133.989 -1 130.002 -1C126.015 -1 122.034 0.511045 119.007 3.52821C114.847 7.69712 108.124 10.0695 101.765 10.0695C98.9101 10.0695 96.1194 9.58716 93.6732 8.57323C91.7438 7.77588 89.7455 7.4018 87.7668 7.4018C81.6587 7.4018 75.8409 11.0195 73.3652 16.9898C70.0871 24.8896 60.4204 31.3472 51.8759 31.3472C43.3314 31.3472 36.3324 38.3364 36.3324 46.8859C36.3324 55.4304 29.8747 65.1021 21.975 68.3653C14.0851 71.6335 10.3001 80.7687 13.5781 88.6685C16.8562 96.5682 14.5773 107.972 8.53312 114.012C2.48896 120.051 2.48896 129.949 8.53312 135.988C14.5773 142.028 16.8562 153.432 13.5781 161.332C10.3001 169.231 14.0851 178.366 21.975 181.645C29.8747 184.918 36.3324 194.589 36.3324 203.129C36.3324 211.669 43.3314 218.668 51.8759 218.668C60.4204 218.668 70.0871 225.125 73.3652 233.025C75.8409 238.99 81.6636 242.613 87.7619 242.613C89.7405 242.613 91.7438 242.234 93.6781 241.432C96.1292 240.418 98.9151 239.935 101.785 239.935C108.139 239.935 114.852 242.308 119.011 246.467C122.034 249.489 126.015 251 130.002 251C133.984 251 137.971 249.489 140.993 246.467C145.162 242.308 151.875 239.935 158.235 239.935C161.104 239.935 163.885 240.418 166.346 241.432C168.27 242.234 170.274 242.613 172.252 242.613C178.351 242.613 184.173 238.995 186.639 233.025C189.917 225.125 199.584 218.668 208.124 218.668C216.673 218.668 223.667 211.673 223.667 203.129C223.667 194.584 230.125 184.913 238.019 181.645C245.919 178.371 249.699 169.231 246.426 161.332C243.158 153.432 245.427 142.023 251.471 135.988C257.51 129.949 257.51 120.056 251.466 114.012Z" fill="white"/>
</g>
<path d="M130.48 72.3359C124.217 72.3359 116.614 71.3012 115.471 68.3828C115.447 68.3385 115.43 68.2855 115.406 68.2324C114.337 65.1371 111.016 59.3003 105.37 57.0805C105.074 56.9655 104.835 56.7091 104.737 56.3907C104.63 56.0723 104.671 55.7186 104.827 55.4267C105.057 55.0199 105.978 54.3478 106.956 54.1886C107.211 54.1444 107.449 54.1267 107.671 54.1267C108.082 54.1267 108.468 54.2063 108.814 54.3478C109.298 53.9764 109.899 53.7641 110.515 53.7641C111.033 53.7641 111.534 53.9144 111.978 54.1886C112.825 54.6927 113.236 55.4709 113.375 56.2492C113.671 56.2846 114 56.3111 114.354 56.3111C115.291 56.3111 116.022 56.1254 116.556 55.7628C116.137 55.4002 115.808 54.9049 115.628 54.3301C115.381 53.5607 115.439 52.7029 115.784 51.9865C115.915 51.7124 116.088 51.4647 116.293 51.2525C115.981 49.8729 116.581 48.8382 116.951 48.2014C117.148 47.8565 117.493 47.6619 117.847 47.6619C117.946 47.6619 118.052 47.6796 118.151 47.7062C119.688 48.2014 120.403 48.9797 120.724 49.6872C121.858 49.7579 122.886 50.6157 123.255 51.8273C123.502 52.5879 123.453 53.4546 123.107 54.1798C123.091 54.224 123.066 54.2594 123.042 54.3036C123.617 54.5689 124.258 54.7104 124.899 54.7104C124.973 54.7104 125.056 54.7104 125.121 54.7015C125.845 54.6662 126.551 54.4274 127.152 54.0471C126.617 53.4988 126.28 52.7294 126.28 51.8804C126.28 50.5538 127.086 49.4307 128.195 49.0327C128.204 48.9797 128.22 48.9354 128.228 48.8824C128.417 47.9538 128.952 47.1402 129.856 46.3973C130.045 46.247 130.275 46.1674 130.497 46.1674C130.727 46.1674 130.957 46.247 131.146 46.4061C132.059 47.1667 132.593 47.9892 132.774 48.9354C132.782 48.962 132.79 48.9885 132.798 49.0327C133.908 49.4307 134.705 50.5627 134.705 51.8804C134.705 52.7294 134.368 53.4988 133.842 54.0471C134.442 54.4362 135.149 54.6662 135.881 54.7015C135.947 54.7015 136.029 54.7104 136.103 54.7104C136.744 54.7104 137.377 54.5689 137.96 54.3036C137.936 54.2682 137.919 54.224 137.903 54.1798C137.558 53.4457 137.5 52.5879 137.755 51.8096C138.117 50.6157 139.144 49.7579 140.278 49.6872C140.607 48.9708 141.322 48.2014 142.851 47.7062C142.95 47.6708 143.057 47.6619 143.155 47.6619C143.517 47.6619 143.862 47.8565 144.059 48.2014C144.429 48.847 145.021 49.8817 144.709 51.2436C144.914 51.4559 145.079 51.7035 145.218 51.9777C145.563 52.7117 145.621 53.5695 145.366 54.3478C145.185 54.9226 144.857 55.409 144.446 55.7628C144.972 56.1342 145.711 56.3111 146.64 56.3111C146.985 56.3111 147.314 56.2846 147.618 56.2492C147.766 55.3737 148.26 54.6396 149.04 54.1798C149.468 53.9144 149.969 53.773 150.479 53.773C151.095 53.773 151.704 53.994 152.189 54.3566C152.534 54.2063 152.912 54.1267 153.331 54.1267C153.553 54.1267 153.791 54.1444 154.046 54.1886C154.934 54.3301 155.994 54.9934 156.233 55.5505C156.356 55.8424 156.356 56.1696 156.249 56.4614C156.134 56.7533 155.912 56.9832 155.633 57.0893C150.019 59.3003 146.69 65.1017 145.596 68.2147C145.588 68.2413 145.58 68.2678 145.572 68.2943C144.594 71.2835 136.867 72.3536 130.538 72.3536H130.48V72.3359ZM123.757 67.631C125.466 67.914 127.702 68.1174 130.464 68.1174C133.226 68.1174 135.462 67.9052 137.179 67.631C135.47 67.348 133.234 67.1446 130.464 67.1446C127.694 67.1446 125.458 67.3569 123.757 67.631ZM139.982 63.8283C140.402 63.9167 140.804 64.0228 141.182 64.1201C141.248 63.8106 141.371 63.5187 141.519 63.2534C141.1 63.1208 140.648 62.9969 140.155 62.882C140.147 63.218 140.081 63.5364 139.982 63.8283ZM119.589 63.2092C119.746 63.4745 119.869 63.7663 119.943 64.0847C120.247 64.0051 120.559 63.9255 120.896 63.8548C120.79 63.5629 120.724 63.2446 120.716 62.9085C120.313 63.0058 119.935 63.1031 119.589 63.2092ZM126.124 62.1037C126.173 62.3248 126.198 62.5459 126.198 62.7847C126.198 62.8908 126.19 63.0058 126.182 63.1119C126.683 63.0765 127.193 63.0412 127.719 63.0146C127.686 62.8289 127.669 62.6343 127.669 62.4398C127.669 62.2894 127.678 62.1479 127.702 62.0064C127.16 62.0241 126.634 62.0595 126.124 62.1037ZM133.111 62.9969C133.645 63.0235 134.171 63.05 134.681 63.0854C134.672 62.9881 134.664 62.8908 134.664 62.7935C134.664 62.5548 134.689 62.316 134.746 62.086C134.229 62.0418 133.686 62.0153 133.135 61.9888C133.16 62.1391 133.168 62.2806 133.168 62.4309C133.16 62.6255 133.144 62.8201 133.111 62.9969ZM138.503 58.3982C139.703 58.5751 140.837 58.805 141.865 59.0703C141.281 58.6016 140.837 58.0533 140.508 57.505C139.884 57.8853 139.21 58.186 138.503 58.3982ZM120.461 57.4962C120.132 58.0445 119.696 58.5839 119.129 59.0526C120.148 58.7873 121.274 58.5662 122.458 58.3894C121.751 58.186 121.077 57.8853 120.461 57.4962ZM130.464 57.8322C131.154 57.8322 131.861 57.8411 132.56 57.8676C131.796 57.4696 131.089 56.9478 130.48 56.3111C129.872 56.939 129.165 57.4696 128.401 57.8676C129.1 57.8499 129.782 57.8322 130.464 57.8322Z" fill="#0082C6"/>
<path d="M130.489 47.2817C131.023 47.7239 131.565 48.3164 131.722 49.1389C131.763 49.2892 131.787 49.4219 131.787 49.5634C131.787 49.7314 131.746 49.8906 131.697 50.0409C131.763 50.0321 131.828 49.9967 131.902 49.9967C132.864 49.9967 133.637 50.828 133.637 51.8627C133.637 52.8886 132.864 53.7111 131.919 53.7199V53.7287C132.831 54.9669 134.27 55.7451 135.815 55.8247C135.905 55.8247 136.004 55.8335 136.086 55.8335C137.426 55.8335 138.725 55.3383 139.703 54.4539C139.325 54.3213 139.004 54.0294 138.815 53.6403C138.601 53.1893 138.569 52.6587 138.725 52.1634C138.971 51.3586 139.67 50.8015 140.41 50.8015C140.558 50.8015 140.714 50.828 140.862 50.8722C140.919 50.8988 140.985 50.9164 141.034 50.9518C141.026 50.7926 141.059 50.6334 141.084 50.4919C141.281 49.5634 142.292 49.0504 143.122 48.7851C143.517 49.4838 143.92 50.2443 143.558 51.2702C143.517 51.4117 143.435 51.4913 143.287 51.6593H143.303C143.714 51.792 144.043 52.0927 144.24 52.4995C144.454 52.9417 144.487 53.4723 144.331 53.9675C144.084 54.7546 143.426 55.2764 142.678 55.2941C143.443 57.0805 145.218 57.4519 146.599 57.4519C147.429 57.4519 148.177 57.3193 148.621 57.222C148.547 56.771 148.523 55.7628 149.509 55.1791C149.805 55.0022 150.117 54.905 150.438 54.905C151.145 54.905 151.753 55.3383 151.983 55.807C152.353 55.409 152.789 55.2587 153.282 55.2587C153.454 55.2587 153.643 55.2764 153.832 55.3118C154.605 55.4356 155.205 55.9927 155.213 56.0193C148.934 58.4867 145.522 65.0222 144.536 67.8521C144.536 67.8698 144.528 67.8787 144.528 67.8875C143.944 69.7359 138.001 71.2039 130.48 71.2039H130.464H130.448C122.927 71.2039 116.992 69.727 116.408 67.8875C116.4 67.8787 116.4 67.861 116.384 67.8521C115.397 65.0045 111.995 58.4955 105.723 56.0281C105.739 56.0016 106.331 55.4444 107.104 55.3206C107.301 55.2852 107.482 55.2675 107.663 55.2675C108.164 55.2675 108.592 55.4179 108.961 55.8159C109.2 55.3471 109.808 54.9138 110.507 54.9138C110.836 54.9138 111.156 55.0022 111.444 55.188C112.422 55.7716 112.406 56.7798 112.34 57.2309C112.775 57.3281 113.523 57.4608 114.345 57.4608C115.734 57.4608 117.518 57.0805 118.274 55.3029C117.535 55.2941 116.869 54.7635 116.622 53.9764C116.466 53.4811 116.507 52.9505 116.713 52.5083C116.91 52.1015 117.239 51.8008 117.658 51.6682H117.674C117.518 51.5001 117.444 51.4205 117.395 51.279C117.033 50.2532 117.436 49.4926 117.839 48.794C118.669 49.0593 119.672 49.5722 119.869 50.5008C119.91 50.6511 119.935 50.8015 119.926 50.9607C119.976 50.9253 120.033 50.9076 120.107 50.8811C120.247 50.8368 120.403 50.8103 120.551 50.8103C121.291 50.8103 121.99 51.3675 122.236 52.1722C122.392 52.6675 122.359 53.1981 122.146 53.6491C121.957 54.0383 121.636 54.3213 121.258 54.4628C122.236 55.3383 123.535 55.8424 124.875 55.8424C124.965 55.8424 125.064 55.8424 125.146 55.8335C126.699 55.754 128.13 54.9757 129.042 53.7376V53.7111C128.089 53.7022 127.316 52.8709 127.316 51.8539C127.316 50.828 128.097 49.9879 129.058 49.9879C129.132 49.9879 129.19 50.0144 129.264 50.0321C129.206 49.8817 129.174 49.7314 129.174 49.5545C129.174 49.4219 129.19 49.2804 129.231 49.13C129.404 48.3164 129.938 47.7239 130.489 47.2817ZM124.899 57.6023C123.075 57.6023 121.373 56.9655 120.066 55.8247C119.326 57.9295 117.699 59.1234 115.258 59.3622C115.085 59.3799 114.896 59.3887 114.707 59.3887C114.099 59.3887 113.564 59.3003 113.203 59.203C114.033 60.1227 114.748 61.0956 115.389 62.0595C116.795 60.3085 123.017 58.9731 130.472 58.9731C137.977 58.9731 144.215 60.3261 145.572 62.086C146.213 61.1132 146.936 60.1404 147.783 59.2118C147.421 59.3091 146.879 59.3976 146.279 59.3976C146.09 59.3976 145.9 59.3887 145.728 59.371C143.278 59.1234 141.659 57.9295 140.911 55.8335C139.612 56.9744 137.903 57.6111 136.086 57.6111C135.971 57.6111 135.856 57.6111 135.741 57.6023C133.62 57.4873 131.689 56.3376 130.505 54.5954C129.313 56.3376 127.373 57.4873 125.253 57.6023C125.121 57.6023 125.006 57.6023 124.899 57.6023ZM136.703 64.4296C136.127 64.1466 135.716 63.5276 135.716 62.7935C135.716 62.0507 136.136 61.4228 136.727 61.1486C135.009 60.9275 133.103 60.8214 131.089 60.7949C131.681 61.0779 132.092 61.7058 132.092 62.4398C132.092 63.1738 131.681 63.8017 131.089 64.0847C133.119 64.1113 135.009 64.2262 136.703 64.4296ZM124.028 64.4562C125.738 64.2439 127.669 64.1113 129.724 64.0847C129.141 63.8017 128.721 63.1738 128.721 62.4398C128.721 61.7146 129.132 61.0867 129.716 60.8037C127.735 60.8302 125.853 60.9541 124.151 61.1575C124.735 61.4405 125.138 62.0595 125.138 62.7847C125.138 63.5629 124.677 64.2085 124.028 64.4562ZM142.432 65.7385C142.267 65.4555 142.161 65.146 142.161 64.8099C142.161 63.8194 142.9 63.0235 143.821 63.0058C142.67 62.3425 140.78 61.7765 138.412 61.3874C138.807 61.7235 139.095 62.2187 139.095 62.8024C139.095 63.7133 138.445 64.4385 137.632 64.5623C139.596 64.8453 141.24 65.2521 142.432 65.7385ZM122.392 61.4051C120.033 61.8119 118.159 62.3779 117.05 63.0589C117.132 63.0412 117.198 62.997 117.288 62.997C118.217 62.997 118.965 63.8194 118.965 64.8099C118.965 65.1194 118.874 65.3936 118.751 65.6501C119.918 65.199 121.488 64.8364 123.329 64.5623C122.458 64.4915 121.768 63.731 121.768 62.7759C121.759 62.2187 122.014 61.7411 122.392 61.4051ZM130.464 69.2671C136.637 69.2671 140.204 68.259 141.462 67.6399C140.204 67.0032 136.637 66.0127 130.464 66.0127C124.308 66.0127 120.732 67.012 119.491 67.6399C120.732 68.259 124.308 69.2671 130.464 69.2671ZM130.489 45C130.037 45 129.585 45.1592 129.206 45.4687C128.228 46.2647 127.604 47.1579 127.299 48.1749C126.067 48.8647 125.212 50.2532 125.212 51.8539C125.212 52.4287 125.327 52.977 125.524 53.4811C125.368 53.5165 125.212 53.5342 125.056 53.543C125.006 53.543 124.94 53.5519 124.883 53.5519C124.719 53.5519 124.554 53.543 124.39 53.5165C124.505 52.8178 124.455 52.0927 124.234 51.4205C123.806 50.0144 122.68 48.9443 121.365 48.6259C120.855 47.8565 119.968 47.096 118.447 46.6007C118.241 46.53 118.044 46.5034 117.839 46.5034C117.115 46.5034 116.433 46.9014 116.039 47.5824C115.685 48.2014 115.019 49.3599 115.159 50.8899C115.036 51.0668 114.929 51.2437 114.839 51.4471C114.362 52.4464 114.288 53.6315 114.625 54.6927C114.674 54.8519 114.732 55.0022 114.797 55.1526C114.658 55.1614 114.51 55.1703 114.354 55.1703C114.296 55.1703 114.238 55.1703 114.181 55.1703C113.852 54.3566 113.277 53.6668 112.496 53.1893C111.896 52.8178 111.214 52.6233 110.515 52.6233C109.874 52.6233 109.241 52.8002 108.682 53.1097C108.361 53.0301 108.024 52.9859 107.671 52.9859C107.392 52.9859 107.104 53.0124 106.792 53.0655C105.649 53.2512 104.383 54.0294 103.931 54.8342C103.602 55.4179 103.528 56.1254 103.742 56.771C103.956 57.4166 104.416 57.9207 105.016 58.1594C110.31 60.2466 113.482 65.9242 114.419 68.6392C114.452 68.7277 114.485 68.8161 114.526 68.8957C116.318 73.1495 127.143 73.4856 130.472 73.4856C133.892 73.4856 145.005 73.1407 146.533 68.7011C146.542 68.6658 146.558 68.6392 146.566 68.6039C146.838 67.861 149.566 60.6799 155.97 58.1683C156.512 57.956 156.956 57.505 157.186 56.9302C157.416 56.3553 157.416 55.7009 157.186 55.126C156.726 53.9675 155.148 53.2247 154.178 53.0655C153.874 53.0124 153.586 52.9859 153.306 52.9859C152.953 52.9859 152.616 53.0301 152.295 53.1097C151.736 52.8002 151.104 52.6233 150.454 52.6233C149.772 52.6233 149.09 52.8178 148.49 53.1893C147.701 53.658 147.125 54.3478 146.796 55.1703C146.739 55.1703 146.673 55.1703 146.616 55.1703C146.459 55.1703 146.311 55.1614 146.18 55.1526C146.246 55.0022 146.303 54.8519 146.353 54.6927C146.698 53.6403 146.624 52.4552 146.147 51.4559C146.048 51.2613 145.942 51.0668 145.818 50.8988C145.958 49.3688 145.292 48.2191 144.939 47.6001C144.544 46.9102 143.854 46.5123 143.139 46.5123C142.933 46.5123 142.736 46.5476 142.53 46.6096C141.002 47.1048 140.114 47.8654 139.604 48.6348C138.289 48.9531 137.163 50.0321 136.727 51.4648C136.514 52.1192 136.473 52.8355 136.579 53.5253C136.415 53.5519 136.259 53.5607 136.094 53.5607C136.037 53.5607 135.971 53.5607 135.914 53.5519C135.757 53.543 135.601 53.5253 135.453 53.49C135.651 52.9947 135.766 52.4376 135.766 51.8627C135.766 50.262 134.919 48.8735 133.686 48.1837C133.382 47.1756 132.766 46.2912 131.796 45.4864C131.401 45.1592 130.941 45 130.489 45Z" fill="#041241"/>
<path d="M134.179 75.2897C132.404 75.2897 131.097 74.7237 130.299 73.6182C130.045 73.2645 130.004 72.7781 130.201 72.3801C130.382 72.0087 130.743 71.7787 131.138 71.7787C131.162 71.7787 131.187 71.7787 131.212 71.7787C131.623 71.8141 132.009 71.8229 132.379 71.8229C133.39 71.8229 134.352 71.708 135.601 71.425C136.152 71.3012 136.735 71.2393 137.319 71.2393C139.694 71.2393 141.61 72.2386 142.621 73.176C143.015 73.5386 143.106 74.1577 142.834 74.6264C142.637 74.9713 142.292 75.1747 141.93 75.1747C141.799 75.1747 141.667 75.1482 141.536 75.0951C141.01 74.8652 140.327 74.7591 139.464 74.7591C138.346 74.7591 137.113 74.9448 135.848 75.1482C135.256 75.2455 134.697 75.2897 134.179 75.2897Z" fill="#0082C6"/>
<path d="M137.319 72.3801C139.234 72.3801 140.977 73.1495 141.93 74.0339C141.215 73.7244 140.369 73.6094 139.464 73.6094C138.264 73.6094 136.957 73.804 135.692 74.0074C135.19 74.087 134.672 74.14 134.179 74.14C132.946 74.14 131.804 73.8305 131.138 72.9108C131.574 72.9461 131.985 72.9638 132.387 72.9638C133.497 72.9638 134.533 72.8312 135.823 72.5393C136.324 72.4332 136.826 72.3801 137.319 72.3801ZM137.319 70.1073C136.661 70.1073 136.012 70.178 135.379 70.3195C134.212 70.5849 133.316 70.691 132.379 70.691C132.034 70.691 131.68 70.6733 131.286 70.6468C131.237 70.6468 131.187 70.6379 131.138 70.6379C130.365 70.6379 129.642 71.0978 129.272 71.8407C128.878 72.6366 128.951 73.6006 129.469 74.3081C130.168 75.272 131.549 76.4217 134.187 76.4217C134.755 76.4217 135.371 76.3687 136.02 76.2625C137.245 76.068 138.429 75.8822 139.473 75.8822C140.188 75.8822 140.755 75.9707 141.149 76.1387C141.404 76.2537 141.675 76.3067 141.939 76.3067C142.662 76.3067 143.352 75.9088 143.747 75.2101C144.281 74.255 144.108 73.0257 143.319 72.3005C141.848 70.9563 139.547 70.1073 137.319 70.1073Z" fill="#041241"/>
<path d="M160.712 74.9714C160.499 74.9714 160.277 74.9006 160.096 74.7591C159.726 74.4673 159.562 73.9632 159.701 73.4857L160.794 69.7801L157.819 67.525C157.441 67.242 157.285 66.7291 157.416 66.2603C157.556 65.7916 157.959 65.4644 158.411 65.4556L162.093 65.4113L163.195 61.6704C163.334 61.2017 163.737 60.8834 164.197 60.8745H164.206C164.658 60.8745 165.06 61.184 165.208 61.6528L166.376 65.3583L170.091 65.3229C170.543 65.3229 170.954 65.6413 171.094 66.1011C171.242 66.5699 171.085 67.0828 170.716 67.3746L167.757 69.7094L168.924 73.3795C169.072 73.8482 168.924 74.3612 168.554 74.6619C168.365 74.8122 168.143 74.8918 167.921 74.8918C167.707 74.8918 167.493 74.8211 167.313 74.6884L164.296 72.4156L161.337 74.7415C161.156 74.8918 160.934 74.9714 160.712 74.9714Z" fill="#0082C6"/>
<path d="M164.206 62.0065L165.611 66.4902L170.083 66.4549L166.499 69.276L167.913 73.7421L164.28 71.0094L160.712 73.8217L162.036 69.3202L158.419 66.5875L162.866 66.5345L164.206 62.0065ZM164.206 59.7336C164.197 59.7336 164.189 59.7336 164.189 59.7336C163.277 59.7425 162.471 60.3881 162.192 61.3255L161.32 64.2793L158.411 64.3147C157.49 64.3235 156.685 64.978 156.413 65.9154C156.142 66.8528 156.463 67.8875 157.219 68.4535L159.561 70.2311L158.707 73.1407C158.427 74.0781 158.748 75.104 159.487 75.6789C159.857 75.9618 160.293 76.1033 160.72 76.1033C161.156 76.1033 161.6 75.953 161.97 75.6612L164.312 73.8128L166.704 75.6081C167.066 75.8823 167.493 76.0238 167.921 76.0238C168.373 76.0238 168.817 75.8734 169.195 75.5639C169.926 74.9714 170.222 73.9366 169.926 73.0081L169.014 70.125L171.348 68.2855C172.088 67.7018 172.401 66.6671 172.105 65.7297C171.817 64.7922 171.003 64.1643 170.091 64.1643C170.083 64.1643 170.083 64.1643 170.074 64.1643L167.132 64.1909L166.211 61.2636C165.915 60.3527 165.11 59.7336 164.206 59.7336Z" fill="#041241"/>
<path d="M174.587 78.6857C174.373 78.6857 174.151 78.6149 173.971 78.4734C173.601 78.1816 173.445 77.6775 173.576 77.1999L174.34 74.6087L172.261 73.0346C171.883 72.7516 171.718 72.2386 171.858 71.7699C171.998 71.3012 172.401 70.974 172.853 70.9651L175.425 70.9297L176.19 68.3385C176.33 67.8698 176.732 67.5514 177.184 67.5426H177.193C177.645 67.5426 178.048 67.8521 178.195 68.312L179.009 70.9032L181.598 70.8678C182.05 70.8678 182.461 71.1774 182.601 71.6461C182.749 72.1148 182.593 72.6366 182.223 72.9284L180.168 74.5557L180.965 77.1292C181.113 77.5979 180.957 78.1108 180.596 78.4027C180.407 78.553 180.185 78.6326 179.963 78.6326C179.749 78.6326 179.535 78.5619 179.354 78.4292L177.275 76.8373L175.212 78.4646C175.023 78.6149 174.801 78.6857 174.587 78.6857Z" fill="#0082C6"/>
<path d="M177.201 68.6834L178.261 72.0529L181.607 72.0086L178.927 74.1311L179.971 77.4917L177.258 75.44L174.587 77.5448L175.582 74.1577L172.869 72.1059L176.206 72.0617L177.201 68.6834ZM177.201 66.4017C177.193 66.4017 177.184 66.4017 177.176 66.4017C176.264 66.4106 175.458 67.0562 175.179 67.9936L174.644 69.7977L172.836 69.8242C171.916 69.8331 171.11 70.4875 170.839 71.4338C170.568 72.3801 170.896 73.406 171.644 73.9719L173.091 75.0597L172.565 76.855C172.285 77.7924 172.606 78.8183 173.346 79.3931C173.716 79.6761 174.151 79.8176 174.579 79.8176C175.014 79.8176 175.458 79.6673 175.828 79.3755L177.275 78.2346L178.746 79.3489C179.108 79.6231 179.535 79.7646 179.963 79.7646C180.406 79.7646 180.85 79.6142 181.228 79.3136C181.96 78.721 182.264 77.6952 181.968 76.7666L181.409 74.9801L182.848 73.8393C183.587 73.2556 183.892 72.2209 183.604 71.2835C183.316 70.3549 182.502 69.727 181.598 69.727C181.59 69.727 181.582 69.727 181.574 69.727L179.765 69.7535L179.198 67.9494C178.91 67.0208 178.105 66.4017 177.201 66.4017Z" fill="#041241"/>
<path d="M126.782 75.2986C126.264 75.2986 125.705 75.2455 125.113 75.1482C123.839 74.9448 122.606 74.7591 121.488 74.7591C120.625 74.7591 119.951 74.8652 119.417 75.0952C119.285 75.1482 119.154 75.1748 119.022 75.1748C118.661 75.1748 118.315 74.9714 118.118 74.6265C117.847 74.1489 117.945 73.5298 118.332 73.1761C119.343 72.2387 121.266 71.2482 123.642 71.2482C124.225 71.2482 124.801 71.3101 125.36 71.4339C126.593 71.7169 127.546 71.8319 128.557 71.8319C128.935 71.8319 129.33 71.8142 129.741 71.7788C129.765 71.7788 129.79 71.7788 129.815 71.7788C130.201 71.7788 130.563 72.0087 130.752 72.3802C130.949 72.7781 130.908 73.2645 130.653 73.6183C129.856 74.7326 128.549 75.2986 126.782 75.2986Z" fill="#0082C6"/>
<path d="M123.642 72.3802C124.135 72.3802 124.636 72.4333 125.146 72.5483C126.428 72.8401 127.456 72.9728 128.565 72.9728C128.968 72.9728 129.387 72.9551 129.823 72.9197C129.157 73.8395 128.015 74.1578 126.782 74.1578C126.289 74.1578 125.779 74.1048 125.278 74.0252C124.004 73.8218 122.697 73.6272 121.497 73.6272C120.592 73.6272 119.746 73.7422 119.031 74.0429C119.984 73.1585 121.727 72.3802 123.642 72.3802Z" fill="#041241"/>
<path d="M138.355 79.1545C135.651 79.1545 133.349 78.0225 131.878 75.9619C131.582 75.5551 131.582 74.9802 131.878 74.5646C132.083 74.2816 132.396 74.1224 132.716 74.1224C132.856 74.1224 132.996 74.1489 133.135 74.2108C133.875 74.5557 134.952 74.7326 136.259 74.7326C137.5 74.7326 138.93 74.5646 140.278 74.2551C141.051 74.0782 141.807 73.9897 142.531 73.9897C145.58 73.9897 147.643 75.5197 149.262 77.0055C149.657 77.368 149.747 77.9783 149.484 78.4558C149.287 78.8096 148.942 79.013 148.58 79.013C148.449 79.013 148.317 78.9864 148.194 78.9334C147.388 78.5973 146.303 78.4204 144.988 78.4204C143.681 78.4204 142.169 78.5885 140.5 78.9245C139.761 79.0837 139.037 79.1545 138.355 79.1545Z" fill="#0082C6"/>
<path d="M142.522 75.1394C145.21 75.1394 147.051 76.4925 148.564 77.881C147.536 77.4476 146.279 77.2884 144.972 77.2884C143.361 77.2884 141.684 77.5272 140.286 77.8102C139.604 77.9429 138.955 78.0136 138.347 78.0136C135.782 78.0136 133.875 76.8993 132.7 75.2632C133.629 75.6966 134.878 75.8734 136.242 75.8734C137.623 75.8734 139.111 75.6877 140.484 75.3693C141.223 75.219 141.897 75.1394 142.522 75.1394ZM142.522 72.8666C141.725 72.8666 140.895 72.9639 140.056 73.1584C138.774 73.4503 137.426 73.6094 136.251 73.6094C134.697 73.6094 133.892 73.3441 133.546 73.185C133.275 73.0611 132.987 72.9992 132.708 72.9992C132.067 72.9992 131.442 73.3088 131.031 73.8836C130.439 74.7061 130.439 75.8558 131.031 76.6694C132.716 79.013 135.314 80.3041 138.355 80.3041C139.103 80.3041 139.892 80.2245 140.681 80.0654C142.292 79.747 143.739 79.5878 144.98 79.5878C146.147 79.5878 147.125 79.7381 147.799 80.0211C148.054 80.1273 148.309 80.1803 148.572 80.1803C149.295 80.1803 149.994 79.7735 150.388 79.0749C150.923 78.1197 150.734 76.8993 149.953 76.1741C148.284 74.6265 145.942 72.8666 142.522 72.8666Z" fill="#041241"/>
<path d="M122.606 79.1545C121.924 79.1545 121.201 79.0838 120.477 78.9335C118.8 78.5974 117.288 78.4294 115.981 78.4294C114.666 78.4294 113.589 78.5974 112.775 78.9423C112.652 78.9954 112.521 79.0219 112.389 79.0219C112.027 79.0219 111.674 78.8185 111.477 78.4647C111.214 77.9872 111.304 77.377 111.699 77.0144C113.318 75.5198 115.381 73.9987 118.431 73.9987C119.154 73.9987 119.91 74.0871 120.683 74.264C122.064 74.5735 123.461 74.7415 124.71 74.7415C126.017 74.7415 127.094 74.5647 127.826 74.2198C127.965 74.1578 128.105 74.1313 128.245 74.1313C128.565 74.1313 128.878 74.2905 129.083 74.5735C129.379 74.9803 129.379 75.5552 129.083 75.9708C127.612 78.0226 125.302 79.1545 122.606 79.1545Z" fill="#0082C6"/>
<path d="M118.43 75.1394C119.063 75.1394 119.737 75.2102 120.469 75.3782C121.85 75.6877 123.338 75.8734 124.718 75.8734C126.075 75.8734 127.324 75.6877 128.253 75.2632C127.078 76.8905 125.171 78.0136 122.606 78.0136C121.998 78.0136 121.348 77.9517 120.666 77.8191C119.269 77.5449 117.584 77.2973 115.973 77.2973C114.666 77.2973 113.408 77.4565 112.389 77.881C113.901 76.4925 115.751 75.1394 118.43 75.1394ZM118.43 72.8666C115.011 72.8666 112.668 74.6265 111.008 76.1564C110.227 76.8816 110.038 78.1021 110.572 79.0572C110.967 79.7647 111.666 80.1626 112.389 80.1626C112.644 80.1626 112.907 80.1096 113.153 80.0123C113.827 79.7293 114.806 79.579 115.973 79.579C117.222 79.579 118.669 79.7381 120.28 80.0654C121.077 80.2245 121.858 80.3041 122.606 80.3041C125.639 80.3041 128.236 79.013 129.93 76.6694C130.522 75.8469 130.522 74.6972 129.93 73.8748C129.519 73.2999 128.894 72.9904 128.253 72.9904C127.973 72.9904 127.686 73.0523 127.415 73.1761C127.069 73.3353 126.264 73.6006 124.718 73.6006C123.551 73.6006 122.195 73.4414 120.905 73.1496C120.066 72.9639 119.228 72.8666 118.43 72.8666Z" fill="#041241"/>
<path d="M189.44 84.6728C189.218 84.6728 189.004 84.602 188.815 84.4517L187.426 83.3551L186.004 84.434C185.823 84.5755 185.61 84.6462 185.396 84.6462C185.174 84.6462 184.952 84.5666 184.763 84.4163C184.393 84.1245 184.245 83.6027 184.393 83.134L184.944 81.4094L183.555 80.3128C183.185 80.021 183.029 79.4992 183.177 79.0305C183.325 78.5618 183.727 78.2522 184.179 78.2522L185.93 78.2699L186.481 76.5277C186.629 76.0678 187.032 75.7583 187.484 75.7583C187.492 75.7583 187.492 75.7583 187.5 75.7583C187.961 75.7671 188.363 76.0855 188.495 76.5542L189.004 78.3053L190.739 78.323C191.199 78.3318 191.602 78.6502 191.742 79.1278C191.881 79.5965 191.717 80.1094 191.339 80.4013L189.933 81.4625L190.443 83.1959C190.583 83.6646 190.426 84.1775 190.048 84.4694C189.876 84.602 189.654 84.6728 189.44 84.6728Z" fill="#0082C6"/>
<path d="M187.492 76.8904L188.232 79.4285L190.739 79.4551L188.7 80.9939L189.448 83.5232L187.442 81.9401L185.404 83.4878L186.201 80.9673L184.188 79.3755L186.695 79.402L187.492 76.8904ZM187.492 74.6176C186.588 74.6176 185.782 75.2366 185.486 76.1564L185.182 77.1203L184.204 77.1115C184.196 77.1115 184.188 77.1115 184.179 77.1115C183.267 77.1115 182.461 77.7394 182.174 78.668C181.886 79.6054 182.19 80.6401 182.93 81.2238L183.694 81.8252L183.39 82.7626C183.094 83.7 183.39 84.7348 184.122 85.3273C184.5 85.628 184.944 85.7783 185.396 85.7783C185.823 85.7783 186.251 85.6368 186.612 85.3627L187.41 84.7613L188.19 85.3715C188.56 85.6634 189.004 85.8137 189.44 85.8137C189.875 85.8137 190.303 85.6722 190.673 85.3892C191.421 84.8144 191.733 83.7885 191.454 82.8511L191.174 81.9136L191.939 81.3299C192.687 80.7639 193.015 79.7381 192.744 78.7918C192.473 77.8455 191.667 77.1999 190.747 77.1911L189.777 77.1822L189.497 76.2183C189.226 75.2808 188.421 74.6352 187.5 74.6264C187.508 74.6176 187.5 74.6176 187.492 74.6176Z" fill="#041241"/>
<path d="M71.5292 84.6641C71.3155 84.6641 71.0935 84.5934 70.9127 84.4519C70.5428 84.16 70.3866 83.6559 70.5181 83.1872L71.0278 81.4538L69.6304 80.3926C69.2523 80.1096 69.0962 79.5967 69.2277 79.1191C69.3674 78.6504 69.7702 78.3232 70.2305 78.3143L71.9566 78.2966L72.4662 76.5456C72.6059 76.0768 73.0005 75.7496 73.4608 75.7496C73.469 75.7496 73.469 75.7496 73.4772 75.7496C73.9293 75.7496 74.332 76.0592 74.48 76.519L75.0389 78.2613C75.0389 78.2613 76.7897 78.2436 76.7979 78.2436C77.25 78.2436 77.661 78.5531 77.8007 79.0218C77.9487 79.4905 77.7925 80.0123 77.4226 80.3041L76.0253 81.4008L76.576 83.1253C76.724 83.594 76.576 84.1069 76.2061 84.4076C76.0171 84.558 75.7951 84.6376 75.5732 84.6376C75.3595 84.6376 75.1458 84.5668 74.965 84.4253L73.5512 83.3552L72.1621 84.4519C71.9648 84.5934 71.7429 84.6641 71.5292 84.6641Z" fill="#0082C6"/>
<path d="M73.4773 76.8904L74.2828 79.4109L76.798 79.3844L74.776 80.9762L75.5815 83.4967L73.543 81.949L71.5374 83.5321L72.2854 81.0028L70.2552 79.464L72.7539 79.4374L73.4773 76.8904ZM73.4773 74.6088C73.4691 74.6088 73.4608 74.6088 73.4444 74.6088C72.532 74.6265 71.7265 75.272 71.4553 76.2095L71.1758 77.1646L70.2141 77.1734C69.2935 77.1823 68.488 77.8279 68.2167 78.7742C67.9455 79.7204 68.266 80.7463 69.0223 81.3123L69.7867 81.896L69.5072 82.8334C69.2277 83.7709 69.5483 84.7967 70.2881 85.3716C70.658 85.6546 71.0936 85.7961 71.521 85.7961C71.9566 85.7961 72.4005 85.6457 72.7704 85.3539L73.5512 84.7437L74.3485 85.345C74.7184 85.6192 75.1458 85.7607 75.565 85.7607C76.0089 85.7607 76.461 85.6103 76.8391 85.3008C77.5706 84.7083 77.8665 83.6736 77.5706 82.7361L77.2747 81.8075L78.0391 81.2062C78.7789 80.6225 79.083 79.5878 78.7953 78.6503C78.5077 77.7218 77.6939 77.0938 76.7898 77.0938C76.7815 77.0938 76.7733 77.0938 76.7651 77.0938L75.7788 77.1027L75.4664 76.1387C75.1787 75.2278 74.3814 74.6088 73.4773 74.6088Z" fill="#041241"/>
<path d="M100.257 74.9715C100.035 74.9715 99.8211 74.9007 99.632 74.7504L96.6647 72.4156L93.6646 74.6885C93.4837 74.83 93.27 74.8919 93.0563 74.8919C92.8344 74.8919 92.6124 74.8123 92.4234 74.6619C92.0535 74.3701 91.9056 73.8483 92.0535 73.3796L93.2125 69.7006L90.2534 67.3747C89.8835 67.0829 89.7274 66.5699 89.8753 66.1012C90.015 65.6325 90.426 65.323 90.8781 65.323L94.5934 65.3583L95.7606 61.6528C95.9085 61.193 96.3113 60.8834 96.7634 60.8834H96.7716C97.2319 60.8923 97.6346 61.2106 97.7662 61.6794L98.8676 65.4114L102.55 65.4645C103.01 65.4733 103.413 65.7917 103.545 66.2692C103.684 66.738 103.52 67.2509 103.142 67.5339L100.166 69.789L101.26 73.4946C101.399 73.9633 101.243 74.4762 100.865 74.7592C100.692 74.9007 100.47 74.9715 100.257 74.9715Z" fill="#0082C6"/>
<path d="M96.7716 62.0154L98.1032 66.5345L102.55 66.5964L98.9334 69.3291L100.257 73.8306L96.673 71.0183L93.0564 73.7598L94.4702 69.2849L90.8782 66.4638L95.3496 66.4991L96.7716 62.0154ZM96.7716 59.7337C95.8675 59.7337 95.062 60.3528 94.7661 61.2813L93.8372 64.2086L90.8946 64.1821C90.8864 64.1821 90.8864 64.1821 90.8782 64.1821C89.9658 64.1821 89.1521 64.81 88.8644 65.7474C88.5767 66.6849 88.8808 67.7196 89.6288 68.3033L91.9632 70.1339L91.0508 73.017C90.7549 73.9544 91.0508 74.9803 91.7906 75.5728C92.1687 75.8735 92.6125 76.0238 93.0564 76.0238C93.4838 76.0238 93.9112 75.8823 94.2729 75.6082L96.6483 73.8129L98.9992 75.6612C99.369 75.9531 99.8129 76.1034 100.249 76.1034C100.684 76.1034 101.112 75.9619 101.481 75.6789C102.221 75.1041 102.542 74.0782 102.262 73.1408L101.408 70.2312L103.75 68.4536C104.498 67.8876 104.827 66.8617 104.556 65.9155C104.284 64.9692 103.479 64.3236 102.558 64.3147L99.6403 64.2705L98.769 61.3167C98.4895 60.3793 97.684 59.7337 96.7716 59.7249C96.7799 59.7337 96.7716 59.7337 96.7716 59.7337Z" fill="#041241"/>
<path d="M86.3823 78.6857C86.1603 78.6857 85.9384 78.6149 85.7576 78.4646L83.7027 76.8462L81.5985 78.4292C81.4176 78.5707 81.2039 78.6326 80.9902 78.6326C80.7683 78.6326 80.5463 78.553 80.3573 78.4027C79.9874 78.1108 79.8395 77.5891 79.9874 77.1292L80.7929 74.5557L78.738 72.9284C78.3681 72.6366 78.212 72.1148 78.3599 71.6461C78.5079 71.1774 78.9106 70.8678 79.3627 70.8678L81.9437 70.8944L82.7574 68.3032C82.9054 67.8433 83.3081 67.5249 83.7602 67.5249H83.7684C84.2287 67.5249 84.6315 67.8521 84.7712 68.3208L85.5357 70.9209L88.1084 70.9563C88.5687 70.9651 88.9715 71.2835 89.103 71.761C89.2427 72.2298 89.0783 72.7427 88.7002 73.0257L86.6124 74.5999L87.3769 77.1911C87.5166 77.6598 87.3604 78.1727 86.9823 78.4646C86.8097 78.6149 86.596 78.6857 86.3823 78.6857Z" fill="#0082C6"/>
<path d="M83.7601 68.6834L84.7629 72.0617L88.1 72.1059L85.3794 74.1577L86.3821 77.5448L83.7108 75.44L80.9901 77.4918L82.0422 74.1311L79.3626 72.0086L82.6998 72.0529L83.7601 68.6834ZM83.7601 66.4017C82.8559 66.4017 82.0422 67.0208 81.7545 67.9494L81.1873 69.7535L79.3872 69.7358C79.379 69.7358 79.3708 69.7358 79.3626 69.7358C78.4502 69.7358 77.6447 70.3637 77.357 71.2923C77.0693 72.2297 77.3734 73.2645 78.1132 73.8481L79.5434 74.9801L78.9845 76.7666C78.6886 77.6952 78.9927 78.7299 79.7243 79.3224C80.1024 79.6231 80.5462 79.7734 80.9901 79.7734C81.4175 79.7734 81.8367 79.6319 82.2066 79.3578L83.6861 78.2435L85.1328 79.3843C85.5026 79.6761 85.9465 79.8265 86.3821 79.8265C86.8178 79.8265 87.2452 79.685 87.6151 79.402C88.3631 78.8272 88.6754 77.8013 88.396 76.8638L87.8699 75.0686L89.3165 73.9808C90.0728 73.4148 90.3933 72.3889 90.1221 71.4426C89.8508 70.4964 89.0453 69.8508 88.1247 69.8331L86.3164 69.8066L85.7821 67.9936C85.5026 67.0562 84.6971 66.4106 83.7847 66.4017C83.7765 66.4017 83.7683 66.4017 83.7601 66.4017Z" fill="#041241"/>
<path d="M130.489 205.222C130.168 205.222 129.864 205.062 129.667 204.797C128.039 202.63 126.371 198.58 126.066 196.678C126.017 196.36 126.091 196.033 126.28 195.776C127.168 194.574 127.653 193.256 127.908 192.009C127.11 193.3 125.968 194.468 124.299 195.396C121.891 196.732 120.674 198.138 120.222 200.092C120.132 200.49 119.844 200.809 119.483 200.915C119.384 200.941 119.294 200.959 119.195 200.959C118.924 200.959 118.652 200.844 118.447 200.632C115.997 198.014 115.603 194.927 117.296 191.991C116.729 191.593 116.285 191.01 116.039 190.311C115.702 189.356 115.767 188.321 116.178 187.41C114.986 187.95 113.852 188.472 112.619 189.232C110.301 190.656 108.855 192.221 109.323 195.219C109.389 195.653 109.224 196.086 108.887 196.342C108.707 196.475 108.493 196.546 108.279 196.546C108.098 196.546 107.918 196.493 107.753 196.396C103.15 193.583 103.249 187.623 103.997 185.332C104.728 183.068 105.879 181.264 107.416 179.929C107.087 179.592 106.816 179.194 106.627 178.735C106.586 179.433 106.38 180.097 106.117 180.592C105.928 180.954 105.575 181.167 105.197 181.167C105.123 181.167 105.057 181.158 104.983 181.14C104.531 181.043 104.194 180.636 104.145 180.15C104.145 180.15 104.079 179.734 103.767 179.433C103.578 179.619 103.306 179.831 102.928 179.955C102.756 180.008 102.558 180.043 102.353 180.043C101.317 180.043 99.9116 179.186 99.7144 178.116C99.7061 178.054 99.6979 178.009 99.6815 177.965C99.6733 177.965 99.6075 177.912 99.4513 177.806C99.1308 177.594 98.7938 177.461 98.7938 177.461C98.6376 177.39 98.539 177.364 98.465 177.364C98.4239 177.373 98.3663 177.443 98.3006 177.603C97.8978 178.682 96.9197 179.363 96.3361 179.681C96.032 180.344 95.6456 180.698 95.3662 180.892C95.4813 181.547 95.3333 182.201 94.9388 182.732C94.4785 183.351 93.7223 183.749 92.8181 183.873C92.8345 184.112 92.8921 184.412 92.9578 184.669C93.0647 185.058 92.9743 185.482 92.7195 185.774C92.514 186.004 92.2345 186.137 91.9468 186.137C91.8646 186.137 91.7906 186.128 91.7084 186.11C90.2043 185.739 89.2837 184.554 89.2343 182.935C89.2261 182.414 89.3165 181.963 89.4398 181.6C89.1028 181.724 88.774 181.777 88.4864 181.777C88.4699 181.777 88.3877 181.777 88.3713 181.777C87.7877 181.741 87.3356 181.503 87.0068 181.229C86.9822 181.326 86.9739 181.432 86.9657 181.512C86.9411 182.007 86.6369 182.422 86.1931 182.555C86.1027 182.582 86.004 182.599 85.9054 182.599C85.5602 182.599 85.2232 182.414 85.0259 182.095C84.8368 181.786 83.908 180.194 84.2779 178.743C84.5245 177.833 85.0916 177.275 85.5519 176.948C85.6424 176.444 85.8479 175.984 86.1602 175.613C85.7903 175.038 85.3136 173.703 85.8643 172.305C86.2835 171.235 87.2616 170.625 88.5439 170.625C88.6014 170.625 88.6507 170.625 88.7001 170.625L89.0617 170.492C89.4563 170.342 89.8672 170.262 90.2864 170.262C91.4372 170.262 92.4893 170.899 93.1058 171.943C93.1633 171.951 93.2455 171.951 93.3524 171.951C94.2894 171.951 95.7278 171.589 96.3608 171.35C96.7964 170.298 98.0704 169.935 99.1225 169.626C99.476 169.519 99.8459 169.422 100.191 169.29C100.577 169.148 101.325 168.803 102.78 167.972C102.451 167.521 102.279 166.964 102.295 166.371C102.304 166.044 102.435 165.743 102.665 165.531C102.862 165.354 103.109 165.257 103.356 165.257C103.397 165.257 103.446 165.257 103.487 165.266C103.594 165.283 103.701 165.283 103.816 165.283C104.589 165.283 105.6 164.983 106.52 164.452C106.2 164.16 105.937 163.771 105.772 163.32C105.649 162.993 105.575 162.604 105.567 162.188C101.473 165.77 96.2539 168.803 90.7221 168.803C88.9878 168.803 87.2863 168.502 85.6506 167.919C85.2478 167.777 84.9684 167.388 84.9273 166.928C84.8944 166.477 85.1163 166.044 85.4944 165.832C88.4946 164.134 91.7331 161.746 94.8648 158.969C94.0428 159.5 93.2455 160.004 92.4729 160.481C92.3085 160.587 92.1276 160.632 91.9468 160.632C91.6016 160.632 91.2728 160.455 91.0673 160.127L91.0098 160.03C90.755 159.615 90.7796 159.093 91.0427 158.712C88.0425 160.092 85.0259 160.923 82.1655 160.923C79.4283 160.923 77.02 160.145 75.0062 158.597C74.702 158.368 74.5294 157.97 74.5623 157.572C74.5952 157.174 74.8253 156.811 75.1623 156.643C77.9652 155.219 82.823 152.398 87.8534 148.763C86.004 149.595 84.0642 150.346 82.0586 151.01C81.96 151.045 81.8531 151.063 81.7463 151.063C81.5654 151.063 81.3928 151.018 81.2366 150.921C80.9818 150.771 80.801 150.514 80.727 150.223L80.6941 150.099C80.5544 149.533 80.8339 148.949 81.3435 148.737C84.2615 147.561 86.9986 146.225 89.522 144.748C86.1438 146.207 82.7162 147.118 79.5023 147.118C75.6309 147.118 72.4252 145.801 69.9758 143.192C69.7127 142.909 69.5977 142.493 69.6881 142.104C69.7785 141.715 70.0497 141.405 70.4114 141.29C76.4364 139.336 81.3599 137.337 85.5519 135.1C84.9437 135.268 84.3354 135.427 83.7108 135.577C81.4093 136.108 78.968 136.497 76.2638 136.771C76.2309 136.771 76.198 136.78 76.1651 136.78C75.6473 136.78 75.2034 136.373 75.1212 135.816L75.1048 135.692C75.0144 135.073 75.4089 134.49 75.9843 134.392C80.5544 133.623 84.3272 132.588 87.648 131.2C85.2314 131.792 82.8724 132.102 80.6202 132.102C73.8225 132.102 68.562 129.325 66.1865 124.487C66.0057 124.125 66.0221 123.683 66.2358 123.338C66.4331 123.01 66.7701 122.816 67.1236 122.816C67.1482 122.816 67.1647 122.816 67.1893 122.816C67.5428 122.842 67.9291 122.851 68.3318 122.851C72.0142 122.851 78.0228 121.834 83.8505 120.163C83.6697 120.163 83.4888 120.163 83.3162 120.163C79.9051 120.163 76.6172 119.747 73.5513 118.933C73.017 118.792 72.6718 118.235 72.7622 117.642L72.7787 117.518C72.8198 117.218 72.9841 116.952 73.2143 116.776C73.3951 116.634 73.6088 116.563 73.8308 116.563C73.8965 116.563 73.9541 116.572 74.0198 116.581C75.9761 116.952 78.0803 117.156 80.2832 117.174C80.5544 117.182 80.8092 117.182 81.0723 117.182C82.6175 117.182 84.1875 117.094 85.741 116.917C76.0583 115.829 70.1895 111.31 69.0552 103.89C68.9976 103.492 69.1374 103.094 69.4168 102.829C69.6141 102.652 69.8525 102.564 70.0991 102.564C70.2141 102.564 70.3374 102.581 70.4525 102.626C74.4719 104.138 80.2503 105.173 86.1191 105.473C82.897 104.129 79.864 102.272 77.0775 99.946C76.6337 99.5746 76.535 98.9025 76.8556 98.4072L76.9213 98.3099C77.1268 97.9827 77.4556 97.8147 77.7926 97.8147C77.9899 97.8147 78.1954 97.8766 78.368 98.0004C81.4668 100.176 84.804 101.83 88.2809 102.909C88.5357 102.988 88.7905 103.059 89.0535 103.13C79.0173 96.665 78.853 88.4315 79.9133 83.5498C80.0119 83.0987 80.3489 82.7627 80.7681 82.6831C80.8257 82.6743 80.8832 82.6654 80.9407 82.6654C81.3024 82.6654 81.6476 82.8688 81.8367 83.2049C83.2505 85.6457 85.6424 87.8567 88.9631 89.8023C89.0042 88.6703 89.3823 87.4764 90.1878 86.5655C90.3933 86.3355 90.6728 86.2117 90.9522 86.2117C91.0591 86.2117 91.166 86.2294 91.2728 86.2648C91.6591 86.3975 91.9386 86.76 91.9961 87.1934C92.3907 90.1914 95.473 92.2166 97.9554 93.384C97.9554 93.3751 97.9554 93.3574 97.9554 93.3486C97.8156 91.7833 98.4979 90.2533 99.8705 89.0329C100.068 88.8648 100.306 88.7764 100.545 88.7764C100.701 88.7764 100.865 88.8118 101.013 88.8914C101.383 89.0859 101.621 89.5016 101.605 89.9438C101.531 93.1894 105.978 95.6303 107.901 96.5323C108.476 96.7977 109.085 97.0983 109.685 97.3902L110.277 97.682C112.742 98.8494 114.764 100.432 116.277 102.36C116.433 102.555 116.573 102.749 116.704 102.944C116.696 102.873 116.696 102.794 116.696 102.723C116.696 102.405 116.819 102.095 117.041 101.883C117.239 101.688 117.493 101.582 117.756 101.582C117.789 101.582 117.814 101.582 117.847 101.582C117.937 101.6 118.011 101.6 118.077 101.6C118.628 101.6 118.948 101.511 119.211 99.7426C119.277 99.2562 119.343 98.8405 119.425 98.4072C118.578 98.3276 117.781 97.8589 117.206 97.0983C116.466 96.1167 116.178 94.7636 116.441 93.4636C116.507 93.1098 116.737 92.8091 117.041 92.6588C117.181 92.588 117.329 92.5615 117.477 92.5615C117.658 92.5615 117.839 92.6146 118.003 92.7119C118.315 92.8976 118.603 92.9949 118.874 92.9949C119.877 92.9949 120.633 91.6064 120.913 91.005C121.159 90.4832 121.39 90.0145 121.628 89.5812C120.362 89.3424 119.261 88.5642 118.636 87.441C117.929 86.1764 117.945 84.6199 118.669 83.1695C118.858 82.7981 119.22 82.5681 119.598 82.5681C119.655 82.5681 119.713 82.577 119.778 82.5858C120.222 82.6654 120.576 83.0457 120.65 83.5321C120.683 83.7355 120.707 83.9035 121.34 83.9035C122.351 83.9035 123.905 83.3552 125.277 82.8777C126.297 82.5151 127.258 82.179 128.047 82.0375L128.631 81.9225C129.831 81.6926 131.319 81.4008 133.16 81.4008C134.401 81.4008 135.642 81.5334 136.949 81.7899C138.593 82.1259 139.514 82.7627 139.999 83.9831C142.325 84.3546 144.717 85.0621 145.851 86.9635C146.18 87.5029 146.385 88.1043 146.476 88.7676C146.616 88.688 146.78 88.6438 146.953 88.6438C148.818 88.6438 150.142 90.3241 150.339 91.9425C150.479 93.0833 150.158 94.1888 149.443 95.0643C148.547 96.1609 147.109 96.7623 145.391 96.7623C145.177 96.7623 144.947 96.7534 144.717 96.7357C143.993 96.6738 143.328 96.4704 142.695 96.1874C142.785 96.4704 142.843 96.7534 142.867 97.0453C142.892 97.4963 142.67 97.9208 142.3 98.1331C142.144 98.2215 141.98 98.2657 141.807 98.2657C141.569 98.2657 141.339 98.1773 141.141 98.0181C140.64 97.5847 138.725 96.7711 137.664 96.55C137.286 96.4704 136.703 96.3643 136.02 96.3643C135.289 96.3643 134.615 96.4881 134.031 96.7446C132.963 97.2045 132.396 99.495 132.93 101.184C133.234 102.139 133.867 102.608 134.861 102.608C134.952 102.608 135.051 102.608 135.149 102.599C135.494 102.573 135.79 102.546 135.848 101.246C135.864 100.822 136.103 100.441 136.456 100.264C136.596 100.194 136.752 100.158 136.9 100.158C137.13 100.158 137.352 100.238 137.541 100.388C139.004 101.591 139.908 103.528 139.719 105.084C139.621 105.916 139.243 106.605 138.634 107.092C139.127 107.454 139.645 107.888 140.163 108.48C141.495 108.604 142.728 108.746 143.878 108.922C143.098 107.861 142.169 105.606 144.667 102.387C146.172 100.459 148.194 98.8759 150.676 97.6997L150.997 97.5405C151.679 97.2045 152.394 96.8507 153.051 96.55C154.967 95.6568 159.413 93.216 159.34 89.9703C159.331 89.5281 159.561 89.1125 159.931 88.9179C160.079 88.8383 160.235 88.8029 160.4 88.8029C160.638 88.8029 160.877 88.8914 161.074 89.0594C162.447 90.2798 163.137 91.8098 162.997 93.3751C162.997 93.384 162.997 93.3928 162.997 93.4105C165.48 92.2431 168.57 90.2179 168.965 87.2111C169.022 86.7777 169.302 86.4151 169.688 86.2825C169.795 86.2471 169.902 86.2294 170.009 86.2294C170.296 86.2294 170.576 86.3532 170.773 86.5832C171.579 87.5029 171.965 88.688 171.998 89.82C175.318 87.8832 177.71 85.6723 179.124 83.2314C179.321 82.8953 179.658 82.6919 180.02 82.6919C180.078 82.6919 180.135 82.7008 180.193 82.7096C180.612 82.7804 180.949 83.1253 181.048 83.5763C182.108 88.4492 181.943 96.6915 171.907 103.156C172.17 103.086 172.433 103.006 172.696 102.926C176.165 101.839 179.502 100.185 182.601 98.0181C182.782 97.8943 182.979 97.8324 183.176 97.8324C183.505 97.8324 183.826 98.0004 184.031 98.3011L184.097 98.3984C184.434 98.8936 184.344 99.5923 183.892 99.9725C181.113 102.29 178.072 104.147 174.85 105.5C180.711 105.208 186.497 104.173 190.525 102.652C190.64 102.608 190.755 102.59 190.878 102.59C191.125 102.59 191.363 102.679 191.56 102.856C191.848 103.112 191.988 103.519 191.922 103.917C190.788 111.337 184.919 115.856 175.228 116.908C176.782 117.085 178.351 117.174 179.897 117.174C180.16 117.174 180.415 117.174 180.678 117.165C182.897 117.147 185.001 116.944 186.949 116.572C187.015 116.563 187.073 116.555 187.138 116.555C187.631 116.555 188.075 116.935 188.174 117.474L188.199 117.598C188.305 118.191 187.96 118.774 187.41 118.925C184.344 119.738 181.056 120.154 177.645 120.154C177.464 120.154 177.283 120.154 177.102 120.154C182.93 121.825 188.938 122.842 192.621 122.842C193.024 122.842 193.41 122.834 193.763 122.807C193.788 122.807 193.804 122.807 193.829 122.807C194.191 122.807 194.52 123.002 194.717 123.329C194.922 123.674 194.939 124.116 194.766 124.478C192.391 129.316 187.13 132.093 180.341 132.093C178.097 132.093 175.738 131.783 173.321 131.191C176.634 132.579 180.406 133.605 184.977 134.383C185.527 134.481 185.922 135.02 185.864 135.622L185.856 135.745C185.798 136.338 185.338 136.771 184.804 136.771C184.771 136.771 184.738 136.771 184.705 136.762C181.993 136.488 179.552 136.099 177.258 135.568C176.642 135.418 176.025 135.268 175.425 135.1C179.609 137.337 184.541 139.345 190.566 141.29C190.928 141.405 191.199 141.715 191.289 142.104C191.38 142.493 191.273 142.909 191.001 143.192C188.544 145.792 185.338 147.118 181.467 147.118C178.253 147.118 174.833 146.207 171.455 144.757C173.97 146.225 176.708 147.561 179.626 148.737C180.16 148.949 180.439 149.577 180.258 150.161L180.217 150.284C180.069 150.762 179.658 151.071 179.215 151.071C179.116 151.071 179.009 151.054 178.902 151.018C176.897 150.355 174.965 149.612 173.124 148.781C178.154 152.416 183.004 155.237 185.815 156.661C186.152 156.838 186.382 157.191 186.415 157.589C186.448 157.987 186.283 158.385 185.971 158.615C183.949 160.154 181.541 160.941 178.812 160.941C175.943 160.941 172.935 160.11 169.943 158.73C170.041 158.872 170.107 159.031 170.132 159.208C170.181 159.508 170.115 159.818 169.951 160.066L169.885 160.163C169.68 160.472 169.351 160.64 169.022 160.64C168.841 160.64 168.661 160.587 168.496 160.49C167.715 160.004 166.91 159.5 166.088 158.969C169.228 161.755 172.466 164.151 175.475 165.84C175.853 166.053 176.075 166.486 176.042 166.937C176.009 167.388 175.721 167.786 175.318 167.928C173.683 168.511 171.981 168.812 170.247 168.812C164.707 168.812 159.496 165.779 155.402 162.197C155.394 162.613 155.32 163.002 155.197 163.329C155.032 163.78 154.769 164.16 154.449 164.452C155.369 164.991 156.38 165.283 157.153 165.283C157.268 165.283 157.375 165.274 157.482 165.266C157.523 165.257 157.572 165.257 157.613 165.257C157.86 165.257 158.107 165.354 158.304 165.531C158.534 165.743 158.665 166.044 158.674 166.362C158.69 166.955 158.526 167.521 158.189 167.981C159.372 168.653 160.26 169.113 160.761 169.298C161.115 169.431 161.485 169.537 161.838 169.634C162.89 169.935 164.164 170.307 164.6 171.359C165.241 171.589 166.671 171.96 167.617 171.96C167.724 171.96 167.806 171.951 167.871 171.951C168.496 170.908 169.548 170.271 170.691 170.271C171.102 170.271 171.521 170.351 171.932 170.51L172.269 170.634C172.318 170.634 172.368 170.634 172.425 170.634C173.707 170.634 174.677 171.244 175.097 172.314C175.647 173.72 175.179 175.056 174.801 175.63C175.105 176.002 175.31 176.462 175.401 176.957C175.869 177.284 176.436 177.841 176.666 178.752C177.045 180.203 176.124 181.803 175.935 182.104C175.738 182.431 175.401 182.617 175.055 182.617C174.965 182.617 174.866 182.608 174.776 182.573C174.332 182.44 174.02 182.024 173.995 181.529C173.987 181.441 173.97 181.335 173.954 181.237C173.617 181.52 173.165 181.759 172.581 181.795C172.565 181.795 172.483 181.795 172.466 181.795C172.187 181.795 171.85 181.741 171.513 181.618C171.636 181.989 171.726 182.431 171.71 182.953C171.677 184.563 170.757 185.757 169.252 186.128C169.17 186.146 169.096 186.154 169.014 186.154C168.726 186.154 168.439 186.031 168.241 185.792C167.987 185.491 167.896 185.076 168.003 184.686C168.069 184.43 168.126 184.129 168.143 183.89C167.23 183.776 166.474 183.369 166.014 182.75C165.628 182.219 165.471 181.573 165.595 180.919C165.323 180.733 164.937 180.371 164.625 179.716C164.041 179.398 163.055 178.717 162.652 177.629C162.586 177.443 162.521 177.399 162.521 177.399H162.512C162.447 177.399 162.356 177.408 162.208 177.479C162.159 177.496 161.83 177.638 161.493 177.859C161.304 177.983 161.255 178.045 161.246 178.045C161.255 178.045 161.246 178.089 161.238 178.142C161.033 179.221 159.627 180.079 158.6 180.079C158.394 180.079 158.197 180.043 158.008 179.99C157.638 179.875 157.367 179.654 157.178 179.469C156.857 179.76 156.783 180.212 156.783 180.22C156.709 180.698 156.364 181.087 155.92 181.175C155.854 181.184 155.789 181.193 155.731 181.193C155.353 181.193 155 180.981 154.81 180.618C154.556 180.123 154.35 179.469 154.309 178.77C154.12 179.221 153.849 179.628 153.52 179.955C155.057 181.282 156.2 183.095 156.939 185.359C157.687 187.64 157.794 193.601 153.183 196.422C153.019 196.519 152.838 196.572 152.657 196.572C152.443 196.572 152.23 196.502 152.049 196.369C151.712 196.113 151.547 195.679 151.613 195.246C152.09 192.248 150.635 190.691 148.317 189.259C147.084 188.498 145.95 187.976 144.766 187.437C145.177 188.339 145.243 189.382 144.906 190.329C144.659 191.036 144.215 191.611 143.648 192.009C145.341 194.954 144.947 198.04 142.497 200.649C142.3 200.862 142.029 200.977 141.75 200.977C141.651 200.977 141.56 200.959 141.462 200.932C141.092 200.817 140.812 200.508 140.722 200.11C140.278 198.155 139.053 196.749 136.653 195.414C134.977 194.485 133.834 193.309 133.037 192.018C133.292 193.265 133.776 194.591 134.664 195.803C134.853 196.059 134.927 196.378 134.878 196.696C134.582 198.606 132.913 202.648 131.286 204.815C131.105 205.071 130.809 205.222 130.489 205.222ZM134.944 184.854C135.56 185.562 136.448 186.154 137.516 186.756C138.264 187.172 139.621 187.623 140.854 187.623C141.371 187.623 142.259 187.543 142.366 186.986C142.407 186.765 142.514 186.57 142.654 186.42C141.552 185.889 140.369 185.252 139.004 184.35C138.19 183.82 137.426 183.227 136.727 182.573C136.596 183.546 136.086 184.271 135.47 184.642C135.305 184.739 135.133 184.81 134.944 184.854ZM118.315 186.42C118.463 186.57 118.562 186.774 118.603 186.995C118.71 187.543 119.589 187.623 120.107 187.623C121.34 187.623 122.705 187.172 123.453 186.756C124.521 186.154 125.409 185.562 126.025 184.854C125.836 184.81 125.664 184.739 125.508 184.642C124.891 184.271 124.373 183.546 124.25 182.564C123.551 183.218 122.787 183.811 121.965 184.342C120.592 185.252 119.417 185.889 118.315 186.42ZM105.057 175.498C105.657 175.896 106.052 176.391 106.298 176.913C106.348 175.188 107.359 173.649 108.896 173.039C109.019 172.995 109.142 172.969 109.266 172.969C109.504 172.969 109.742 173.057 109.931 173.225C110.219 173.481 110.367 173.879 110.309 174.277C110.235 174.781 110.375 175.029 110.507 175.188C110.951 175.745 112.085 176.081 113.548 176.081C115.463 176.081 117.732 175.507 119.458 174.578C119.483 174.569 119.507 174.552 119.532 174.543C119.129 174.605 118.735 174.64 118.356 174.64C117.954 174.64 117.576 174.605 117.23 174.525C116.934 174.463 116.68 174.269 116.523 173.986C116.367 173.703 116.334 173.366 116.425 173.057C116.523 172.721 116.713 172.367 116.959 172.013C116.162 172.509 115.2 172.8 114.271 172.8C113.679 172.8 113.129 172.686 112.627 172.464C111.608 172.013 110.786 171.023 110.482 169.873C110.433 169.687 110.392 169.493 110.375 169.298C109.266 169.97 108.567 170.961 108.164 172.367C108.024 172.854 107.605 173.172 107.153 173.172C107.079 173.172 106.997 173.163 106.923 173.145C106.257 172.986 105.657 172.403 105.32 171.589C103.569 172.562 102.698 173.198 102.271 173.579C102.369 173.561 102.476 173.561 102.575 173.561C103.586 173.561 104.63 174.269 104.95 175.171C104.991 175.321 105.024 175.418 105.057 175.498ZM151.703 172.969C151.827 172.969 151.95 172.995 152.073 173.039C153.61 173.649 154.621 175.188 154.671 176.895C154.917 176.373 155.312 175.887 155.912 175.498C155.912 175.498 155.912 175.498 155.92 175.498C155.953 175.418 155.986 175.321 156.035 175.188C156.356 174.277 157.4 173.57 158.411 173.57C158.518 173.57 158.616 173.579 158.715 173.588C158.287 173.207 157.424 172.571 155.665 171.598V171.607C155.328 172.42 154.737 172.995 154.071 173.154C153.997 173.172 153.915 173.181 153.841 173.181C153.388 173.181 152.969 172.862 152.83 172.376C152.427 170.97 151.72 169.979 150.61 169.307C150.586 169.493 150.553 169.687 150.503 169.873C150.199 171.014 149.377 172.013 148.358 172.464C147.857 172.686 147.306 172.8 146.714 172.8C145.785 172.8 144.824 172.509 144.026 172.013C144.273 172.367 144.462 172.721 144.561 173.057C144.651 173.366 144.618 173.703 144.462 173.986C144.306 174.269 144.051 174.463 143.755 174.525C143.41 174.596 143.032 174.64 142.629 174.64C142.251 174.64 141.865 174.605 141.462 174.543C141.486 174.552 141.511 174.569 141.536 174.578C143.262 175.507 145.522 176.081 147.437 176.081C148.892 176.081 150.027 175.745 150.479 175.188C150.61 175.029 150.742 174.781 150.668 174.277C150.61 173.879 150.75 173.481 151.046 173.225C151.227 173.057 151.465 172.969 151.703 172.969ZM118.381 165.858C117.181 166.177 116.244 166.919 116.006 167.388C115.702 167.972 115.759 168.211 115.891 168.609C115.956 168.812 116.343 169.219 117.255 169.219C117.674 169.219 118.052 169.484 118.225 169.9C118.307 170.103 118.332 170.333 118.299 170.545C118.422 170.43 118.546 170.315 118.669 170.209C118.447 170.006 118.25 169.749 118.077 169.431C117.551 168.458 117.551 167.326 118.077 166.345C118.159 166.159 118.266 166.009 118.381 165.858ZM142.67 170.536C142.637 170.324 142.662 170.103 142.744 169.891C142.917 169.475 143.295 169.21 143.714 169.21C144.626 169.21 145.013 168.803 145.087 168.591C145.218 168.202 145.276 167.963 144.963 167.379C144.717 166.928 143.78 166.177 142.58 165.858C142.695 166.009 142.793 166.159 142.884 166.327C143.41 167.309 143.418 168.441 142.892 169.422C142.719 169.741 142.522 169.997 142.3 170.2C142.424 170.307 142.547 170.422 142.67 170.536ZM122.573 165.54C122.622 165.982 122.425 166.424 122.064 166.663C121.792 166.84 121.718 166.99 121.727 167.034C121.743 167.087 121.8 167.141 121.825 167.141C122.705 167.141 123.518 166.247 124.028 165.221C123.543 165.381 123.05 165.478 122.573 165.54ZM136.941 165.221C137.155 165.646 137.418 166.044 137.714 166.362C138.042 166.716 138.552 167.132 139.152 167.132C139.169 167.132 139.226 167.079 139.243 167.026C139.251 166.981 139.177 166.84 138.906 166.663C138.544 166.433 138.347 165.991 138.396 165.54C137.919 165.478 137.434 165.381 136.941 165.221ZM149.435 155.75C149.829 157.908 150.857 159.765 151.679 160.366C151.81 160.464 151.967 160.517 152.106 160.517C152.188 160.517 152.23 160.499 152.23 160.49C152.246 160.472 152.295 160.34 152.271 160.039C152.246 159.774 152.304 159.517 152.435 159.305C151.284 158.067 150.273 156.846 149.443 155.723C149.443 155.741 149.443 155.75 149.435 155.75ZM108.526 159.323C108.649 159.535 108.715 159.791 108.69 160.048C108.666 160.349 108.715 160.481 108.731 160.508C108.74 160.508 108.772 160.534 108.855 160.534C108.994 160.534 109.15 160.481 109.282 160.384C110.12 159.774 111.14 157.917 111.526 155.759C111.526 155.759 111.526 155.759 111.526 155.75C110.688 156.864 109.677 158.085 108.526 159.323ZM117.847 105.5C118.151 107.074 117.6 108.233 117.107 108.905C117.321 108.869 117.543 108.843 117.773 108.807C118.587 108.082 118.989 107.171 119.178 106.331C118.661 106.163 118.217 105.871 117.847 105.5ZM146.426 90.7662C146.361 91.1907 146.262 91.6418 146.131 92.1193C146.131 92.1282 146.131 92.1282 146.122 92.137C146.5 91.9159 146.607 91.5533 146.632 91.4207C146.648 91.3057 146.698 90.9343 146.426 90.7662C146.426 90.7751 146.426 90.7751 146.426 90.7662ZM141.289 90.9077C141.56 91.0316 141.823 91.1554 142.087 91.2792C142.81 91.6241 143.476 91.9336 144.092 92.1282C144.067 92.0486 144.051 91.969 144.051 91.8806C143.993 91.1465 142.021 90.9696 141.38 90.9166C141.355 90.9077 141.322 90.9077 141.289 90.9077Z" fill="#0082C6"/>
<path d="M133.152 82.5238C134.212 82.5238 135.396 82.6211 136.744 82.8952C138.478 83.249 138.93 83.8769 139.201 85C143.698 85.628 146.484 86.9722 145.12 91.7832C144.996 90.0675 142.629 89.8729 141.445 89.7668C141.002 89.7314 140.459 89.7049 139.859 89.7049C137.985 89.7049 135.593 89.9791 134.261 91.058L134.27 91.0934C135.166 90.7219 135.914 90.5716 136.604 90.5716C137.944 90.5716 139.054 91.1376 140.574 91.8009C142.276 92.5437 143.772 93.4546 145.276 93.4546C145.415 93.4546 145.563 93.4458 145.711 93.4281C147.84 93.1893 148.317 90.5804 146.961 89.7668C148.21 89.7668 149.155 90.9165 149.295 92.075C149.501 93.7995 148.227 95.6037 145.391 95.6037C145.202 95.6037 145.005 95.5948 144.799 95.5771C142.029 95.3384 139.966 92.3934 137.089 92.3934C136.604 92.3934 136.094 92.4818 135.552 92.6764C136.473 92.8356 137.418 93.0744 138.429 93.5077C140.032 94.1798 141.717 95.6479 141.807 97.1071C141.092 96.488 138.947 95.639 137.878 95.4091C137.442 95.3207 136.785 95.1968 136.029 95.1968C135.297 95.1968 134.459 95.3118 133.645 95.6567C131.968 96.3819 131.245 99.3357 131.935 101.52C132.272 102.581 133.102 103.722 134.87 103.722C134.985 103.722 135.108 103.713 135.24 103.705C136.292 103.616 136.842 102.953 136.916 101.272C138.618 102.67 139.58 105.5 137.599 106.411C137.344 106.526 137.097 106.579 136.859 106.579C136.193 106.579 135.593 106.198 135.042 105.783C136.538 107.357 138.067 107.569 139.686 109.568C144.248 109.966 149.155 110.771 151.695 112.389C152.082 112.619 152.493 112.928 152.879 113.291C153.158 113.521 153.726 113.999 153.849 114.503C154.868 112.902 153.561 111.018 150.545 110.107C148.062 109.364 145.925 109.842 144.725 108.206C143.517 106.57 144.289 104.66 145.498 103.112C146.78 101.467 148.613 99.9282 151.12 98.7343C151.893 98.3541 152.723 97.9384 153.487 97.5935C157.054 95.922 160.499 93.2778 160.416 89.9348C162.808 92.0485 162.11 94.6751 160.531 95.6037C161.016 95.4179 161.485 95.2588 161.986 95.073C165.644 93.6404 169.524 91.1287 170.025 87.3702C171.266 88.7763 171.168 91.0934 170.362 91.9866C174.316 90.0321 177.973 87.4144 180.053 83.8327C182.642 95.7363 172.787 102.608 163.4 106.039C163.416 106.039 163.449 106.048 163.466 106.048C164.847 105.809 166.211 105.571 167.551 105.288C169.384 104.898 171.217 104.571 173.017 104.014C176.601 102.891 180.045 101.184 183.201 98.9643L183.267 99.0616C180.267 101.555 176.888 103.554 173.28 104.907C171.472 105.597 169.631 106.207 167.715 106.446C167.452 106.481 167.173 106.499 166.902 106.526C168.34 106.649 169.894 106.711 171.521 106.711C178.023 106.711 185.626 105.703 190.895 103.722C189.621 112.071 181.787 116.006 170.609 116.006C168.398 116.006 166.047 115.847 163.589 115.546C165.052 115.962 166.499 116.36 167.962 116.661C170.05 117.129 172.146 117.633 174.275 117.934C176.14 118.182 178.023 118.314 179.913 118.314C180.176 118.314 180.439 118.314 180.702 118.305C182.856 118.288 185.018 118.102 187.138 117.695L187.163 117.819C184.064 118.642 180.867 119.013 177.653 119.013C176.494 119.013 175.343 118.969 174.192 118.871C172.014 118.703 169.82 118.438 167.699 117.81C167.452 117.739 167.206 117.642 166.959 117.563C174.332 121.197 186.201 123.974 192.629 123.974C193.056 123.974 193.467 123.965 193.837 123.939C191.643 128.414 186.711 130.943 180.341 130.943C174.316 130.943 167 128.67 159.512 123.621C159.611 123.744 159.718 123.842 159.825 123.965C161.345 125.124 162.833 126.291 164.411 127.326C166.458 128.732 168.513 130.121 170.724 131.226C175.146 133.428 179.963 134.675 184.812 135.489L184.804 135.613C182.355 135.365 179.905 134.994 177.472 134.436C175.064 133.87 172.672 133.101 170.37 132.075C168.414 131.217 166.491 130.209 164.715 128.953C171.653 135.268 179.971 139.035 190.254 142.36C187.853 144.907 184.812 145.96 181.467 145.96C172.803 145.96 162.118 138.894 155.369 132.323C155.452 132.464 155.55 132.597 155.632 132.73C157.079 134.286 158.518 135.834 160.055 137.258C161.929 139.026 163.811 140.804 165.866 142.36C169.976 145.456 174.529 147.87 179.256 149.78L179.215 149.904C174.381 148.303 169.68 146.119 165.373 143.139C163.992 142.21 162.652 141.202 161.378 140.088C168.562 147.817 179.478 154.68 185.355 157.66C183.431 159.128 181.212 159.774 178.804 159.774C170.115 159.774 159.109 151.31 151.819 142.599C151.819 142.643 151.81 142.696 151.802 142.741C152.706 143.926 153.619 145.093 154.572 146.199C155.986 147.87 157.392 149.55 158.945 151.089C162.06 154.149 165.554 156.811 169.072 159.385L169.006 159.482C165.323 157.191 161.674 154.759 158.361 151.805C157.128 150.718 155.912 149.577 154.819 148.312C159.693 154.936 167.559 162.657 174.965 166.831C173.379 167.397 171.792 167.653 170.231 167.653C161.386 167.653 153.208 159.491 149.402 153.804C149.081 154.37 148.72 154.918 148.309 155.449C148.662 158.049 149.895 160.455 151.087 161.33C151.391 161.56 151.761 161.684 152.114 161.684C152.821 161.684 153.446 161.18 153.331 159.951C155.115 161.763 154.243 163.966 152.78 163.966C152.517 163.966 152.238 163.895 151.95 163.736C153.224 165.407 155.501 166.415 157.137 166.415C157.301 166.415 157.449 166.406 157.597 166.389C157.622 167.264 156.931 167.883 156.076 167.883C155.986 167.883 155.887 167.874 155.789 167.857C157.729 169.033 159.496 170.024 160.408 170.36C161.879 170.908 163.622 171.058 163.671 172.102C163.655 172.341 166.121 173.083 167.592 173.083C168.118 173.083 168.513 172.986 168.628 172.747C169.022 171.934 169.778 171.394 170.666 171.394C170.946 171.394 171.242 171.447 171.546 171.562L172.105 171.775C172.105 171.775 172.22 171.757 172.401 171.757C172.869 171.757 173.757 171.881 174.102 172.739C174.579 173.941 173.913 174.958 173.913 174.958C173.913 174.958 173.691 173.702 173.009 173.658C172.885 173.649 172.779 173.641 172.688 173.641C172.335 173.641 172.138 173.729 172.047 174.083C171.94 174.516 171.718 175.259 170.716 175.259C170.683 175.259 170.65 175.259 170.625 175.259C169.614 175.206 169.129 174.463 168.726 174.463C168.669 174.463 168.611 174.481 168.562 174.507C168.102 174.773 168.052 175.303 168.883 175.63C169.721 175.949 170.707 176.285 171.348 176.347C171.348 176.347 171.899 175.781 172.713 175.781C172.836 175.781 172.976 175.798 173.107 175.825C173.962 176.02 174.431 176.833 174.365 177.664C174.365 177.664 175.368 178.027 175.631 179.053C175.894 180.079 175.039 181.476 175.039 181.476C175.039 181.476 174.957 179.752 173.938 179.752C173.88 179.752 173.823 179.76 173.765 179.769C173.765 179.769 173.354 180.609 172.524 180.662C172.507 180.662 172.491 180.662 172.466 180.662C172.014 180.662 171.053 180.388 170.888 179.513C170.633 178.23 170.042 178.248 168.924 177.824C168.102 177.514 167.773 177.231 167.518 177.231C167.428 177.231 167.345 177.267 167.247 177.355C167.017 177.541 167.461 178.664 168.011 178.867C168.841 179.177 169.721 179.088 170.132 180.026C170.518 180.91 170.115 181.29 170.115 181.29C170.115 181.29 170.691 181.892 170.666 182.935C170.642 184.173 169.91 184.819 169.03 185.031C169.03 185.031 169.655 182.812 168.62 182.803C167.313 182.776 166.466 182.033 166.647 181.114C166.795 180.335 166.474 180.15 166.219 179.999C165.981 179.858 165.66 179.513 165.447 178.867C165.447 178.867 164.049 178.284 163.647 177.205C163.375 176.479 162.932 176.249 162.504 176.249C162.249 176.249 162.003 176.329 161.797 176.426C161.797 176.426 161.386 176.594 160.959 176.869C160.4 177.24 160.301 177.452 160.211 177.921C160.137 178.319 159.29 178.938 158.616 178.938C158.518 178.938 158.419 178.929 158.337 178.894C157.852 178.743 157.687 178.186 157.268 178.186C157.087 178.186 156.865 178.284 156.553 178.558C155.863 179.168 155.764 180.052 155.764 180.052C155.764 180.052 154.564 177.744 156.463 176.488C156.775 176.285 156.833 176.135 157.022 175.604C157.161 175.197 157.778 174.728 158.411 174.728C158.583 174.728 158.764 174.764 158.929 174.852C159.052 174.914 159.175 174.941 159.29 174.941C159.882 174.941 160.334 174.198 160.079 173.579C159.783 172.862 158.37 171.783 155.542 170.271C155.287 170.13 155.008 169.962 154.728 169.811C155.131 170.59 154.539 171.898 153.841 172.066C153.191 169.829 151.827 168.246 149.139 167.512C150.166 169.06 149.213 170.873 147.947 171.439C147.561 171.615 147.133 171.695 146.706 171.695C145.572 171.695 144.396 171.147 143.722 170.368C145.103 170.368 145.859 169.661 146.09 169.006C146.303 168.352 146.377 167.76 145.9 166.84C145.457 166.017 144.092 165 142.465 164.682C140.697 164.328 137.878 165.027 135.462 163.24C135.42 163.249 135.396 163.276 135.371 163.285C135.371 165.274 137.031 168.299 139.169 168.299C139.169 168.299 139.169 168.299 139.177 168.299C140.188 168.281 141.002 166.689 139.473 165.708C139.612 165.681 139.76 165.672 139.9 165.672C141.528 165.672 142.818 167.353 142.004 168.883C141.61 169.626 140.936 169.802 140.196 169.997C141.437 170.775 143.27 172.456 143.558 173.437C143.278 173.499 142.966 173.526 142.637 173.526C139.769 173.526 135.33 171.235 133.234 166.76C133.234 166.751 133.226 166.751 133.226 166.742C134.96 171.377 137.336 173.623 141.059 175.622C142.982 176.656 145.391 177.249 147.438 177.249C150.027 177.249 152.024 176.303 151.712 174.127C154.383 175.188 154.211 179.407 151.432 179.805C153.38 180.91 155.016 182.794 155.978 185.73C156.676 187.844 156.627 193.026 152.698 195.423C153.306 191.593 151.21 189.692 148.884 188.259C145.818 186.367 143.41 185.907 139.563 183.395C135.182 180.539 132.798 175.922 131.96 170.315C131.993 174.012 132.272 177.815 133.07 179.725C133.398 180.512 134.007 181.06 134.607 181.06C134.796 181.06 134.977 181.007 135.157 180.892C135.157 180.901 135.166 180.91 135.166 180.91C135.248 180.866 135.338 180.822 135.42 180.742C136.02 182.21 135.593 183.271 134.968 183.652C134.82 183.74 134.607 183.793 134.36 183.793C133.949 183.793 133.448 183.652 133.037 183.316C133.439 185.438 135.1 186.685 137.048 187.773C138.001 188.312 139.547 188.763 140.878 188.763C142.128 188.763 143.196 188.357 143.426 187.233C144.807 188.808 144.002 191.257 142.013 191.443C143.796 193.68 144.676 196.758 141.799 199.818C141.265 197.483 139.818 195.847 137.188 194.379C133.924 192.566 132.782 189.701 132.346 185.942C132.116 187.012 131.853 187.976 131.796 189.161C131.746 191.363 132.165 194.149 133.883 196.484C133.612 198.208 132.009 202.082 130.513 204.081C129.017 202.082 127.406 198.208 127.135 196.484C128.853 194.149 129.28 191.363 129.231 189.161C129.174 187.976 128.91 187.012 128.68 185.942C128.236 189.701 127.102 192.566 123.839 194.379C121.209 195.838 119.762 197.474 119.22 199.818C116.351 196.758 117.222 193.672 119.014 191.443C117.025 191.248 116.228 188.808 117.6 187.233C117.822 188.365 118.891 188.763 120.14 188.763C121.472 188.763 123.009 188.303 123.97 187.773C125.91 186.685 127.579 185.438 127.982 183.316C127.571 183.661 127.069 183.793 126.658 183.793C126.412 183.793 126.198 183.74 126.05 183.652C125.417 183.271 124.998 182.21 125.59 180.742C125.68 180.813 125.762 180.857 125.853 180.91C125.861 180.91 125.861 180.901 125.861 180.892C126.034 181.007 126.223 181.06 126.403 181.06C127.004 181.06 127.604 180.512 127.932 179.725C128.73 177.806 129.017 174.012 129.042 170.315C128.212 175.931 125.828 180.539 121.439 183.395C117.592 185.898 115.184 186.367 112.118 188.259C109.783 189.692 107.704 191.593 108.296 195.423C104.367 193.026 104.326 187.844 105.016 185.73C105.969 182.794 107.605 180.91 109.561 179.805C106.783 179.407 106.611 175.179 109.282 174.127C108.97 176.303 110.975 177.249 113.564 177.249C115.603 177.249 118.019 176.656 119.943 175.622C123.666 173.623 126.042 171.377 127.776 166.742C127.776 166.751 127.768 166.751 127.768 166.76C125.688 171.235 121.233 173.526 118.373 173.526C118.044 173.526 117.732 173.499 117.452 173.437C117.748 172.456 119.573 170.775 120.814 169.997C120.083 169.811 119.409 169.626 119.014 168.883C118.192 167.353 119.483 165.672 121.118 165.672C121.258 165.672 121.398 165.681 121.546 165.708C120.009 166.689 120.822 168.281 121.842 168.299C121.842 168.299 121.842 168.299 121.85 168.299C123.987 168.299 125.656 165.274 125.656 163.285C125.614 163.276 125.59 163.249 125.557 163.24C123.132 165.027 120.329 164.337 118.546 164.682C116.918 165 115.554 166.017 115.118 166.84C114.633 167.76 114.707 168.352 114.921 169.006C115.151 169.661 115.899 170.368 117.28 170.368C116.614 171.147 115.439 171.695 114.304 171.695C113.877 171.695 113.449 171.615 113.063 171.439C111.805 170.873 110.852 169.06 111.871 167.512C109.183 168.246 107.819 169.829 107.178 172.066C106.471 171.898 105.871 170.59 106.29 169.811C106.002 169.962 105.731 170.13 105.468 170.271C102.641 171.792 101.227 172.862 100.931 173.579C100.684 174.189 101.136 174.941 101.728 174.941C101.843 174.941 101.967 174.914 102.09 174.852C102.254 174.764 102.427 174.728 102.608 174.728C103.232 174.728 103.849 175.197 103.997 175.604C104.186 176.135 104.243 176.294 104.547 176.488C106.463 177.735 105.246 180.052 105.246 180.052C105.246 180.052 105.156 179.177 104.457 178.558C104.145 178.284 103.923 178.186 103.742 178.186C103.331 178.186 103.167 178.735 102.673 178.894C102.583 178.92 102.493 178.938 102.386 178.938C101.712 178.938 100.865 178.328 100.783 177.921C100.701 177.452 100.602 177.24 100.043 176.869C99.6239 176.594 99.2047 176.426 99.2047 176.426C98.9992 176.329 98.7527 176.249 98.4978 176.249C98.0704 176.249 97.6266 176.471 97.3553 177.205C96.9526 178.284 95.5552 178.867 95.5552 178.867C95.3497 179.513 95.0292 179.858 94.7826 179.999C94.536 180.15 94.2072 180.335 94.3552 181.114C94.536 182.033 93.6976 182.767 92.3824 182.803C91.355 182.812 91.9879 185.031 91.9879 185.031C91.1084 184.81 90.3769 184.173 90.3358 182.935C90.3111 181.892 90.8865 181.29 90.8865 181.29C90.8865 181.29 90.4919 180.91 90.8783 180.026C91.2892 179.088 92.1687 179.168 92.9907 178.867C93.5414 178.664 93.9853 177.541 93.7551 177.355C93.6647 177.267 93.5825 177.231 93.4839 177.231C93.2291 177.231 92.8921 177.514 92.0701 177.824C90.9522 178.248 90.3604 178.23 90.1056 179.513C89.9412 180.397 88.9795 180.662 88.5274 180.662C88.511 180.662 88.4863 180.662 88.4699 180.662C87.6315 180.609 87.2287 179.769 87.2287 179.769C87.163 179.76 87.1054 179.752 87.0479 179.752C86.0204 179.752 85.9465 181.476 85.9465 181.476C85.9465 181.476 85.0834 180.079 85.3382 179.053C85.6177 178.027 86.6123 177.664 86.6123 177.664C86.5383 176.842 87.0232 176.02 87.8699 175.825C88.0096 175.79 88.1411 175.781 88.2726 175.781C89.0864 175.781 89.6371 176.347 89.6371 176.347C90.2782 176.294 91.2564 175.949 92.103 175.63C92.9414 175.312 92.8921 174.781 92.4318 174.507C92.3742 174.472 92.3249 174.463 92.2674 174.463C91.8646 174.463 91.3796 175.206 90.3769 175.259C90.344 175.259 90.3111 175.259 90.2864 175.259C89.2836 175.259 89.0617 174.516 88.9466 174.083C88.8562 173.729 88.6672 173.641 88.3055 173.641C88.2069 173.641 88.1 173.649 87.9767 173.658C87.2945 173.702 87.0808 174.958 87.0808 174.958C87.0808 174.958 86.415 173.941 86.8835 172.739C87.2205 171.872 88.1165 171.757 88.585 171.757C88.7658 171.757 88.8809 171.775 88.8809 171.775L89.448 171.562C89.7522 171.447 90.0481 171.394 90.3275 171.394C91.2153 171.394 91.9715 171.934 92.366 172.747C92.4811 172.986 92.8756 173.083 93.4017 173.083C94.873 173.083 97.3389 172.341 97.3142 172.102C97.38 171.058 99.1143 170.908 100.586 170.36C101.498 170.032 103.265 169.033 105.205 167.857C105.106 167.874 105.016 167.883 104.917 167.883C104.063 167.883 103.38 167.264 103.397 166.389C103.545 166.406 103.701 166.415 103.857 166.415C105.493 166.415 107.778 165.407 109.052 163.736C108.764 163.895 108.476 163.966 108.213 163.966C106.75 163.966 105.879 161.763 107.663 159.951C107.548 161.18 108.181 161.684 108.879 161.684C109.233 161.684 109.603 161.56 109.907 161.33C111.099 160.463 112.331 158.049 112.677 155.449C112.274 154.918 111.912 154.37 111.6 153.804C107.794 159.491 99.6157 167.653 90.7714 167.653C89.2097 167.653 87.6233 167.397 86.0369 166.831C93.4346 162.657 101.309 154.936 106.183 148.312C105.082 149.577 103.873 150.718 102.632 151.805C99.328 154.768 95.6867 157.191 91.9961 159.482L91.9386 159.385C95.4566 156.811 98.9335 154.149 102.057 151.089C103.619 149.55 105.024 147.87 106.438 146.199C107.391 145.093 108.304 143.926 109.192 142.741C109.192 142.705 109.192 142.643 109.183 142.599C101.901 151.31 90.8947 159.774 82.2065 159.774C79.8064 159.774 77.5789 159.128 75.6555 157.66C81.5325 154.68 92.4482 147.817 99.6322 140.088C98.3581 141.193 97.0101 142.201 95.6374 143.139C91.3386 146.119 86.6369 148.312 81.7873 149.904L81.7545 149.78C86.4807 147.87 91.0344 145.447 95.1525 142.36C97.2074 140.804 99.0979 139.026 100.964 137.258C102.509 135.834 103.939 134.286 105.378 132.73C105.468 132.588 105.567 132.455 105.649 132.323C98.8924 138.902 88.2069 145.96 79.5516 145.96C76.2062 145.96 73.1649 144.907 70.7648 142.36C81.0476 139.035 89.3576 135.268 96.3032 128.953C94.5278 130.209 92.6044 131.217 90.6399 132.075C88.3384 133.092 85.9547 133.862 83.5381 134.436C81.1133 134.994 78.6721 135.356 76.2144 135.613L76.198 135.489C81.0558 134.666 85.8643 133.419 90.2947 131.226C92.4975 130.121 94.5606 128.732 96.6073 127.326C98.1773 126.283 99.6733 125.124 101.194 123.965C101.293 123.842 101.399 123.736 101.498 123.621C94.0099 128.67 86.6945 130.943 80.6695 130.943C74.3075 130.943 69.3675 128.405 67.1728 123.939C67.5509 123.965 67.9537 123.974 68.3811 123.974C74.8007 123.974 86.6862 121.197 94.051 117.563C93.8127 117.633 93.5578 117.731 93.3195 117.81C91.207 118.447 89.0124 118.712 86.8342 118.871C85.6834 118.96 84.5245 119.013 83.3655 119.013C80.1516 119.013 76.9542 118.642 73.8554 117.819L73.8718 117.695C76.0007 118.102 78.1543 118.288 80.3078 118.305C80.5708 118.314 80.8339 118.314 81.0969 118.314C82.9874 118.314 84.8779 118.182 86.7356 117.934C88.8727 117.633 90.9522 117.129 93.0482 116.661C94.5195 116.36 95.958 115.962 97.4211 115.546C94.9716 115.856 92.6208 116.006 90.4015 116.006C79.2228 116.006 71.3895 112.071 70.1155 103.722C75.376 105.712 82.9874 106.711 89.4891 106.711C91.1166 106.711 92.6784 106.649 94.1086 106.526C93.8291 106.499 93.5661 106.481 93.2948 106.446C91.3879 106.207 89.5385 105.597 87.7301 104.907C84.1135 103.563 80.7352 101.564 77.7433 99.0616L77.7926 98.9466C80.9572 101.166 84.4012 102.882 87.9849 103.996C89.7768 104.553 91.618 104.881 93.451 105.27C94.799 105.562 96.1553 105.792 97.5279 106.03C97.5444 106.03 97.5772 106.022 97.5937 106.022C88.2069 102.59 78.3598 95.7186 80.9489 83.815C83.0203 87.3967 86.6862 90.0144 90.6317 91.9689C89.8344 91.0757 89.7357 88.7586 90.9769 87.3525C91.4701 91.1111 95.3579 93.6227 99.0075 95.0554C99.5006 95.2411 99.9774 95.4091 100.462 95.586C98.8924 94.6574 98.1855 92.0308 100.577 89.9172C100.495 93.2689 103.939 95.9043 107.507 97.5758C108.271 97.9296 109.093 98.3364 109.866 98.7167C112.381 99.9106 114.206 101.449 115.496 103.094C116.704 104.642 117.477 106.552 116.277 108.188C115.069 109.824 112.923 109.347 110.457 110.09C107.441 111.001 106.126 112.884 107.153 114.485C107.293 113.981 107.852 113.512 108.115 113.273C108.509 112.911 108.929 112.601 109.307 112.371C111.279 111.116 114.658 110.364 118.192 109.886C120.033 108.445 120.329 106.34 120.379 105.332C120.313 105.341 120.255 105.341 120.189 105.341C118.693 105.341 117.781 103.934 117.781 102.714C117.888 102.723 117.987 102.732 118.077 102.732C119.655 102.732 120.033 101.449 120.255 99.9106C120.395 98.9377 120.51 98.2745 120.798 96.9568C120.42 97.1778 120.05 97.2751 119.696 97.2751C118.225 97.2751 117.107 95.5506 117.477 93.6934C117.962 93.9941 118.43 94.1268 118.874 94.1268C120.107 94.1268 121.135 93.0567 121.858 91.509C122.548 90.041 123.033 89.192 123.88 88.1926C123.412 88.4049 122.927 88.511 122.45 88.511C120.231 88.511 118.266 86.3354 119.589 83.7C119.737 84.6817 120.403 85.0266 121.324 85.0266C123.288 85.0266 126.42 83.4701 128.212 83.1429C129.527 82.9041 131.097 82.5238 133.152 82.5238ZM135.757 86.0171C136.292 86.0171 136.736 85.7518 136.842 85.2211C136.925 84.6728 135.856 84.5136 134.524 84.5136C133.752 84.5136 132.897 84.5667 132.124 84.6286C133.16 84.7436 133.752 84.8497 134.237 85.3361C134.689 85.7871 135.264 86.0171 135.757 86.0171ZM151.449 105.544L152.509 105.296C153.109 105.155 153.717 105.093 154.326 105.093C154.958 105.093 155.591 105.173 156.183 105.332C157.342 105.65 158.361 106.411 158.838 107.525C159.093 108.082 159.183 108.684 159.249 109.4C159.323 110.045 159.323 110.744 159.249 111.399C159.126 112.743 158.707 114.043 158.172 115.316C157.096 117.881 155.797 120.357 154.687 122.957C153.578 125.557 152.92 128.396 152.78 131.244L152.887 131.253C153.183 128.432 153.989 125.708 155.197 123.214C156.397 120.711 157.819 118.297 158.953 115.697C160.153 113.15 160.844 109.992 159.841 107.012C159.537 106.278 159.044 105.615 158.435 105.137C157.835 104.651 157.145 104.359 156.446 104.173C155.887 104.023 155.328 103.961 154.761 103.961C154.334 103.961 153.898 103.996 153.479 104.067C153.865 103.598 154.317 103.183 154.794 102.794C155.591 102.148 156.479 101.573 157.383 101.06C159.208 100.052 161.123 99.2119 163.088 98.469L163.055 98.3541C161.041 98.8758 159.035 99.5391 157.112 100.468C156.159 100.928 155.213 101.449 154.317 102.095C153.438 102.741 152.583 103.501 151.983 104.571L151.449 105.544ZM107.474 104.076C107.054 104.014 106.627 103.97 106.191 103.97C105.632 103.97 105.065 104.032 104.506 104.182C103.808 104.359 103.117 104.66 102.509 105.146C101.909 105.624 101.416 106.287 101.112 107.021C100.101 110.001 100.799 113.158 101.991 115.705C103.134 118.305 104.556 120.72 105.748 123.223C106.956 125.708 107.77 128.432 108.065 131.262L108.172 131.253C108.033 128.405 107.383 125.575 106.265 122.966C105.148 120.366 103.849 117.89 102.772 115.325C102.238 114.052 101.827 112.752 101.695 111.407C101.63 110.753 101.621 110.054 101.695 109.409C101.769 108.701 101.86 108.1 102.106 107.534C102.591 106.42 103.602 105.668 104.778 105.341C105.378 105.181 106.002 105.102 106.644 105.102C107.252 105.102 107.86 105.173 108.46 105.305L109.529 105.553L108.978 104.571C108.37 103.501 107.523 102.741 106.635 102.095C105.739 101.458 104.802 100.936 103.841 100.468C101.925 99.548 99.9198 98.8758 97.906 98.3541L97.8732 98.469C99.8294 99.2119 101.753 100.052 103.578 101.06C104.482 101.582 105.361 102.148 106.167 102.794C106.635 103.183 107.079 103.607 107.474 104.076ZM133.152 80.251V82.4619V80.251C131.212 80.251 129.667 80.5517 128.434 80.7993C128.236 80.8347 128.039 80.8789 127.85 80.9143C126.995 81.0734 125.993 81.4183 124.932 81.7898C123.79 82.1966 122.376 82.683 121.505 82.7537C121.217 82.0816 120.642 81.5952 119.935 81.4626C119.82 81.4449 119.696 81.4272 119.581 81.4272C118.809 81.4272 118.093 81.8782 117.715 82.6211C116.811 84.4252 116.811 86.3885 117.707 88.0158C118.25 88.9974 119.088 89.7668 120.066 90.2444C120.025 90.324 119.992 90.4036 119.951 90.492C119.466 91.5267 119.006 91.8539 118.858 91.8539C118.825 91.8539 118.718 91.8451 118.513 91.7213C118.192 91.5179 117.83 91.4206 117.461 91.4206C117.165 91.4206 116.869 91.4825 116.597 91.624C115.981 91.9247 115.529 92.5172 115.389 93.2335C115.069 94.8608 115.43 96.5853 116.367 97.8234C116.869 98.4867 117.493 98.982 118.192 99.265C118.176 99.3711 118.159 99.4772 118.143 99.5833C118.077 100.043 118.011 100.309 117.962 100.468C117.954 100.468 117.945 100.468 117.937 100.468C117.88 100.459 117.814 100.459 117.756 100.459C117.296 100.459 116.852 100.618 116.482 100.919C114.945 99.1765 113.005 97.7527 110.696 96.6561L110.178 96.3996C109.561 96.0989 108.92 95.7805 108.304 95.4975C104.794 93.8526 102.624 91.739 102.665 89.9967C102.69 89.1035 102.221 88.2811 101.473 87.8919C101.177 87.7328 100.857 87.662 100.545 87.662C100.06 87.662 99.5828 87.8389 99.1965 88.1838C98.0704 89.1831 97.3307 90.377 97.0265 91.6594C95.21 90.607 93.303 89.0593 93.04 87.0518C92.9249 86.1851 92.3578 85.4688 91.5851 85.2035C91.3714 85.1327 91.1577 85.0973 90.944 85.0973C90.3686 85.0973 89.8097 85.345 89.4069 85.8048C88.8233 86.4681 88.4206 87.2375 88.174 88.0334C85.6752 86.3885 83.8422 84.5844 82.7162 82.6299C82.3216 81.9578 81.6394 81.5598 80.9161 81.5598C80.801 81.5598 80.6859 81.5687 80.5708 81.5864C79.7242 81.7367 79.0502 82.4177 78.8529 83.3109C77.5296 89.3954 79.0173 95.0288 83.16 99.6187C81.7051 98.8758 80.2831 98.018 78.9187 97.054C78.5652 96.8064 78.1625 96.6826 77.7679 96.6826C77.0939 96.6826 76.4281 97.0275 76.0172 97.6731L75.9514 97.7704C75.3185 98.7697 75.5158 100.123 76.4035 100.857C77.7104 101.945 79.0749 102.944 80.4886 103.828C76.8062 103.333 73.4033 102.555 70.7813 101.564C70.5511 101.476 70.3127 101.432 70.0826 101.432C69.5894 101.432 69.1127 101.617 68.7181 101.962C68.1428 102.475 67.8715 103.28 67.9866 104.076C68.8168 109.524 71.9649 113.512 77.1268 115.847C76.124 115.75 75.1459 115.608 74.1924 115.431C74.0691 115.405 73.9458 115.396 73.8225 115.396C73.3869 115.396 72.9595 115.537 72.5978 115.812C72.1375 116.165 71.8251 116.696 71.7265 117.297L71.7101 117.421C71.5292 118.597 72.2197 119.72 73.2882 120.012C74.3568 120.295 75.4418 120.534 76.5597 120.72C73.3622 121.339 70.4525 121.684 68.3236 121.684C67.9373 121.684 67.5756 121.675 67.2468 121.648C67.2057 121.648 67.1564 121.648 67.1153 121.64C66.4002 121.64 65.7262 122.029 65.3399 122.683C64.9207 123.373 64.8878 124.257 65.2494 124.982C67.403 129.36 71.6854 132.181 77.2583 132.968C76.7816 133.057 76.3048 133.145 75.8117 133.225C75.2527 133.322 74.7596 133.649 74.4308 134.136C74.102 134.622 73.9622 135.241 74.0527 135.834L74.0691 135.958C74.2335 137.072 75.1294 137.877 76.1569 137.877C76.2226 137.877 76.2884 137.877 76.3542 137.868C76.4775 137.859 76.6008 137.841 76.724 137.832C74.6774 138.628 72.4745 139.407 70.099 140.176C69.3839 140.406 68.8332 141.025 68.6524 141.812C68.4715 142.59 68.6852 143.422 69.2195 143.979C71.8827 146.8 75.3349 148.233 79.4941 148.233C79.716 148.233 79.9379 148.233 80.1599 148.224C79.6749 148.781 79.4612 149.586 79.6585 150.373L79.6913 150.497C79.8393 151.098 80.2092 151.602 80.7106 151.903C80.7928 151.956 80.875 151.991 80.9654 152.035C78.4584 153.592 76.2637 154.821 74.702 155.608C74.0198 155.953 73.5595 156.661 73.4937 157.465C73.428 158.27 73.765 159.057 74.3815 159.526C76.5843 161.206 79.1982 162.055 82.1572 162.055C84.6971 162.055 87.3356 161.436 89.9823 160.375C90.0234 160.472 90.0727 160.561 90.1303 160.649L90.1878 160.746C90.2782 160.888 90.3769 161.021 90.4919 161.136C88.6836 162.524 86.8342 163.78 85.0094 164.815C84.2614 165.239 83.8176 166.106 83.8833 167.017C83.9491 167.928 84.5163 168.706 85.3218 168.998C86.0287 169.254 86.752 169.458 87.4835 169.608C86.2835 169.9 85.3547 170.696 84.8944 171.863C84.3601 173.225 84.5327 174.578 84.9355 175.551C84.8204 175.781 84.7217 176.011 84.6478 176.267C84.0642 176.771 83.5381 177.488 83.2833 178.416C82.7901 180.326 83.834 182.21 84.1628 182.741C84.5656 183.386 85.2314 183.758 85.9218 183.758C86.1109 183.758 86.2999 183.731 86.489 183.678C86.9575 183.537 87.3602 183.227 87.6315 182.82C87.8041 182.873 87.9932 182.909 88.1822 182.926C88.1822 182.944 88.1822 182.962 88.1822 182.98C88.2397 185.129 89.5056 186.765 91.4783 187.242C91.6345 187.278 91.7906 187.295 91.9468 187.295C92.5304 187.295 93.0893 187.039 93.5003 186.57C93.9277 186.075 94.125 185.403 94.051 184.739C94.7497 184.465 95.3415 184.032 95.7689 183.457C96.2128 182.856 96.4512 182.157 96.4676 181.423C96.7142 181.167 96.9279 180.875 97.117 180.539C97.6594 180.203 98.3417 179.672 98.8431 178.911C99.4102 180.282 101.038 181.202 102.353 181.202C102.657 181.202 102.953 181.158 103.224 181.069C103.397 181.565 103.75 181.954 104.21 182.192C103.734 183.033 103.331 183.961 103.002 184.969C101.917 188.268 102.509 194.512 107.235 197.395C107.564 197.589 107.918 197.695 108.279 197.695C108.707 197.695 109.126 197.554 109.496 197.289C110.162 196.785 110.507 195.909 110.367 195.042C110.038 192.92 110.737 191.708 113.145 190.231C113.696 189.886 114.238 189.595 114.773 189.329C114.797 189.798 114.888 190.267 115.052 190.727C115.258 191.31 115.57 191.832 115.956 192.274C114.543 195.414 115.134 198.713 117.707 201.463C118.11 201.887 118.644 202.126 119.195 202.126C119.384 202.126 119.581 202.1 119.77 202.038C120.502 201.817 121.069 201.189 121.25 200.393C121.521 199.208 122.138 197.908 124.784 196.44C124.858 196.395 124.932 196.36 124.998 196.316C124.981 196.51 124.99 196.705 125.023 196.9C125.351 198.978 127.094 203.205 128.845 205.54C129.247 206.079 129.856 206.389 130.489 206.389C131.13 206.389 131.738 206.079 132.133 205.54C133.883 203.205 135.626 198.978 135.946 196.891C135.979 196.696 135.979 196.502 135.963 196.307C136.037 196.351 136.111 196.395 136.185 196.431C138.823 197.899 139.44 199.199 139.711 200.393C139.892 201.189 140.459 201.817 141.191 202.038C141.38 202.091 141.569 202.126 141.766 202.126C142.317 202.126 142.851 201.896 143.254 201.463C145.826 198.721 146.418 195.423 145.005 192.274C145.391 191.832 145.703 191.31 145.909 190.727C146.065 190.276 146.163 189.807 146.188 189.338C146.722 189.604 147.257 189.904 147.807 190.24C150.224 191.726 150.923 192.938 150.586 195.042C150.446 195.909 150.791 196.785 151.457 197.289C151.819 197.563 152.246 197.704 152.673 197.704C153.035 197.704 153.397 197.607 153.717 197.404C158.444 194.512 159.035 188.277 157.942 184.969C157.613 183.961 157.211 183.033 156.734 182.192C157.186 181.954 157.531 181.565 157.712 181.069H157.72C157.983 181.158 158.287 181.202 158.6 181.202C159.915 181.202 161.542 180.282 162.11 178.911C162.611 179.681 163.301 180.211 163.844 180.548C164.033 180.875 164.247 181.175 164.485 181.423C164.501 182.148 164.732 182.847 165.175 183.448C165.603 184.032 166.203 184.465 166.91 184.739C166.836 185.403 167.041 186.075 167.469 186.57C167.872 187.03 168.439 187.286 169.014 187.286C169.17 187.286 169.326 187.269 169.483 187.233C171.455 186.747 172.713 185.111 172.754 182.971C172.754 182.953 172.754 182.935 172.754 182.918C172.943 182.9 173.132 182.865 173.305 182.812C173.584 183.227 173.987 183.537 174.472 183.678C174.653 183.731 174.842 183.758 175.023 183.758C175.721 183.758 176.395 183.378 176.798 182.723C177.127 182.192 178.154 180.309 177.661 178.434C177.415 177.488 176.88 176.762 176.297 176.258C176.223 176.011 176.124 175.781 176.009 175.56C176.404 174.578 176.584 173.225 176.042 171.863C175.59 170.704 174.653 169.909 173.461 169.617C174.192 169.466 174.916 169.263 175.623 169.006C176.428 168.715 176.995 167.936 177.061 167.025C177.127 166.115 176.683 165.248 175.935 164.823C174.102 163.789 172.261 162.542 170.452 161.153C170.551 161.056 170.642 160.941 170.716 160.826L170.781 160.729C170.847 160.623 170.913 160.517 170.962 160.402C173.601 161.463 176.239 162.082 178.779 162.082C181.738 162.082 184.352 161.233 186.555 159.553C187.171 159.084 187.508 158.297 187.442 157.492C187.377 156.687 186.916 155.98 186.234 155.635C184.672 154.848 182.478 153.618 179.971 152.053C180.53 151.814 180.998 151.319 181.204 150.656L181.245 150.532C181.5 149.71 181.294 148.843 180.776 148.25C180.998 148.259 181.22 148.259 181.442 148.259C185.601 148.259 189.054 146.826 191.717 144.005C192.251 143.439 192.465 142.617 192.284 141.839C192.103 141.06 191.552 140.432 190.837 140.203C188.462 139.433 186.259 138.655 184.212 137.859C184.335 137.868 184.451 137.885 184.574 137.894C184.64 137.903 184.705 137.903 184.779 137.903C185.856 137.903 186.777 137.028 186.884 135.851L186.892 135.728C187.007 134.525 186.226 133.437 185.116 133.251C184.623 133.172 184.146 133.083 183.67 132.995C189.243 132.199 193.533 129.387 195.679 125.009C196.04 124.284 195.999 123.399 195.588 122.71C195.194 122.055 194.528 121.666 193.813 121.666C193.772 121.666 193.722 121.666 193.681 121.666C193.352 121.693 192.991 121.701 192.604 121.701C190.484 121.701 187.574 121.357 184.377 120.737C185.486 120.552 186.579 120.313 187.648 120.03C188.749 119.738 189.44 118.562 189.218 117.368L189.193 117.244C188.996 116.165 188.108 115.414 187.122 115.414C186.999 115.414 186.875 115.422 186.744 115.449C185.807 115.626 184.829 115.767 183.818 115.865C188.971 113.53 192.119 109.541 192.95 104.094C193.073 103.298 192.793 102.493 192.218 101.98C191.832 101.626 191.347 101.449 190.854 101.449C190.615 101.449 190.385 101.494 190.155 101.582C187.525 102.573 184.122 103.351 180.439 103.846C181.853 102.962 183.218 101.971 184.524 100.875C185.429 100.123 185.609 98.7255 184.944 97.735L184.878 97.6377C184.467 97.0275 183.818 96.7003 183.16 96.7003C182.765 96.7003 182.363 96.8241 182.001 97.0717C180.628 98.0357 179.215 98.8935 177.76 99.6364C181.902 95.0465 183.39 89.4042 182.067 83.3286C181.87 82.4354 181.196 81.7544 180.349 81.5952C180.234 81.5775 180.119 81.5687 180.004 81.5687C179.28 81.5687 178.598 81.9667 178.204 82.6388C177.069 84.5932 175.236 86.4062 172.746 88.0423C172.499 87.2375 172.096 86.4681 171.513 85.8137C171.11 85.3538 170.551 85.1062 169.976 85.1062C169.762 85.1062 169.54 85.1416 169.335 85.2123C168.562 85.4776 167.995 86.194 167.88 87.0606C167.617 89.0593 165.71 90.6158 163.885 91.6682C163.581 90.3859 162.841 89.192 161.707 88.1926C161.32 87.8477 160.844 87.6797 160.367 87.6797C160.046 87.6797 159.734 87.7593 159.438 87.9096C158.69 88.2988 158.23 89.1212 158.255 90.0144C158.296 91.7566 156.134 93.8703 152.599 95.5241C151.925 95.8336 151.202 96.1962 150.503 96.5411L150.208 96.6914C147.602 97.9296 145.448 99.6099 143.837 101.679C141.963 104.085 141.774 106.11 142.087 107.56C141.61 107.507 141.125 107.454 140.623 107.401C140.476 107.251 140.328 107.1 140.18 106.968C140.484 106.464 140.681 105.88 140.755 105.252C141.018 102.97 139.645 100.724 138.166 99.5037C137.788 99.1942 137.336 99.035 136.884 99.035C136.579 99.035 136.275 99.1058 135.988 99.2473C135.272 99.6099 134.804 100.362 134.771 101.211C134.763 101.317 134.763 101.405 134.755 101.485C134.278 101.467 134.064 101.29 133.916 100.83C133.489 99.4861 134.064 97.9649 134.409 97.8146C134.87 97.62 135.404 97.5139 136.004 97.5139C136.588 97.5139 137.105 97.6112 137.442 97.6819C138.355 97.8765 140.073 98.6105 140.459 98.9289C140.845 99.2561 141.314 99.433 141.782 99.433C142.119 99.433 142.456 99.3446 142.761 99.1765C143.287 98.8847 143.656 98.3717 143.813 97.7881C144.067 97.8411 144.331 97.8853 144.602 97.903C144.857 97.9207 145.12 97.9384 145.366 97.9384C147.396 97.9384 149.123 97.1955 150.216 95.8513C151.12 94.7458 151.539 93.2778 151.367 91.8362C151.087 89.5457 149.32 87.7239 147.257 87.5559C147.125 87.1402 146.944 86.7423 146.722 86.3797C145.457 84.266 143.065 83.4259 140.673 82.9837C139.999 81.7721 138.864 81.0646 137.122 80.702C135.757 80.3836 134.459 80.251 133.152 80.251ZM92.6126 169.82C95.4566 169.502 98.3499 168.476 101.26 166.742C101.276 166.981 101.325 167.22 101.383 167.45C100.479 167.936 100.051 168.122 99.8705 168.184C99.55 168.299 99.213 168.396 98.8595 168.502C97.8814 168.785 96.4265 169.21 95.6621 170.368C95.1114 170.536 94.2894 170.722 93.6483 170.775C93.3441 170.404 92.9989 170.077 92.6126 169.82ZM159.586 167.459C159.652 167.229 159.693 166.99 159.709 166.751C162.619 168.485 165.504 169.511 168.356 169.82C167.97 170.077 167.625 170.404 167.321 170.784C166.688 170.74 165.858 170.545 165.307 170.377C164.551 169.21 163.088 168.794 162.11 168.511C161.764 168.414 161.411 168.308 161.107 168.202C160.918 168.122 160.482 167.936 159.586 167.459ZM146.698 173.95C147.429 173.95 148.12 173.809 148.753 173.526C149.739 173.083 150.586 172.252 151.103 171.235C151.243 171.421 151.358 171.624 151.473 171.845C151.071 171.89 150.684 172.066 150.364 172.349C149.78 172.862 149.501 173.667 149.608 174.463C149.608 174.481 149.608 174.49 149.616 174.498C149.435 174.64 148.786 174.958 147.429 174.958C146.747 174.958 146.007 174.879 145.276 174.728C145.309 174.675 145.342 174.631 145.366 174.578C145.489 174.357 145.572 174.109 145.621 173.862C145.974 173.915 146.336 173.95 146.698 173.95ZM109.496 171.845C109.603 171.624 109.726 171.421 109.857 171.235C110.383 172.252 111.222 173.083 112.216 173.526C112.841 173.809 113.54 173.95 114.271 173.95C114.633 173.95 114.995 173.915 115.356 173.844C115.406 174.092 115.488 174.339 115.611 174.56C115.636 174.613 115.669 174.666 115.702 174.711C114.97 174.861 114.238 174.941 113.548 174.941C112.192 174.941 111.542 174.622 111.353 174.481C111.353 174.472 111.353 174.454 111.362 174.437C111.477 173.641 111.189 172.836 110.605 172.323C110.285 172.058 109.898 171.89 109.496 171.845ZM104.761 173.207C104.819 173.172 104.884 173.136 104.95 173.092C105.271 173.499 105.665 173.826 106.085 174.047C105.994 174.198 105.904 174.348 105.83 174.507C105.583 174.003 105.213 173.561 104.761 173.207ZM154.885 174.047C155.312 173.835 155.698 173.508 156.019 173.092C156.085 173.128 156.142 173.163 156.2 173.198C155.748 173.552 155.369 173.994 155.139 174.498C155.065 174.357 154.983 174.198 154.885 174.047ZM120.674 186.446C121.258 186.119 121.866 185.748 122.516 185.332C122.951 185.049 123.379 184.748 123.781 184.43C123.905 184.633 124.044 184.819 124.201 184.987C123.855 185.226 123.444 185.482 122.968 185.748C122.442 186.039 121.537 186.349 120.674 186.446ZM136.768 184.987C136.916 184.819 137.064 184.633 137.188 184.43C137.59 184.748 138.018 185.049 138.453 185.332C139.103 185.756 139.711 186.119 140.295 186.446C139.44 186.34 138.527 186.039 138.01 185.748C137.525 185.482 137.114 185.226 136.768 184.987Z" fill="#041241"/>
<path d="M150.06 115.299C147.479 113.671 139.612 112.557 130.489 112.557C121.348 112.557 113.49 113.663 110.901 115.299C109.701 116.059 109.701 116.466 109.701 116.661C109.701 117.129 109.866 117.616 110.063 118.235C110.153 118.509 110.236 118.783 110.318 119.084C110.704 120.428 111.197 123.789 111.427 126.583C111.567 128.272 111.666 130.51 111.781 133.092C112.052 139.159 112.422 147.472 113.589 150.585C115.077 154.556 118.907 157.351 126.379 159.933C128.516 160.667 129.585 162.002 130.489 163.718C131.393 162.002 132.453 160.667 134.59 159.933C142.07 157.351 145.892 154.556 147.388 150.585C148.555 147.472 148.917 139.159 149.197 133.092C149.312 130.51 149.402 128.272 149.55 126.583C149.78 123.78 150.282 120.428 150.66 119.084C150.742 118.783 150.84 118.509 150.923 118.235C151.12 117.625 151.276 117.138 151.276 116.661C151.268 116.475 151.268 116.068 150.06 115.299ZM117.847 118.818C119.926 118.88 121.833 118.933 123.584 118.933C125.121 118.933 126.815 118.889 128.647 118.818V120.278C127.365 120.375 126.609 120.472 126.362 120.596C126.116 120.72 126.001 120.923 126.001 121.197C126.001 121.551 132.067 137.461 132.067 137.461L134.031 132.296C134.549 133.198 134.771 134.498 134.804 135.719L134.04 137.682C132.996 140.238 132.256 142.29 131.804 143.802H129.428C129.428 143.802 121.307 123.205 120.765 122.011C120.461 121.312 120.206 120.835 119.976 120.693C119.746 120.534 119.039 120.384 117.855 120.278V118.818H117.847ZM140.878 147.817C139.843 152.575 135.1 153.716 135.1 153.716C134.007 154.158 132.774 154.291 131.459 154.291C123.666 154.291 119.318 148.277 119.318 140.839C119.318 137.045 120.79 133.632 123.132 131.182L125.754 137.894C125.631 138.858 125.557 139.858 125.557 140.901C125.557 147.074 127.899 152.071 131.968 152.071C135.544 152.071 137.788 148.135 137.788 143.227C139.432 143.66 141.289 145.42 140.878 147.817ZM137.344 137.717L136.012 137.337C136.226 135.047 136.029 129.767 131.96 129.767C131.467 129.767 130.982 129.855 130.53 129.997L129.617 127.645C130.316 127.512 131.031 127.432 131.771 127.432C135.33 127.432 138.289 128.449 141.043 130.368C139.333 132.535 137.993 135.064 137.344 137.717ZM142.958 120.287C141.865 120.393 141.215 120.543 141.034 120.72C140.771 120.932 140.13 122.276 139.119 124.744L138.125 127.264C137.5 127.017 136.851 126.804 136.193 126.627C137.303 123.656 137.862 121.825 137.862 121.18C137.862 120.897 137.763 120.702 137.516 120.587C137.278 120.472 136.481 120.375 135.116 120.295V118.836C137.122 118.898 138.462 118.951 139.152 118.951C139.867 118.951 141.133 118.907 142.966 118.836V120.287H142.958Z" fill="#041241"/>
<defs>
<filter id="filter0_d" x="0" y="-1" width="260" height="260" filterUnits="userSpaceOnUse" color-interpolation-filters="sRGB">
<feFlood flood-opacity="0" result="BackgroundImageFix"/>
<feColorMatrix in="SourceAlpha" type="matrix" values="0 0 0 0 0 0 0 0 0 0 0 0 0 0 0 0 0 0 127 0"/>
<feOffset dy="4"/>
<feGaussianBlur stdDeviation="2"/>
<feColorMatrix type="matrix" values="0 0 0 0 0 0 0 0 0 0 0 0 0 0 0 0 0 0 0.25 0"/>
<feBlend mode="normal" in2="BackgroundImageFix" result="effect1_dropShadow"/>
<feBlend mode="normal" in="SourceGraphic" in2="effect1_dropShadow" result="shape"/>
</filter>
</defs>
</svg>
