<svg width="131" height="150" viewBox="0 0 131 150" fill="none" xmlns="http://www.w3.org/2000/svg">
<path d="M65.4804 25.4069C59.217 25.4069 51.6139 24.4452 50.4714 21.7327C50.4467 21.6916 50.4303 21.6423 50.4056 21.593C49.3371 18.7161 46.0163 13.2912 40.3694 11.228C40.0735 11.1212 39.8352 10.8828 39.7365 10.5869C39.6297 10.291 39.6708 9.96222 39.8269 9.69097C40.0571 9.31287 40.9777 8.68818 41.9558 8.54023C42.2106 8.49913 42.449 8.48269 42.6709 8.48269C43.0819 8.48269 43.4682 8.55666 43.8135 8.68818C44.2984 8.34295 44.8985 8.14568 45.5149 8.14568C46.0328 8.14568 46.5342 8.28542 46.978 8.54023C47.8246 9.00874 48.2356 9.73207 48.3754 10.4554C48.6713 10.4883 49.0001 10.5129 49.3535 10.5129C50.2905 10.5129 51.0221 10.3403 51.5564 10.0033C51.1372 9.66631 50.8084 9.20602 50.6275 8.67174C50.381 7.95663 50.4385 7.15933 50.7837 6.49354C50.9152 6.23873 51.0878 6.00858 51.2933 5.81131C50.981 4.52905 51.581 3.56735 51.9509 2.97554C52.1482 2.65497 52.4934 2.47414 52.8468 2.47414C52.9455 2.47414 53.0523 2.49058 53.151 2.51524C54.688 2.97554 55.4031 3.69886 55.7237 4.35643C56.858 4.42219 57.8855 5.21949 58.2554 6.34558C58.5019 7.05247 58.4526 7.858 58.1074 8.53201C58.091 8.5731 58.0663 8.60598 58.0416 8.64708C58.617 8.89367 59.2581 9.02518 59.8993 9.02518C59.9733 9.02518 60.0555 9.02518 60.1212 9.01696C60.8445 8.98409 61.5514 8.76215 62.1515 8.40871C61.6172 7.89909 61.2802 7.18399 61.2802 6.3949C61.2802 5.16196 62.0857 4.11806 63.1953 3.74818C63.2036 3.69886 63.22 3.65777 63.2282 3.60845C63.4173 2.74539 63.9516 1.98918 64.8557 1.29873C65.0448 1.159 65.2749 1.08502 65.4968 1.08502C65.727 1.08502 65.9571 1.159 66.1462 1.30695C67.0586 2.01384 67.5929 2.77827 67.7737 3.65777C67.7819 3.68242 67.7901 3.70708 67.7983 3.74818C68.908 4.11806 69.7053 5.17018 69.7053 6.3949C69.7053 7.18399 69.3683 7.89909 68.8422 8.40871C69.4423 8.77037 70.1492 8.98409 70.8807 9.01696C70.9465 9.01696 71.0287 9.02518 71.1026 9.02518C71.7438 9.02518 72.3767 8.89367 72.9603 8.64708C72.9356 8.6142 72.9192 8.5731 72.9027 8.53201C72.5575 7.84978 72.5 7.05247 72.7548 6.32914C73.1164 5.21949 74.1439 4.42219 75.2782 4.35643C75.607 3.69064 76.3221 2.97554 77.8509 2.51524C77.9496 2.48236 78.0564 2.47414 78.1551 2.47414C78.5167 2.47414 78.862 2.65497 79.0592 2.97554C79.4291 3.57557 80.0209 4.53727 79.7086 5.80309C79.9141 6.00036 80.0785 6.23051 80.2182 6.48532C80.5634 7.16755 80.621 7.96485 80.3662 8.68818C80.1853 9.22245 79.8565 9.67453 79.4456 10.0033C79.9716 10.3485 80.7114 10.5129 81.6402 10.5129C81.9854 10.5129 82.3142 10.4883 82.6183 10.4554C82.7663 9.64166 83.2595 8.95943 84.0403 8.53201C84.4678 8.28542 84.9691 8.1539 85.4788 8.1539C86.0952 8.1539 86.7035 8.35939 87.1884 8.6964C87.5337 8.55666 87.9118 8.48269 88.331 8.48269C88.5529 8.48269 88.7913 8.49913 89.0461 8.54023C89.9338 8.67174 90.9941 9.28821 91.2325 9.80605C91.3558 10.0773 91.3558 10.3814 91.2489 10.6527C91.1339 10.9239 90.9119 11.1376 90.6325 11.2363C85.0185 13.2912 81.6895 18.6832 80.5963 21.5766C80.5881 21.6012 80.5799 21.6259 80.5716 21.6505C79.5935 24.4288 71.8671 25.4233 65.5379 25.4233H65.4804V25.4069ZM58.7567 21.0341C60.4664 21.2971 62.7022 21.4861 65.464 21.4861C68.2258 21.4861 70.4615 21.2889 72.1794 21.0341C70.4697 20.771 68.234 20.582 65.464 20.582C62.694 20.582 60.4582 20.7793 58.7567 21.0341ZM74.9823 17.4996C75.4015 17.5818 75.8043 17.6805 76.1824 17.7709C76.2481 17.4832 76.3714 17.2119 76.5194 16.9653C76.1002 16.842 75.6481 16.727 75.1549 16.6201C75.1467 16.9325 75.0809 17.2284 74.9823 17.4996ZM54.5894 16.9242C54.7456 17.1708 54.8689 17.4421 54.9428 17.738C55.247 17.664 55.5593 17.59 55.8963 17.5243C55.7895 17.253 55.7237 16.9571 55.7155 16.6448C55.3127 16.7352 54.9346 16.8256 54.5894 16.9242ZM61.124 15.8968C61.1733 16.1023 61.198 16.3078 61.198 16.5297C61.198 16.6283 61.1898 16.7352 61.1815 16.8338C61.6829 16.801 62.1926 16.7681 62.7186 16.7434C62.6857 16.5708 62.6693 16.39 62.6693 16.2091C62.6693 16.0694 62.6775 15.9379 62.7022 15.8064C62.1597 15.8228 61.6336 15.8557 61.124 15.8968ZM68.1107 16.727C68.645 16.7516 69.171 16.7763 69.6806 16.8092C69.6724 16.7188 69.6642 16.6283 69.6642 16.5379C69.6642 16.316 69.6889 16.0941 69.7464 15.8804C69.2286 15.8393 68.6861 15.8146 68.1353 15.7899C68.16 15.9297 68.1682 16.0612 68.1682 16.2009C68.16 16.3818 68.1436 16.5626 68.1107 16.727ZM73.5028 12.4528C74.7028 12.6172 75.8371 12.8309 76.8646 13.0775C76.281 12.6418 75.8371 12.1322 75.5084 11.6226C74.8837 11.976 74.2097 12.2555 73.5028 12.4528ZM55.4607 11.6144C55.1319 12.124 54.6963 12.6254 54.1291 13.061C55.1483 12.8144 56.2744 12.6089 57.4581 12.4445C56.7512 12.2555 56.0772 11.976 55.4607 11.6144ZM65.464 11.9267C66.1544 11.9267 66.8613 11.9349 67.56 11.9596C66.7956 11.5897 66.0887 11.1047 65.4804 10.5129C64.8722 11.0965 64.1653 11.5897 63.4008 11.9596C64.0995 11.9432 64.7817 11.9267 65.464 11.9267Z" fill="#44C8F5"/>
<path d="M65.4886 2.12066C66.0229 2.53165 66.5654 3.08236 66.7215 3.84679C66.7626 3.98652 66.7873 4.10981 66.7873 4.24133C66.7873 4.3975 66.7462 4.54545 66.6969 4.68519C66.7626 4.67697 66.8284 4.64409 66.9024 4.64409C67.8641 4.64409 68.6367 5.41674 68.6367 6.37843C68.6367 7.33191 67.8641 8.09633 66.9188 8.10455V8.11277C67.8312 9.26352 69.2696 9.98685 70.8149 10.0608C70.9053 10.0608 71.004 10.069 71.0862 10.069C72.426 10.069 73.7247 9.60875 74.7028 8.78678C74.3247 8.66349 74.0041 8.39224 73.8151 8.03058C73.6014 7.61138 73.5685 7.1182 73.7247 6.6579C73.9713 5.90991 74.6699 5.39208 75.4097 5.39208C75.5576 5.39208 75.7138 5.41674 75.8618 5.45783C75.9193 5.48249 75.9851 5.49893 76.0344 5.53181C76.0262 5.38386 76.059 5.2359 76.0837 5.10439C76.281 4.24133 77.292 3.76459 78.1222 3.518C78.5167 4.16735 78.9195 4.87424 78.5578 5.82772C78.5167 5.95923 78.4345 6.03321 78.2866 6.18938H78.303C78.714 6.31267 79.0428 6.59214 79.24 6.97024C79.4538 7.38123 79.4866 7.8744 79.3305 8.3347C79.0839 9.06625 78.4263 9.55121 77.6783 9.56765C78.4427 11.228 80.2182 11.5732 81.5991 11.5732C82.4293 11.5732 83.1772 11.4499 83.6211 11.3595C83.5471 10.9403 83.5225 10.0033 84.5088 9.46079C84.8047 9.2964 85.1171 9.20598 85.4376 9.20598C86.1445 9.20598 86.7528 9.60875 86.9829 10.0444C87.3528 9.6745 87.7885 9.53477 88.2816 9.53477C88.4542 9.53477 88.6433 9.55121 88.8323 9.58409C89.605 9.69916 90.205 10.217 90.2132 10.2417C83.9334 12.5349 80.5223 18.6092 79.5359 21.2395C79.5359 21.256 79.5277 21.2642 79.5277 21.2724C78.9441 22.9903 73.0013 24.3548 65.4804 24.3548H65.4639H65.4475C57.9265 24.3548 51.992 22.9821 51.4084 21.2724C51.4002 21.2642 51.4002 21.2477 51.3837 21.2395C50.3974 18.5928 46.9944 12.5432 40.7229 10.2499C40.7393 10.2252 41.3311 9.70738 42.1038 9.59231C42.301 9.55943 42.4819 9.54299 42.6627 9.54299C43.1641 9.54299 43.5915 9.68272 43.9614 10.0526C44.1998 9.61696 44.808 9.2142 45.5067 9.2142C45.8355 9.2142 46.156 9.2964 46.4437 9.46901C47.4219 10.0115 47.4054 10.9485 47.3397 11.3677C47.7753 11.4582 48.5233 11.5815 49.3453 11.5815C50.7344 11.5815 52.518 11.228 53.2742 9.57587C52.5345 9.56765 51.8687 9.07447 51.6221 8.34292C51.4659 7.88262 51.507 7.38945 51.7125 6.97846C51.9098 6.60036 52.2386 6.32089 52.6578 6.1976H52.6742C52.518 6.04143 52.4441 5.96745 52.3947 5.83594C52.0331 4.88246 52.4358 4.17557 52.8386 3.52622C53.6688 3.77281 54.6716 4.24955 54.8688 5.11261C54.9099 5.25234 54.9346 5.39208 54.9264 5.54003C54.9757 5.50715 55.0332 5.49071 55.1072 5.46605C55.2469 5.42495 55.4031 5.4003 55.5511 5.4003C56.2908 5.4003 56.9895 5.91813 57.2361 6.66612C57.3923 7.12642 57.3594 7.6196 57.1457 8.0388C56.9566 8.40046 56.6361 8.66349 56.258 8.795C57.2361 9.60875 58.5348 10.0773 59.8746 10.0773C59.965 10.0773 60.0636 10.0773 60.1458 10.069C61.6994 9.99507 63.1296 9.27174 64.0419 8.12099V8.09633C63.0885 8.08811 62.3158 7.31547 62.3158 6.37021C62.3158 5.41674 63.0967 4.63587 64.0584 4.63587C64.1324 4.63587 64.1899 4.66053 64.2639 4.67697C64.2063 4.53723 64.1735 4.3975 64.1735 4.23311C64.1735 4.10981 64.1899 3.9783 64.231 3.83857C64.4036 3.08236 64.9379 2.53165 65.4886 2.12066ZM59.8993 11.713C58.0745 11.713 56.373 11.1212 55.0661 10.0608C54.3263 12.0171 52.6989 13.1267 50.2576 13.3487C50.085 13.3651 49.896 13.3733 49.7069 13.3733C49.0987 13.3733 48.5644 13.2911 48.2027 13.2007C49.0329 14.0556 49.748 14.9597 50.3891 15.8557C51.7947 14.2282 58.017 12.987 65.4722 12.987C72.9767 12.987 79.2154 14.2446 80.5716 15.8803C81.2127 14.9762 81.9361 14.072 82.7827 13.2089C82.421 13.2994 81.8785 13.3816 81.2785 13.3816C81.0895 13.3816 80.9004 13.3733 80.7278 13.3569C78.2783 13.1267 76.6591 12.0171 75.9111 10.069C74.6124 11.1294 72.9027 11.7212 71.0862 11.7212C70.9711 11.7212 70.856 11.7212 70.7409 11.713C68.6203 11.6061 66.6887 10.5376 65.505 8.9183C64.3132 10.5376 62.3734 11.6061 60.2527 11.713C60.1212 11.713 60.0061 11.713 59.8993 11.713ZM71.7026 18.0585C71.1273 17.7955 70.7163 17.2201 70.7163 16.5379C70.7163 15.8474 71.1355 15.2639 71.7273 15.009C70.0094 14.8036 68.1024 14.7049 66.0886 14.6803C66.6804 14.9433 67.0914 15.5269 67.0914 16.2091C67.0914 16.8913 66.6804 17.4749 66.0886 17.738C68.1189 17.7626 70.0094 17.8695 71.7026 18.0585ZM59.028 18.0832C60.7377 17.8859 62.6693 17.7626 64.7242 17.738C64.1406 17.4749 63.7214 16.8913 63.7214 16.2091C63.7214 15.5351 64.1324 14.9515 64.716 14.6885C62.735 14.7131 60.8527 14.8282 59.1513 15.0173C59.7349 15.2803 60.1376 15.8557 60.1376 16.5297C60.1376 17.253 59.6773 17.853 59.028 18.0832ZM77.4317 19.275C77.2673 19.012 77.1605 18.7243 77.1605 18.412C77.1605 17.4914 77.9002 16.7516 78.8208 16.7352C77.6701 16.1187 75.7796 15.5926 73.4123 15.231C73.8069 15.5433 74.0946 16.0036 74.0946 16.5461C74.0946 17.3927 73.4452 18.0667 72.6315 18.1818C74.596 18.4448 76.2399 18.823 77.4317 19.275ZM57.3923 15.2474C55.0332 15.6255 53.1592 16.1516 52.0495 16.7845C52.1317 16.768 52.1975 16.7269 52.2879 16.7269C53.2167 16.7269 53.9647 17.4914 53.9647 18.412C53.9647 18.6997 53.8743 18.9545 53.751 19.1928C54.9182 18.7736 56.4881 18.4366 58.3293 18.1818C57.458 18.1161 56.7676 17.4092 56.7676 16.5215C56.7594 16.0036 57.0142 15.5598 57.3923 15.2474ZM65.4639 22.5547C71.6369 22.5547 75.2042 21.6176 76.4618 21.0422C75.2042 20.4504 71.6369 19.5298 65.4639 19.5298C59.3074 19.5298 55.7319 20.4587 54.4907 21.0422C55.7319 21.6176 59.3074 22.5547 65.4639 22.5547ZM65.4886 0C65.0365 0 64.5844 0.147953 64.2063 0.43564C63.2282 1.17541 62.6035 2.00559 62.2994 2.95085C61.0664 3.59198 60.2116 4.88246 60.2116 6.37021C60.2116 6.90449 60.3267 7.4141 60.5239 7.88262C60.3678 7.9155 60.2116 7.93194 60.0554 7.94016C60.0061 7.94016 59.9404 7.94838 59.8828 7.94838C59.7184 7.94838 59.554 7.94016 59.3896 7.9155C59.5047 7.26615 59.4554 6.59214 59.2335 5.96745C58.806 4.66053 57.68 3.66595 56.3648 3.37005C55.8552 2.65494 54.9675 1.94805 53.4468 1.48775C53.2414 1.422 53.0441 1.39734 52.8386 1.39734C52.1153 1.39734 51.433 1.76722 51.0385 2.40013C50.6851 2.97551 50.0193 4.05228 50.159 5.47427C50.0357 5.63866 49.9288 5.80306 49.8384 5.99211C49.3617 6.92093 49.2877 8.02236 49.6247 9.00871C49.674 9.15667 49.7316 9.2964 49.7973 9.43613C49.6576 9.44435 49.5096 9.45257 49.3535 9.45257C49.2959 9.45257 49.2384 9.45257 49.1809 9.45257C48.8521 8.69637 48.2767 8.05524 47.4958 7.61138C46.8958 7.26615 46.2136 7.08532 45.5149 7.08532C44.8738 7.08532 44.2409 7.24971 43.6819 7.5374C43.3614 7.46342 43.0244 7.42232 42.6709 7.42232C42.3914 7.42232 42.1038 7.44698 41.7914 7.4963C40.6489 7.66891 39.3831 8.39224 38.931 9.14023C38.6022 9.68272 38.5282 10.3403 38.7419 10.9403C38.9556 11.5404 39.4159 12.0089 40.016 12.2308C45.3094 14.1706 48.4822 19.4476 49.4192 21.9711C49.4521 22.0533 49.485 22.1355 49.5261 22.2094C51.318 26.1631 62.1432 26.4754 65.4722 26.4754C68.8915 26.4754 80.0045 26.1549 81.5333 22.0286C81.5415 21.9957 81.558 21.9711 81.5662 21.9382C81.8374 21.2477 84.5664 14.5734 90.9694 12.239C91.5119 12.0418 91.9558 11.6226 92.186 11.0883C92.4161 10.554 92.4161 9.94575 92.186 9.41147C91.7257 8.3347 90.1475 7.64425 89.1776 7.4963C88.8734 7.44698 88.5858 7.42232 88.3063 7.42232C87.9528 7.42232 87.6158 7.46342 87.2953 7.5374C86.7363 7.24971 86.1034 7.08532 85.4541 7.08532C84.7718 7.08532 84.0896 7.26615 83.4896 7.61138C82.7005 8.04702 82.1251 8.68815 81.7963 9.45257C81.7388 9.45257 81.673 9.45257 81.6155 9.45257C81.4593 9.45257 81.3114 9.44435 81.1799 9.43613C81.2456 9.2964 81.3032 9.15667 81.3525 9.00871C81.6977 8.03058 81.6237 6.92915 81.147 6.00033C81.0484 5.8195 80.9415 5.63867 80.8182 5.48249C80.9579 4.0605 80.2922 2.99194 79.9387 2.41657C79.5442 1.77544 78.8537 1.40556 78.1386 1.40556C77.9331 1.40556 77.7358 1.43843 77.5304 1.49597C76.0015 1.95627 75.1138 2.66316 74.6042 3.37827C73.289 3.67417 72.1629 4.67697 71.7273 6.00855C71.5136 6.6168 71.4725 7.28259 71.5793 7.92372C71.415 7.94838 71.2588 7.9566 71.0944 7.9566C71.0368 7.9566 70.9711 7.9566 70.9136 7.94838C70.7574 7.94016 70.6012 7.92372 70.4533 7.89084C70.6505 7.43054 70.7656 6.91271 70.7656 6.37843C70.7656 4.89068 69.919 3.6002 68.686 2.95907C68.3819 2.02203 67.7654 1.20007 66.7955 0.45208C66.401 0.147953 65.9407 0 65.4886 0Z" fill="#041241"/>
<path d="M69.1793 28.1522C67.4038 28.1522 66.0969 27.6262 65.2996 26.5987C65.0448 26.2699 65.0037 25.8178 65.201 25.448C65.3818 25.1027 65.7435 24.889 66.138 24.889C66.1627 24.889 66.1873 24.889 66.212 24.889C66.623 24.9219 67.0093 24.9301 67.3792 24.9301C68.3902 24.9301 69.3519 24.8233 70.6013 24.5602C71.152 24.4452 71.7356 24.3876 72.3192 24.3876C74.6946 24.3876 76.6098 25.3165 77.6208 26.1877C78.0154 26.5247 78.1058 27.1001 77.8345 27.5358C77.6373 27.8563 77.292 28.0454 76.9304 28.0454C76.7989 28.0454 76.6674 28.0207 76.5358 27.9714C76.0098 27.7577 75.3275 27.659 74.4645 27.659C73.3466 27.659 72.1137 27.8317 70.8479 28.0207C70.256 28.1111 69.6971 28.1522 69.1793 28.1522Z" fill="#44C8F5"/>
<path d="M72.3192 25.448C74.2343 25.448 75.9769 26.1631 76.9304 26.985C76.2153 26.6973 75.3686 26.5905 74.4645 26.5905C73.2644 26.5905 71.9575 26.7713 70.6917 26.9604C70.1903 27.0343 69.6724 27.0837 69.1793 27.0837C67.9463 27.0837 66.8038 26.796 66.138 25.9411C66.5736 25.974 66.9846 25.9905 67.3874 25.9905C68.497 25.9905 69.5327 25.8672 70.8232 25.5959C71.3246 25.4973 71.826 25.448 72.3192 25.448ZM72.3192 23.3355C71.6616 23.3355 71.0122 23.4013 70.3793 23.5328C69.2121 23.7794 68.3162 23.878 67.3792 23.878C67.0339 23.878 66.6805 23.8616 66.286 23.8369C66.2366 23.8369 66.1873 23.8287 66.138 23.8287C65.3654 23.8287 64.642 24.2561 64.2721 24.9466C63.8776 25.6863 63.9516 26.5823 64.4694 27.2398C65.1681 28.1358 66.549 29.2043 69.1875 29.2043C69.7546 29.2043 70.3711 29.155 71.0205 29.0564C72.2452 28.8755 73.4288 28.7029 74.4727 28.7029C75.1878 28.7029 75.755 28.7851 76.1495 28.9413C76.4043 29.0482 76.6756 29.0975 76.9386 29.0975C77.6619 29.0975 78.3524 28.7276 78.7469 28.0782C79.2812 27.1905 79.1086 26.048 78.3195 25.374C76.8482 24.1246 74.5467 23.3355 72.3192 23.3355Z" fill="#041241"/>
<path d="M95.7123 27.8564C95.4986 27.8564 95.2766 27.7906 95.0958 27.6591C94.7259 27.3878 94.5615 26.9193 94.7013 26.4755L95.7945 23.0314L92.819 20.9354C92.4409 20.6724 92.2847 20.1957 92.4162 19.76C92.5559 19.3244 92.9587 19.0203 93.4108 19.012L97.0932 18.9709L98.1946 15.494C98.3343 15.0584 98.7371 14.7625 99.1974 14.7543H99.2056C99.6577 14.7543 100.06 15.042 100.208 15.4776L101.376 18.9216L105.091 18.8887C105.543 18.8887 105.954 19.1847 106.094 19.6121C106.242 20.0477 106.085 20.5245 105.716 20.7957L102.757 22.9657L103.924 26.3768C104.072 26.8125 103.924 27.2892 103.554 27.5687C103.365 27.7084 103.143 27.7824 102.921 27.7824C102.707 27.7824 102.493 27.7166 102.313 27.5933L99.296 25.4809L96.337 27.6426C96.1561 27.7824 95.9342 27.8564 95.7123 27.8564Z" fill="#44C8F5"/>
<path d="M99.2056 15.8064L100.611 19.9737L105.083 19.9408L101.499 22.5629L102.913 26.7138L99.2795 24.1739L95.7122 26.7878L97.0356 22.604L93.4189 20.0641L97.8658 20.0148L99.2056 15.8064ZM99.2056 13.6939C99.1973 13.6939 99.1891 13.6939 99.1891 13.6939C98.2767 13.7021 97.4712 14.3022 97.1918 15.1734L96.3205 17.9188L93.4107 17.9517C92.4901 17.9599 91.6846 18.5681 91.4134 19.4394C91.1421 20.3107 91.4627 21.2724 92.2189 21.7985L94.5615 23.4506L93.7066 26.1549C93.4272 27.0261 93.7477 27.9796 94.4875 28.5139C94.8574 28.7769 95.293 28.9084 95.7204 28.9084C96.1561 28.9084 96.5999 28.7687 96.9698 28.4975L99.3124 26.7796L101.704 28.4481C102.066 28.7029 102.493 28.8345 102.921 28.8345C103.373 28.8345 103.817 28.6947 104.195 28.407C104.926 27.8563 105.222 26.8946 104.926 26.0316L104.014 23.352L106.348 21.6423C107.088 21.0998 107.401 20.1381 107.105 19.2668C106.817 18.3955 106.003 17.8119 105.091 17.8119C105.083 17.8119 105.083 17.8119 105.074 17.8119L102.132 17.8366L101.211 15.1159C100.915 14.2693 100.11 13.6939 99.2056 13.6939Z" fill="#041241"/>
<path d="M109.587 31.3086C109.373 31.3086 109.151 31.2428 108.97 31.1113C108.601 30.8401 108.444 30.3715 108.576 29.9277L109.34 27.5193L107.261 26.0562C106.883 25.7932 106.718 25.3165 106.858 24.8808C106.998 24.4452 107.401 24.1411 107.853 24.1328L110.425 24.1L111.19 21.6916C111.33 21.256 111.732 20.9601 112.184 20.9518H112.193C112.645 20.9518 113.047 21.2395 113.195 21.667L114.009 24.0753L116.598 24.0424C117.05 24.0424 117.461 24.3301 117.601 24.7657C117.749 25.2014 117.593 25.6863 117.223 25.9576L115.168 27.47L115.965 29.8619C116.113 30.2976 115.957 30.7743 115.595 31.0455C115.406 31.1853 115.185 31.2593 114.963 31.2593C114.749 31.2593 114.535 31.1935 114.354 31.0702L112.275 29.5907L110.212 31.1031C110.023 31.2428 109.801 31.3086 109.587 31.3086Z" fill="#44C8F5"/>
<path d="M112.201 22.0121L113.261 25.1438L116.607 25.1027L113.927 27.0754L114.971 30.1989L112.258 28.2919L109.587 30.2482L110.582 27.1001L107.869 25.1931L111.206 25.152L112.201 22.0121ZM112.201 19.8915C112.193 19.8915 112.184 19.8915 112.176 19.8915C111.264 19.8997 110.458 20.4997 110.179 21.371L109.644 23.0478L107.836 23.0725C106.916 23.0807 106.11 23.6889 105.839 24.5684C105.568 25.4479 105.896 26.4014 106.644 26.9275L108.091 27.9385L107.565 29.6071C107.285 30.4784 107.606 31.4318 108.346 31.9661C108.716 32.2291 109.151 32.3607 109.579 32.3607C110.014 32.3607 110.458 32.2209 110.828 31.9497L112.275 30.8893L113.746 31.925C114.108 32.1798 114.535 32.3113 114.963 32.3113C115.406 32.3113 115.85 32.1716 116.228 31.8921C116.96 31.3414 117.264 30.3879 116.968 29.5249L116.409 27.8645L117.848 26.8042C118.587 26.2617 118.892 25.3 118.604 24.4287C118.316 23.5657 117.502 22.9821 116.598 22.9821C116.59 22.9821 116.582 22.9821 116.574 22.9821L114.765 23.0067L114.198 21.3299C113.91 20.4669 113.105 19.8915 112.201 19.8915Z" fill="#041241"/>
<path d="M61.7816 28.1605C61.2638 28.1605 60.7049 28.1111 60.113 28.0207C58.839 27.8317 57.6061 27.6591 56.4882 27.6591C55.6251 27.6591 54.9511 27.7577 54.4168 27.9714C54.2853 28.0207 54.1538 28.0454 54.0223 28.0454C53.6606 28.0454 53.3154 27.8563 53.1181 27.5358C52.8469 27.0919 52.9455 26.5165 53.3318 26.1878C54.3429 25.3165 56.2663 24.3959 58.6417 24.3959C59.2253 24.3959 59.8007 24.4534 60.3596 24.5685C61.5926 24.8315 62.5461 24.9384 63.5571 24.9384C63.9352 24.9384 64.3297 24.9219 64.7407 24.8891C64.7654 24.8891 64.79 24.8891 64.8147 24.8891C65.201 24.8891 65.5627 25.1028 65.7517 25.448C65.949 25.8179 65.9079 26.2699 65.6531 26.5987C64.8558 27.6344 63.5488 28.1605 61.7816 28.1605Z" fill="#44C8F5"/>
<path d="M58.6418 25.448C59.1349 25.448 59.6363 25.4973 60.146 25.6042C61.4282 25.8754 62.4557 25.9987 63.5653 25.9987C63.9681 25.9987 64.3873 25.9823 64.8229 25.9494C64.1571 26.8042 63.0146 27.1001 61.7817 27.1001C61.2885 27.1001 60.7789 27.0508 60.2775 26.9768C59.0034 26.7878 57.6965 26.607 56.4964 26.607C55.5923 26.607 54.7457 26.7138 54.0305 26.9933C54.984 26.1713 56.7266 25.448 58.6418 25.448Z" fill="#041241"/>
<path d="M73.3548 31.7442C70.6506 31.7442 68.3491 30.6921 66.8778 28.7769C66.5818 28.3988 66.5818 27.8646 66.8778 27.4782C67.0832 27.2152 67.3956 27.0673 67.7162 27.0673C67.8559 27.0673 67.9956 27.0919 68.1354 27.1495C68.8751 27.47 69.9519 27.6344 71.2588 27.6344C72.5 27.6344 73.9302 27.4782 75.2782 27.1906C76.0509 27.0262 76.8071 26.944 77.5304 26.944C80.5799 26.944 82.643 28.366 84.2623 29.7469C84.6568 30.0839 84.7472 30.651 84.4842 31.0949C84.2869 31.4237 83.9417 31.6127 83.58 31.6127C83.4485 31.6127 83.317 31.5881 83.1937 31.5387C82.3882 31.2264 81.3032 31.062 79.9881 31.062C78.6811 31.062 77.1687 31.2182 75.5001 31.5305C74.7604 31.6785 74.037 31.7442 73.3548 31.7442Z" fill="#44C8F5"/>
<path d="M77.5221 28.0125C80.21 28.0125 82.0512 29.2701 83.5636 30.5606C82.5361 30.1579 81.2785 30.0099 79.9716 30.0099C78.3606 30.0099 76.6837 30.2318 75.2864 30.4949C74.6042 30.6182 73.9548 30.6839 73.3466 30.6839C70.7821 30.6839 68.8751 29.6482 67.6997 28.1276C68.6285 28.5304 69.8779 28.6948 71.2424 28.6948C72.6232 28.6948 74.111 28.5221 75.4837 28.2262C76.2234 28.0865 76.8975 28.0125 77.5221 28.0125ZM77.5221 25.9001C76.7248 25.9001 75.8947 25.9905 75.0563 26.1713C73.774 26.4426 72.426 26.5905 71.2506 26.5905C69.6971 26.5905 68.8915 26.3439 68.5463 26.196C68.2751 26.0809 67.9874 26.0234 67.7079 26.0234C67.0668 26.0234 66.4421 26.3111 66.0311 26.8453C65.4393 27.6098 65.4393 28.6783 66.0311 29.4345C67.7161 31.6127 70.3135 32.8128 73.3548 32.8128C74.1028 32.8128 74.8919 32.7388 75.681 32.5909C77.292 32.295 78.7387 32.147 79.9798 32.147C81.147 32.147 82.1251 32.2867 82.7991 32.5498C83.054 32.6484 83.3088 32.6977 83.5718 32.6977C84.2951 32.6977 84.9938 32.3196 85.3883 31.6703C85.9226 30.7825 85.7336 29.6482 84.9527 28.9742C83.2841 27.5358 80.9415 25.9001 77.5221 25.9001Z" fill="#041241"/>
<path d="M57.6061 31.7443C56.9238 31.7443 56.2005 31.6785 55.4772 31.5388C53.8004 31.2264 52.288 31.0702 50.9811 31.0702C49.6659 31.0702 48.5891 31.2264 47.7754 31.547C47.6521 31.5963 47.5206 31.621 47.3891 31.621C47.0274 31.621 46.674 31.4319 46.4767 31.1031C46.2137 30.6593 46.3041 30.0921 46.6986 29.7551C48.3179 28.366 50.381 26.9522 53.4305 26.9522C54.1538 26.9522 54.91 27.0344 55.6827 27.1988C57.0636 27.4865 58.4609 27.6427 59.7103 27.6427C61.0172 27.6427 62.094 27.4783 62.8255 27.1577C62.9653 27.1002 63.105 27.0755 63.2447 27.0755C63.5653 27.0755 63.8776 27.2235 64.0831 27.4865C64.379 27.8646 64.379 28.3989 64.0831 28.7852C62.6118 30.6921 60.3021 31.7443 57.6061 31.7443Z" fill="#44C8F5"/>
<path d="M53.4305 28.0125C54.0634 28.0125 54.7374 28.0783 55.469 28.2345C56.8498 28.5221 58.3376 28.6948 59.7185 28.6948C61.0747 28.6948 62.3241 28.5221 63.2529 28.1276C62.0775 29.64 60.1706 30.6839 57.6061 30.6839C56.9978 30.6839 56.3485 30.6264 55.6662 30.5031C54.2689 30.2483 52.5839 30.0181 50.9728 30.0181C49.6659 30.0181 48.4083 30.1661 47.3891 30.5606C48.9015 29.2701 50.7509 28.0125 53.4305 28.0125ZM53.4305 25.9001C50.0111 25.9001 47.6685 27.5358 46.0082 28.9578C45.2273 29.6318 45.0382 30.7661 45.5725 31.6538C45.9671 32.3114 46.6657 32.6813 47.3891 32.6813C47.6439 32.6813 47.9069 32.632 48.1535 32.5415C48.8275 32.2785 49.8056 32.1388 50.9728 32.1388C52.2222 32.1388 53.6689 32.2867 55.2799 32.5909C56.0772 32.7388 56.8581 32.8128 57.6061 32.8128C60.6391 32.8128 63.2365 31.6127 64.9297 29.4345C65.5216 28.6701 65.5216 27.6015 64.9297 26.8371C64.5188 26.3028 63.8941 26.0152 63.2529 26.0152C62.9735 26.0152 62.6858 26.0727 62.4145 26.1878C62.0693 26.3357 61.2638 26.5823 59.7185 26.5823C58.5513 26.5823 57.1951 26.4344 55.9046 26.1631C55.0662 25.9905 54.2278 25.9001 53.4305 25.9001Z" fill="#041241"/>
<path d="M124.44 36.8733C124.218 36.8733 124.004 36.8075 123.815 36.6678L122.426 35.6486L121.004 36.6513C120.823 36.7829 120.609 36.8486 120.396 36.8486C120.174 36.8486 119.952 36.7746 119.763 36.6349C119.393 36.3637 119.245 35.8787 119.393 35.4431L119.944 33.8402L118.554 32.821C118.185 32.5498 118.028 32.0648 118.176 31.6292C118.324 31.1935 118.727 30.9058 119.179 30.9058L120.93 30.9223L121.481 29.303C121.629 28.8756 122.031 28.5879 122.483 28.5879C122.492 28.5879 122.492 28.5879 122.5 28.5879C122.96 28.5961 123.363 28.892 123.494 29.3277L124.004 30.9551L125.738 30.9716C126.199 30.9798 126.602 31.2757 126.741 31.7196C126.881 32.1552 126.717 32.6319 126.338 32.9032L124.933 33.8896L125.443 35.5006C125.582 35.9362 125.426 36.413 125.048 36.6842C124.875 36.8075 124.653 36.8733 124.44 36.8733Z" fill="#44C8F5"/>
<path d="M122.492 29.64L123.232 31.999L125.739 32.0237L123.7 33.4539L124.448 35.8047L122.442 34.3334L120.404 35.7718L121.201 33.4292L119.187 31.9497L121.694 31.9743L122.492 29.64ZM122.492 27.5275C121.588 27.5275 120.782 28.1029 120.486 28.9577L120.182 29.8537L119.204 29.8455C119.196 29.8455 119.187 29.8455 119.179 29.8455C118.267 29.8455 117.461 30.4291 117.174 31.2921C116.886 32.1634 117.19 33.1251 117.93 33.6676L118.694 34.2265L118.39 35.0978C118.094 35.9691 118.39 36.9308 119.122 37.4815C119.5 37.761 119.944 37.9007 120.396 37.9007C120.823 37.9007 121.251 37.7692 121.612 37.5144L122.41 36.9554L123.19 37.5226C123.56 37.7938 124.004 37.9336 124.44 37.9336C124.875 37.9336 125.303 37.8021 125.673 37.539C126.421 37.0048 126.733 36.0513 126.454 35.18L126.174 34.3087L126.939 33.7662C127.687 33.2402 128.015 32.2867 127.744 31.4072C127.473 30.5277 126.667 29.9277 125.747 29.9194L124.777 29.9112L124.497 29.0153C124.226 28.144 123.421 27.544 122.5 27.5357C122.508 27.5275 122.5 27.5275 122.492 27.5275Z" fill="#041241"/>
<path d="M6.52935 36.8651C6.31564 36.8651 6.09371 36.7993 5.91288 36.6678C5.54299 36.3966 5.38682 35.9281 5.51834 35.4924L6.02795 33.8814L4.63062 32.895C4.25251 32.632 4.09634 32.1553 4.22785 31.7114C4.36759 31.2758 4.77035 30.9716 5.23065 30.9634L6.95677 30.947L7.46639 29.3195C7.60612 28.8838 8.00066 28.5797 8.46096 28.5797C8.46918 28.5797 8.46918 28.5797 8.4774 28.5797C8.92948 28.5797 9.33224 28.8674 9.4802 29.2948L10.0391 30.9141C10.0391 30.9141 11.7899 30.8976 11.7981 30.8976C12.2502 30.8976 12.6612 31.1853 12.8009 31.621C12.9489 32.0566 12.7927 32.5416 12.4228 32.8128L11.0255 33.8321L11.5762 35.4349C11.7242 35.8705 11.5762 36.3473 11.2063 36.6267C11.0173 36.7665 10.7953 36.8404 10.5734 36.8404C10.3597 36.8404 10.146 36.7747 9.96515 36.6432L8.55138 35.6486L7.16226 36.6678C6.96499 36.7993 6.74306 36.8651 6.52935 36.8651Z" fill="#44C8F5"/>
<path d="M8.47729 29.64L9.28282 31.9826L11.798 31.9579L9.77599 33.4375L10.5815 35.7801L8.54305 34.3416L6.53746 35.813L7.28545 33.4621L5.2552 32.0319L7.75397 32.0073L8.47729 29.64ZM8.47729 27.5193C8.46907 27.5193 8.46086 27.5193 8.44442 27.5193C7.53204 27.5358 6.72651 28.1358 6.45527 29.0071L6.1758 29.8948L5.2141 29.903C4.2935 29.9113 3.48798 30.5113 3.21673 31.3908C2.94549 32.2703 3.26605 33.2238 4.02226 33.7498L4.78668 34.2923L4.50721 35.1636C4.22775 36.0349 4.54831 36.9884 5.28808 37.5226C5.65796 37.7857 6.0936 37.9172 6.52102 37.9172C6.95666 37.9172 7.40052 37.7774 7.77041 37.5062L8.55127 36.939L9.34858 37.498C9.71846 37.7528 10.1459 37.8843 10.5651 37.8843C11.0089 37.8843 11.461 37.7446 11.8391 37.4569C12.5707 36.9062 12.8666 35.9445 12.5707 35.0732L12.2748 34.2101L13.0392 33.6512C13.779 33.1087 14.0831 32.147 13.7954 31.2757C13.5077 30.4127 12.694 29.8291 11.7898 29.8291C11.7816 29.8291 11.7734 29.8291 11.7651 29.8291L10.7788 29.8373L10.4664 28.9413C10.1788 28.0947 9.38145 27.5193 8.47729 27.5193Z" fill="#041241"/>
<path d="M35.2569 27.8563C35.035 27.8563 34.8212 27.7906 34.6322 27.6508L31.6649 25.4808L28.6647 27.5933C28.4839 27.7248 28.2702 27.7823 28.0565 27.7823C27.8346 27.7823 27.6126 27.7084 27.4236 27.5686C27.0537 27.2974 26.9057 26.8124 27.0537 26.3768L28.2127 22.9574L25.2536 20.7957C24.8837 20.5244 24.7275 20.0477 24.8755 19.612C25.0152 19.1764 25.4262 18.8887 25.8783 18.8887L29.5936 18.9216L30.7607 15.4776C30.9087 15.0501 31.3115 14.7625 31.7635 14.7625H31.7718C32.2321 14.7707 32.6348 15.0666 32.7663 15.5022L33.8678 18.9709L37.5502 19.0202C38.0105 19.0284 38.4132 19.3243 38.5447 19.7682C38.6845 20.2038 38.5201 20.6806 38.142 20.9436L35.1665 23.0396L36.2597 26.4836C36.3994 26.9193 36.2432 27.396 35.8651 27.659C35.6925 27.7906 35.4706 27.8563 35.2569 27.8563Z" fill="#44C8F5"/>
<path d="M31.7717 15.8146L33.1033 20.0148L37.5501 20.0723L33.9335 22.6122L35.2568 26.796L31.6731 24.1821L28.0564 26.7302L29.4702 22.5711L25.8782 19.949L30.3497 19.9819L31.7717 15.8146ZM31.7717 13.6939C30.8676 13.6939 30.062 14.2693 29.7661 15.1323L28.8373 17.853L25.8947 17.8284C25.8865 17.8284 25.8865 17.8284 25.8782 17.8284C24.9659 17.8284 24.1521 18.412 23.8644 19.2832C23.5768 20.1545 23.8809 21.1162 24.6289 21.6587L26.9632 23.3602L26.0509 26.0398C25.755 26.9111 26.0509 27.8645 26.7906 28.4152C27.1687 28.6947 27.6126 28.8344 28.0564 28.8344C28.4839 28.8344 28.9113 28.7029 29.273 28.4481L31.6484 26.7795L33.9992 28.4974C34.3691 28.7687 34.813 28.9084 35.2486 28.9084C35.6843 28.9084 36.1117 28.7769 36.4816 28.5139C37.2213 27.9796 37.5419 27.0261 37.2624 26.1548L36.4076 23.4506L38.7502 21.7984C39.4982 21.2724 39.827 20.3189 39.5557 19.4394C39.2845 18.5599 38.4789 17.9599 37.5583 17.9517L34.6404 17.9106L33.7691 15.1652C33.4896 14.2939 32.6841 13.6939 31.7717 13.6857C31.7799 13.6939 31.7717 13.6939 31.7717 13.6939Z" fill="#041241"/>
<path d="M21.3821 31.3085C21.1602 31.3085 20.9382 31.2428 20.7574 31.103L18.7025 29.5989L16.5983 31.0702C16.4174 31.2017 16.2037 31.2592 15.99 31.2592C15.7681 31.2592 15.5462 31.1852 15.3571 31.0455C14.9872 30.7743 14.8393 30.2893 14.9872 29.8619L15.7928 27.47L13.7378 25.9576C13.368 25.6863 13.2118 25.2014 13.3597 24.7657C13.5077 24.3301 13.9105 24.0424 14.3625 24.0424L16.9435 24.067L17.7572 21.6587C17.9052 21.2313 18.308 20.9354 18.76 20.9354H18.7683C19.2286 20.9354 19.6313 21.2395 19.7711 21.6751L20.5355 24.0917L23.1082 24.1246C23.5685 24.1328 23.9713 24.4287 24.1028 24.8726C24.2425 25.3082 24.0781 25.7849 23.7 26.048L21.6123 27.5111L22.3767 29.9194C22.5164 30.3551 22.3602 30.8318 21.9821 31.103C21.8095 31.2428 21.5958 31.3085 21.3821 31.3085Z" fill="#44C8F5"/>
<path d="M18.76 22.0121L19.7628 25.152L23.1 25.1931L20.3793 27.1001L21.3821 30.2482L18.7107 28.2919L15.99 30.1989L17.0421 27.0754L14.3625 25.1027L17.6997 25.1438L18.76 22.0121ZM18.76 19.8915C17.8559 19.8915 17.0421 20.4669 16.7544 21.3299L16.1873 23.0067L14.3872 22.9903C14.379 22.9903 14.3707 22.9903 14.3625 22.9903C13.4501 22.9903 12.6446 23.5739 12.3569 24.4369C12.0693 25.3082 12.3734 26.2699 13.1131 26.8124L14.5434 27.8645L13.9844 29.5249C13.6885 30.3879 13.9926 31.3496 14.7242 31.9004C15.1023 32.1798 15.5462 32.3196 15.99 32.3196C16.4174 32.3196 16.8366 32.188 17.2065 31.9332L18.6861 30.8976L20.1327 31.9579C20.5026 32.2291 20.9464 32.3689 21.3821 32.3689C21.8177 32.3689 22.2452 32.2374 22.615 31.9743C23.363 31.4401 23.6754 30.4866 23.3959 29.6153L22.8698 27.9467L24.3165 26.9357C25.0727 26.4096 25.3933 25.4562 25.122 24.5767C24.8508 23.6972 24.0452 23.0971 23.1247 23.0807L21.3163 23.056L20.7821 21.371C20.5026 20.4997 19.6971 19.8997 18.7847 19.8915C18.7765 19.8915 18.7682 19.8915 18.76 19.8915Z" fill="#041241"/>
<path d="M65.4887 148.915C65.1681 148.915 64.864 148.767 64.6667 148.52C63.0392 146.507 61.3706 142.742 61.0665 140.975C61.0172 140.679 61.0912 140.375 61.2802 140.136C62.1679 139.019 62.6529 137.794 62.9077 136.635C62.1104 137.835 60.9679 138.92 59.2993 139.783C56.8909 141.024 55.6744 142.331 55.2224 144.148C55.1319 144.517 54.8442 144.813 54.4826 144.912C54.3839 144.937 54.2935 144.953 54.1949 144.953C53.9236 144.953 53.6524 144.846 53.4469 144.649C50.9975 142.216 50.6029 139.347 52.2962 136.618C51.729 136.249 51.2851 135.706 51.0386 135.057C50.7016 134.169 50.7673 133.207 51.1783 132.361C49.9864 132.862 48.8521 133.347 47.6192 134.054C45.3013 135.377 43.8546 136.832 44.3231 139.619C44.3889 140.021 44.2245 140.424 43.8875 140.662C43.7066 140.786 43.4929 140.852 43.2792 140.852C43.0984 140.852 42.9176 140.802 42.7532 140.712C38.1502 138.098 38.2488 132.558 38.9968 130.429C39.7284 128.325 40.8791 126.648 42.4162 125.407C42.0874 125.095 41.8161 124.725 41.6271 124.297C41.586 124.947 41.3805 125.563 41.1175 126.023C40.9284 126.36 40.575 126.558 40.1969 126.558C40.1229 126.558 40.0571 126.549 39.9832 126.533C39.5311 126.443 39.1941 126.064 39.1448 125.612C39.1448 125.612 39.079 125.226 38.7667 124.947C38.5776 125.119 38.3064 125.316 37.9283 125.432C37.7556 125.481 37.5584 125.514 37.3529 125.514C36.3172 125.514 34.9116 124.716 34.7144 123.722C34.7062 123.664 34.6979 123.623 34.6815 123.582C34.6733 123.582 34.6075 123.533 34.4514 123.434C34.1308 123.237 33.7938 123.114 33.7938 123.114C33.6376 123.048 33.539 123.023 33.465 123.023C33.4239 123.031 33.3664 123.097 33.3006 123.245C32.8978 124.248 31.9197 124.881 31.3361 125.177C31.032 125.793 30.6457 126.122 30.3662 126.303C30.4813 126.911 30.3333 127.519 29.9388 128.012C29.4785 128.588 28.7223 128.958 27.8181 129.073C27.8346 129.295 27.8921 129.574 27.9578 129.813C28.0647 130.174 27.9743 130.569 27.7195 130.84C27.514 131.054 27.2345 131.177 26.9468 131.177C26.8646 131.177 26.7907 131.169 26.7085 131.152C25.2043 130.807 24.2837 129.706 24.2344 128.202C24.2261 127.717 24.3165 127.297 24.4398 126.96C24.1028 127.075 23.7741 127.125 23.4864 127.125C23.4699 127.125 23.3877 127.125 23.3713 127.125C22.7877 127.092 22.3356 126.87 22.0068 126.615C21.9822 126.706 21.974 126.804 21.9657 126.878C21.9411 127.338 21.6369 127.725 21.1931 127.848C21.1027 127.873 21.004 127.889 20.9054 127.889C20.5602 127.889 20.2232 127.717 20.0259 127.421C19.8369 127.133 18.908 125.653 19.2779 124.305C19.5245 123.459 20.0917 122.941 20.552 122.637C20.6424 122.168 20.8479 121.741 21.1602 121.396C20.7903 120.861 20.3136 119.62 20.8643 118.322C21.2835 117.327 22.2616 116.76 23.5439 116.76C23.6014 116.76 23.6508 116.76 23.7001 116.76L24.0617 116.636C24.4563 116.497 24.8673 116.423 25.2865 116.423C26.4372 116.423 27.4893 117.015 28.1058 117.985C28.1633 117.993 28.2455 117.993 28.3524 117.993C29.2894 117.993 30.7279 117.656 31.3608 117.434C31.7964 116.456 33.0704 116.119 34.1226 115.831C34.476 115.732 34.8459 115.642 35.1911 115.519C35.5774 115.387 36.3254 115.067 37.7803 114.294C37.4515 113.875 37.2789 113.357 37.2953 112.806C37.3036 112.502 37.4351 112.223 37.6652 112.025C37.8625 111.861 38.1091 111.77 38.3557 111.77C38.3968 111.77 38.4461 111.77 38.4872 111.779C38.594 111.795 38.7009 111.795 38.816 111.795C39.5886 111.795 40.5996 111.516 41.5202 111.023C41.1997 110.751 40.9366 110.39 40.7722 109.97C40.6489 109.666 40.575 109.305 40.5668 108.918C36.4734 112.247 31.2539 115.067 25.7221 115.067C23.9878 115.067 22.2863 114.787 20.6506 114.245C20.2478 114.113 19.9684 113.751 19.9273 113.324C19.8944 112.905 20.1163 112.502 20.4944 112.305C23.4946 110.727 26.7331 108.507 29.8648 105.926C29.0428 106.42 28.2455 106.888 27.4729 107.332C27.3085 107.431 27.1277 107.472 26.9468 107.472C26.6016 107.472 26.2728 107.307 26.0673 107.003L26.0098 106.913C25.755 106.526 25.7796 106.041 26.0427 105.688C23.0425 106.97 20.0259 107.743 17.1655 107.743C14.4283 107.743 12.02 107.02 10.0062 105.581C9.70205 105.367 9.52944 104.998 9.56232 104.628C9.5952 104.258 9.82535 103.921 10.1623 103.765C12.9652 102.441 17.823 99.8191 22.8535 96.4409C21.004 97.2135 19.0642 97.9122 17.0586 98.5287C16.96 98.5615 16.8531 98.578 16.7463 98.578C16.5654 98.578 16.3928 98.5369 16.2367 98.4465C15.9818 98.3067 15.801 98.0684 15.727 97.7971L15.6942 97.682C15.5544 97.156 15.8339 96.6135 16.3435 96.4162C19.2615 95.323 21.9986 94.0818 24.522 92.7092C21.1438 94.0654 17.7162 94.912 14.5023 94.912C10.6309 94.912 7.42521 93.6873 4.97576 91.2625C4.71274 90.9995 4.59766 90.6132 4.68808 90.2515C4.77849 89.8898 5.04974 89.6021 5.41141 89.4953C11.4364 87.6788 16.3599 85.8211 20.552 83.7416C19.9437 83.8977 19.3355 84.0457 18.7108 84.1854C16.4093 84.6786 13.968 85.0403 11.2638 85.2951C11.2309 85.2951 11.198 85.3033 11.1651 85.3033C10.6473 85.3033 10.2034 84.9252 10.1213 84.4073L10.1048 84.2923C10.0144 83.7169 10.4089 83.1744 10.9843 83.084C15.5544 82.3689 19.3272 81.4072 22.648 80.1167C20.2314 80.6674 17.8724 80.9551 15.6202 80.9551C8.82255 80.9551 3.56199 78.3741 1.18652 73.878C1.00568 73.541 1.02212 73.13 1.23583 72.8094C1.43311 72.5053 1.77011 72.3245 2.12355 72.3245C2.14821 72.3245 2.16465 72.3245 2.18931 72.3245C2.54276 72.3491 2.92908 72.3574 3.33184 72.3574C7.01423 72.3574 13.0228 71.4121 18.8505 69.8586C18.6697 69.8586 18.4888 69.8586 18.3162 69.8586C14.9051 69.8586 11.6172 69.4723 8.5513 68.7161C8.01703 68.5846 7.6718 68.0667 7.76222 67.516L7.77866 67.4009C7.81976 67.1215 7.98415 66.8749 8.2143 66.7105C8.39513 66.579 8.60884 66.5132 8.83077 66.5132C8.89653 66.5132 8.95406 66.5214 9.01982 66.5297C10.9761 66.8749 13.0803 67.0639 15.2832 67.0804C15.5544 67.0886 15.8092 67.0886 16.0723 67.0886C17.6176 67.0886 19.1875 67.0064 20.741 66.842C11.0583 65.831 5.18948 61.6308 4.05517 54.7345C3.99763 54.3646 4.13736 53.9947 4.41683 53.7481C4.6141 53.5837 4.85247 53.5015 5.09906 53.5015C5.21413 53.5015 5.33743 53.518 5.4525 53.5591C9.4719 54.9646 15.2503 55.9263 21.1191 56.2058C17.897 54.9564 14.864 53.2303 12.0775 51.0685C11.6337 50.7233 11.535 50.0986 11.8556 49.6383L11.9214 49.5479C12.1268 49.2438 12.4556 49.0876 12.7926 49.0876C12.9899 49.0876 13.1954 49.1451 13.368 49.2602C16.4668 51.2822 19.804 52.8193 23.2809 53.8221C23.5357 53.8961 23.7905 53.9618 24.0535 54.0276C14.0174 48.0191 13.853 40.3666 14.9133 35.8293C15.0119 35.4101 15.3489 35.0978 15.7681 35.0238C15.8257 35.0156 15.8832 35.0074 15.9407 35.0074C16.3024 35.0074 16.6476 35.1964 16.8367 35.5088C18.2505 37.7774 20.6424 39.8323 23.9631 41.6406C24.0042 40.5885 24.3823 39.4789 25.1878 38.6322C25.3933 38.4185 25.6728 38.3034 25.9523 38.3034C26.0591 38.3034 26.166 38.3199 26.2728 38.3528C26.6591 38.4761 26.9386 38.8131 26.9961 39.2158C27.3907 42.0023 30.4731 43.8846 32.9554 44.9696C32.9554 44.9613 32.9554 44.9449 32.9554 44.9367C32.8156 43.4818 33.4979 42.0598 34.8705 40.9255C35.0678 40.7693 35.3062 40.6871 35.5446 40.6871C35.7007 40.6871 35.8651 40.72 36.0131 40.794C36.383 40.9748 36.6213 41.3611 36.6049 41.7721C36.5309 44.7887 40.9777 47.0574 42.9011 47.8958C43.4765 48.1423 44.0848 48.4218 44.6848 48.6931L45.2766 48.9643C47.7425 50.0493 49.7645 51.5206 51.2769 53.3125C51.4331 53.4933 51.5728 53.6742 51.7043 53.855C51.6961 53.7892 51.6961 53.7152 51.6961 53.6495C51.6961 53.3536 51.8194 53.0659 52.0414 52.8686C52.2386 52.6878 52.4934 52.5892 52.7565 52.5892C52.7893 52.5892 52.814 52.5892 52.8469 52.5892C52.9373 52.6056 53.0113 52.6056 53.077 52.6056C53.6277 52.6056 53.9483 52.5234 54.2113 50.8795C54.2771 50.4274 54.3428 50.0411 54.425 49.6383C53.5784 49.5643 52.7811 49.1287 52.2057 48.4218C51.466 47.5094 51.1783 46.2518 51.4413 45.0435C51.5071 44.7148 51.7372 44.4353 52.0414 44.2956C52.1811 44.2298 52.329 44.2051 52.477 44.2051C52.6578 44.2051 52.8387 44.2545 53.003 44.3449C53.3154 44.5175 53.6031 44.6079 53.8743 44.6079C54.8771 44.6079 55.6333 43.3174 55.9128 42.7585C56.1594 42.2735 56.3895 41.8379 56.6279 41.4351C55.3621 41.2132 54.2607 40.4899 53.636 39.446C52.9291 38.2706 52.9455 36.8239 53.6688 35.4759C53.8579 35.1307 54.2196 34.917 54.5977 34.917C54.6552 34.917 54.7127 34.9252 54.7785 34.9334C55.2224 35.0074 55.5758 35.3608 55.6498 35.8129C55.6826 36.002 55.7073 36.1581 56.3402 36.1581C57.3512 36.1581 58.9047 35.6485 60.2774 35.2046C61.2967 34.8676 62.2584 34.5553 63.0474 34.4238L63.631 34.3169C64.8311 34.1032 66.3188 33.832 68.16 33.832C69.4012 33.832 70.6424 33.9553 71.9493 34.1936C73.5932 34.506 74.5138 35.0978 74.9988 36.2321C77.3249 36.5773 79.7168 37.2349 80.8512 39.0021C81.1799 39.5035 81.3854 40.0624 81.4758 40.6789C81.6156 40.6049 81.78 40.5638 81.9526 40.5638C83.8184 40.5638 85.1418 42.1256 85.3391 43.6298C85.4788 44.6901 85.1582 45.7176 84.4431 46.5313C83.5472 47.5505 82.1087 48.1095 80.3908 48.1095C80.1771 48.1095 79.947 48.1012 79.7168 48.0848C78.9935 48.0273 78.3277 47.8382 77.6948 47.5752C77.7852 47.8382 77.8428 48.1012 77.8674 48.3725C77.8921 48.7917 77.6702 49.1862 77.3003 49.3835C77.1441 49.4657 76.9797 49.5068 76.8071 49.5068C76.5687 49.5068 76.3386 49.4246 76.1413 49.2767C75.6399 48.8739 73.7247 48.1177 72.6644 47.9122C72.2863 47.8382 71.7027 47.7396 71.0205 47.7396C70.2889 47.7396 69.6149 47.8547 69.0313 48.093C67.9628 48.5204 67.3956 50.6493 67.9299 52.2193C68.234 53.107 68.8669 53.5426 69.8615 53.5426C69.9519 53.5426 70.0506 53.5426 70.1492 53.5344C70.4944 53.5098 70.7903 53.4851 70.8479 52.2768C70.8643 51.8823 71.1027 51.5288 71.4561 51.3644C71.5958 51.2987 71.752 51.2658 71.9 51.2658C72.1301 51.2658 72.3521 51.3398 72.5411 51.4795C74.0042 52.5974 74.9084 54.3975 74.7193 55.8441C74.6207 56.6168 74.2426 57.2579 73.6343 57.71C74.1275 58.047 74.6453 58.4498 75.1632 59.0005C76.4948 59.1155 77.7277 59.2471 78.8784 59.4115C78.0976 58.4251 77.1688 56.3291 79.6675 53.3371C81.1717 51.5453 83.1937 50.074 85.6761 48.9807L85.9966 48.8328C86.6789 48.5204 87.394 48.1917 88.0515 47.9122C89.9667 47.082 94.4135 44.8134 94.3396 41.7968C94.3313 41.3858 94.5615 40.9995 94.9314 40.8187C95.0793 40.7447 95.2355 40.7118 95.3999 40.7118C95.6383 40.7118 95.8766 40.794 96.0739 40.9502C97.4466 42.0845 98.137 43.5065 97.9973 44.9613C97.9973 44.9696 97.9973 44.9778 97.9973 44.9942C100.48 43.9092 103.57 42.0269 103.965 39.2323C104.022 38.8295 104.302 38.4925 104.688 38.3692C104.795 38.3363 104.902 38.3199 105.009 38.3199C105.296 38.3199 105.576 38.435 105.773 38.6487C106.579 39.5035 106.965 40.6049 106.998 41.6571C110.319 39.857 112.71 37.8021 114.124 35.5334C114.321 35.2211 114.658 35.032 115.02 35.032C115.078 35.032 115.135 35.0403 115.193 35.0485C115.612 35.1142 115.949 35.4348 116.048 35.854C117.108 40.383 116.944 48.0437 106.907 54.0523C107.17 53.9865 107.433 53.9125 107.696 53.8385C111.165 52.8275 114.502 51.2905 117.601 49.2767C117.782 49.1616 117.979 49.104 118.176 49.104C118.505 49.104 118.826 49.2602 119.031 49.5397L119.097 49.6301C119.434 50.0904 119.344 50.7397 118.892 51.0932C116.113 53.2467 113.072 54.9729 109.85 56.2305C115.711 55.9592 121.497 54.9975 125.525 53.5837C125.64 53.5426 125.755 53.5262 125.878 53.5262C126.125 53.5262 126.363 53.6084 126.561 53.7728C126.848 54.0112 126.988 54.3893 126.922 54.7591C125.788 61.6554 119.919 65.8556 110.228 66.8338C111.782 66.9982 113.352 67.0804 114.897 67.0804C115.16 67.0804 115.415 67.0804 115.678 67.0721C117.897 67.0557 120.001 66.8667 121.949 66.5214C122.015 66.5132 122.073 66.505 122.138 66.505C122.632 66.505 123.075 66.8584 123.174 67.3598L123.199 67.4749C123.306 68.0256 122.96 68.5681 122.41 68.7079C119.344 69.4641 116.056 69.8504 112.645 69.8504C112.464 69.8504 112.283 69.8504 112.102 69.8504C117.93 71.4039 123.938 72.3491 127.621 72.3491C128.024 72.3491 128.41 72.3409 128.763 72.3163C128.788 72.3163 128.804 72.3163 128.829 72.3163C129.191 72.3163 129.52 72.4971 129.717 72.8012C129.922 73.1218 129.939 73.5328 129.766 73.8698C127.391 78.3659 122.13 80.9469 115.341 80.9469C113.097 80.9469 110.738 80.6592 108.321 80.1085C111.634 81.399 115.406 82.3524 119.977 83.0758C120.527 83.1662 120.922 83.6676 120.864 84.2265L120.856 84.3416C120.799 84.8923 120.338 85.2951 119.804 85.2951C119.771 85.2951 119.738 85.2951 119.705 85.2868C116.993 85.032 114.552 84.6704 112.258 84.1772C111.642 84.0375 111.025 83.8977 110.425 83.7416C114.609 85.8211 119.541 87.687 125.566 89.4953C125.928 89.6021 126.199 89.8898 126.289 90.2515C126.38 90.6132 126.273 90.9995 126.002 91.2625C123.544 93.6791 120.338 94.912 116.467 94.912C113.253 94.912 109.834 94.0654 106.455 92.7174C108.97 94.0818 111.708 95.323 114.626 96.4162C115.16 96.6135 115.439 97.1971 115.259 97.7396L115.217 97.8547C115.069 98.2985 114.658 98.5862 114.215 98.5862C114.116 98.5862 114.009 98.5698 113.902 98.5369C111.897 97.9204 109.965 97.23 108.124 96.4573C113.154 99.8356 118.004 102.458 120.815 103.781C121.152 103.945 121.382 104.274 121.415 104.644C121.448 105.014 121.284 105.384 120.971 105.598C118.949 107.028 116.541 107.759 113.812 107.759C110.943 107.759 107.935 106.987 104.943 105.704C105.042 105.836 105.107 105.984 105.132 106.148C105.181 106.428 105.115 106.715 104.951 106.946L104.885 107.036C104.68 107.324 104.351 107.48 104.022 107.48C103.841 107.48 103.661 107.431 103.496 107.34C102.715 106.888 101.91 106.42 101.088 105.926C104.228 108.516 107.466 110.743 110.475 112.313C110.853 112.51 111.075 112.913 111.042 113.332C111.009 113.751 110.721 114.121 110.319 114.253C108.683 114.795 106.981 115.075 105.247 115.075C99.707 115.075 94.4957 112.255 90.4024 108.926C90.3941 109.313 90.3202 109.674 90.1969 109.979C90.0325 110.398 89.7694 110.751 89.4489 111.023C90.3695 111.524 91.3805 111.795 92.1531 111.795C92.2682 111.795 92.3751 111.787 92.4819 111.779C92.523 111.77 92.5723 111.77 92.6134 111.77C92.86 111.77 93.1066 111.861 93.3039 112.025C93.534 112.223 93.6656 112.502 93.6738 112.798C93.6902 113.349 93.5258 113.875 93.1888 114.302C94.3724 114.927 95.2602 115.354 95.7616 115.527C96.115 115.65 96.4849 115.749 96.8383 115.839C97.8904 116.119 99.1645 116.464 99.6001 117.442C100.241 117.656 101.671 118.001 102.617 118.001C102.724 118.001 102.806 117.993 102.872 117.993C103.496 117.023 104.548 116.431 105.691 116.431C106.102 116.431 106.521 116.505 106.932 116.653L107.269 116.768C107.318 116.768 107.368 116.768 107.425 116.768C108.707 116.768 109.677 117.335 110.097 118.33C110.647 119.637 110.179 120.878 109.801 121.412C110.105 121.757 110.31 122.185 110.401 122.645C110.869 122.949 111.436 123.467 111.667 124.314C112.045 125.662 111.124 127.149 110.935 127.429C110.738 127.733 110.401 127.906 110.055 127.906C109.965 127.906 109.866 127.897 109.776 127.865C109.332 127.741 109.02 127.355 108.995 126.895C108.987 126.812 108.971 126.714 108.954 126.623C108.617 126.886 108.165 127.108 107.581 127.141C107.565 127.141 107.483 127.141 107.466 127.141C107.187 127.141 106.85 127.092 106.513 126.977C106.636 127.322 106.727 127.733 106.71 128.218C106.677 129.714 105.757 130.824 104.252 131.169C104.17 131.185 104.096 131.193 104.014 131.193C103.726 131.193 103.439 131.078 103.241 130.856C102.987 130.577 102.896 130.191 103.003 129.829C103.069 129.591 103.126 129.311 103.143 129.089C102.23 128.982 101.474 128.604 101.014 128.029C100.628 127.536 100.471 126.936 100.595 126.327C100.323 126.155 99.9371 125.818 99.6248 125.21C99.0412 124.914 98.0548 124.281 97.6521 123.27C97.5863 123.097 97.5206 123.056 97.5206 123.056H97.5123C97.4466 123.056 97.3562 123.064 97.2082 123.13C97.1589 123.146 96.8301 123.278 96.4931 123.483C96.304 123.599 96.2547 123.656 96.2465 123.656C96.2547 123.656 96.2465 123.697 96.2383 123.746C96.0328 124.749 94.6272 125.547 93.5998 125.547C93.3943 125.547 93.197 125.514 93.008 125.464C92.6381 125.358 92.3668 125.152 92.1778 124.979C91.8572 125.251 91.7832 125.67 91.7832 125.678C91.7093 126.122 91.3641 126.484 90.9202 126.566C90.8544 126.574 90.7887 126.582 90.7311 126.582C90.353 126.582 89.9996 126.385 89.8105 126.048C89.5557 125.588 89.3502 124.979 89.3092 124.33C89.1201 124.749 88.8488 125.127 88.5201 125.432C90.0571 126.664 91.1997 128.349 91.9394 130.454C92.6874 132.574 92.7943 138.114 88.1831 140.736C88.0187 140.827 87.8378 140.876 87.657 140.876C87.4433 140.876 87.2296 140.81 87.0488 140.687C86.7117 140.449 86.5473 140.046 86.6131 139.643C87.0898 136.857 85.635 135.41 83.317 134.079C82.0841 133.372 80.9498 132.887 79.7662 132.385C80.1771 133.224 80.2429 134.194 79.9059 135.073C79.6593 135.731 79.2154 136.265 78.6483 136.635C80.3415 139.372 79.947 142.241 77.4975 144.665C77.3003 144.863 77.029 144.97 76.7495 144.97C76.6509 144.97 76.5605 144.953 76.4619 144.928C76.092 144.822 75.8125 144.534 75.7221 144.164C75.2782 142.348 74.0535 141.041 71.6534 139.799C69.9766 138.936 68.8341 137.843 68.0367 136.643C68.2916 137.802 68.7765 139.035 69.6642 140.161C69.8533 140.399 69.9273 140.695 69.8779 140.991C69.582 142.767 67.9135 146.523 66.286 148.537C66.1051 148.775 65.8092 148.915 65.4887 148.915ZM69.9437 129.985C70.5602 130.643 71.4479 131.193 72.5164 131.752C73.2644 132.139 74.6207 132.558 75.8536 132.558C76.3715 132.558 77.2592 132.484 77.366 131.966C77.4071 131.761 77.514 131.58 77.6537 131.44C76.5523 130.947 75.3687 130.355 74.0042 129.517C73.1905 129.023 72.426 128.473 71.7274 127.865C71.5958 128.769 71.0862 129.443 70.4698 129.788C70.3054 129.878 70.1328 129.944 69.9437 129.985ZM53.3154 131.44C53.4633 131.58 53.562 131.769 53.6031 131.974C53.7099 132.484 54.5894 132.558 55.1073 132.558C56.3402 132.558 57.7047 132.139 58.4527 131.752C59.5212 131.193 60.4089 130.643 61.0254 129.985C60.8364 129.944 60.6637 129.878 60.5076 129.788C59.8911 129.443 59.3733 128.769 59.25 127.856C58.5513 128.465 57.7869 129.015 56.9649 129.508C55.5922 130.355 54.4168 130.947 53.3154 131.44ZM40.0571 121.289C40.6572 121.659 41.0517 122.119 41.2983 122.604C41.3476 121.001 42.3586 119.571 43.8957 119.004C44.019 118.963 44.1423 118.938 44.2656 118.938C44.504 118.938 44.7423 119.02 44.9314 119.176C45.2191 119.415 45.367 119.785 45.3095 120.154C45.2355 120.623 45.3752 120.853 45.5068 121.001C45.9506 121.519 47.0849 121.831 48.548 121.831C50.4632 121.831 52.7318 121.297 54.4579 120.434C54.4826 120.426 54.5072 120.409 54.5319 120.401C54.1291 120.459 53.7346 120.492 53.3565 120.492C52.9537 120.492 52.5756 120.459 52.2304 120.385C51.9345 120.327 51.6797 120.146 51.5235 119.883C51.3673 119.62 51.3345 119.308 51.4249 119.02C51.5235 118.708 51.7126 118.379 51.9592 118.05C51.1619 118.511 50.2002 118.782 49.2713 118.782C48.6795 118.782 48.1288 118.675 47.6274 118.469C46.6082 118.05 45.7862 117.13 45.4821 116.061C45.4328 115.889 45.3917 115.708 45.3752 115.527C44.2656 116.152 43.5669 117.072 43.1642 118.379C43.0244 118.831 42.6052 119.127 42.1531 119.127C42.0792 119.127 41.997 119.119 41.923 119.102C41.2572 118.954 40.6572 118.412 40.3202 117.656C38.5694 118.56 37.6981 119.152 37.2707 119.505C37.3693 119.489 37.4762 119.489 37.5748 119.489C38.5858 119.489 39.6297 120.146 39.9503 120.985C39.9914 121.124 40.0243 121.215 40.0571 121.289ZM86.7035 118.938C86.8268 118.938 86.9501 118.963 87.0734 119.004C88.6105 119.571 89.6215 121.001 89.6708 122.588C89.9174 122.103 90.3119 121.65 90.912 121.289C90.912 121.289 90.912 121.289 90.9202 121.289C90.9531 121.215 90.9859 121.124 91.0353 121.001C91.3558 120.155 92.3997 119.497 93.4107 119.497C93.5176 119.497 93.6162 119.505 93.7149 119.513C93.2874 119.16 92.4244 118.568 90.6654 117.664V117.672C90.3284 118.428 89.7366 118.963 89.0708 119.111C88.9968 119.127 88.9146 119.135 88.8406 119.135C88.3885 119.135 87.9693 118.839 87.8296 118.387C87.4268 117.08 86.72 116.16 85.6103 115.535C85.5857 115.708 85.5528 115.889 85.5035 116.061C85.1993 117.121 84.3774 118.05 83.3581 118.469C82.8567 118.675 82.306 118.782 81.7142 118.782C80.7854 118.782 79.8237 118.511 79.0264 118.05C79.273 118.379 79.462 118.708 79.5607 119.02C79.6511 119.308 79.6182 119.62 79.462 119.883C79.3059 120.146 79.051 120.327 78.7551 120.385C78.4099 120.45 78.0318 120.492 77.6291 120.492C77.251 120.492 76.8646 120.459 76.4619 120.401C76.4865 120.409 76.5112 120.426 76.5358 120.434C78.262 121.297 80.5224 121.831 82.4375 121.831C83.8924 121.831 85.0267 121.519 85.4788 121.001C85.6103 120.853 85.7418 120.623 85.6679 120.154C85.6103 119.785 85.75 119.415 86.046 119.176C86.2268 119.02 86.4651 118.938 86.7035 118.938ZM53.3812 112.329C52.1811 112.625 51.244 113.316 51.0057 113.751C50.7016 114.294 50.7591 114.516 50.8906 114.886C50.9564 115.075 51.3427 115.453 52.2551 115.453C52.6743 115.453 53.0524 115.699 53.225 116.086C53.3072 116.275 53.3318 116.489 53.299 116.686C53.4222 116.579 53.5455 116.472 53.6688 116.373C53.4469 116.184 53.2496 115.946 53.077 115.65C52.551 114.746 52.551 113.694 53.077 112.782C53.1592 112.609 53.2661 112.469 53.3812 112.329ZM77.6702 116.678C77.6373 116.48 77.6619 116.275 77.7441 116.078C77.9167 115.691 78.2948 115.445 78.7141 115.445C79.6264 115.445 80.0127 115.067 80.0867 114.869C80.2182 114.508 80.2758 114.286 79.9634 113.743C79.7168 113.324 78.7798 112.625 77.5797 112.329C77.6948 112.469 77.7934 112.609 77.8839 112.765C78.4099 113.677 78.4181 114.73 77.8921 115.642C77.7195 115.938 77.5222 116.176 77.3003 116.365C77.4236 116.464 77.5469 116.571 77.6702 116.678ZM57.5732 112.034C57.6225 112.444 57.4252 112.855 57.0635 113.077C56.7923 113.242 56.7183 113.382 56.7265 113.423C56.743 113.472 56.8005 113.521 56.8252 113.521C57.7047 113.521 58.5184 112.691 59.028 111.738C58.5431 111.886 58.0499 111.976 57.5732 112.034ZM71.9411 111.738C72.1548 112.132 72.4178 112.502 72.7137 112.798C73.0425 113.127 73.5521 113.513 74.1522 113.513C74.1686 113.513 74.2261 113.464 74.2426 113.414C74.2508 113.373 74.1768 113.242 73.9056 113.077C73.5439 112.864 73.3466 112.453 73.396 112.034C72.9192 111.976 72.4342 111.886 71.9411 111.738ZM84.4349 102.934C84.8295 104.94 85.8569 106.666 86.6789 107.225C86.8104 107.315 86.9666 107.365 87.1063 107.365C87.1885 107.365 87.2296 107.348 87.2296 107.34C87.246 107.324 87.2953 107.2 87.2707 106.921C87.246 106.674 87.3036 106.436 87.4351 106.239C86.2843 105.088 85.2733 103.954 84.4431 102.91C84.4431 102.926 84.4431 102.934 84.4349 102.934ZM43.5258 106.255C43.6491 106.452 43.7149 106.691 43.6902 106.929C43.6656 107.209 43.7149 107.332 43.7313 107.357C43.7395 107.357 43.7724 107.381 43.8546 107.381C43.9943 107.381 44.1505 107.332 44.282 107.241C45.1204 106.674 46.1397 104.948 46.526 102.943C46.526 102.943 46.526 102.943 46.526 102.934C45.6876 103.97 44.6766 105.104 43.5258 106.255ZM52.8469 56.2305C53.151 57.6936 52.6003 58.7703 52.1071 59.395C52.3208 59.3621 52.5427 59.3375 52.7729 59.3046C53.5866 58.6306 53.9894 57.784 54.1785 57.0031C53.6606 56.8469 53.2168 56.5757 52.8469 56.2305ZM81.4265 42.5366C81.3608 42.9311 81.2621 43.3503 81.1306 43.7942C81.1306 43.8024 81.1306 43.8024 81.1224 43.8106C81.5005 43.6051 81.6074 43.2681 81.632 43.1448C81.6485 43.038 81.6978 42.6927 81.4265 42.5366C81.4265 42.5448 81.4265 42.5448 81.4265 42.5366ZM76.2893 42.6681C76.5605 42.7831 76.8235 42.8982 77.0866 43.0133C77.8099 43.3339 78.4757 43.6215 79.0921 43.8024C79.0675 43.7284 79.051 43.6544 79.051 43.5722C78.9935 42.89 77.0208 42.7256 76.3797 42.6763C76.355 42.6681 76.3221 42.6681 76.2893 42.6681Z" fill="#44C8F5"/>
<path d="M68.1518 34.8759C69.2121 34.8759 70.3958 34.9663 71.7438 35.2211C73.4781 35.5499 73.9302 36.1335 74.2014 37.1774C78.6976 37.761 81.484 39.0103 80.1196 43.4818C79.9963 41.8872 77.629 41.7064 76.4454 41.6077C76.0015 41.5749 75.459 41.5502 74.859 41.5502C72.9849 41.5502 70.593 41.805 69.2614 42.8078L69.2697 42.8407C70.1656 42.4955 70.9136 42.3557 71.604 42.3557C72.9438 42.3557 74.0535 42.8818 75.5741 43.4983C77.2756 44.1887 78.7715 45.0353 80.2757 45.0353C80.4155 45.0353 80.5634 45.0271 80.7114 45.0107C82.8403 44.7887 83.317 42.364 81.9608 41.6077C83.2102 41.6077 84.1554 42.6763 84.2951 43.7531C84.5006 45.3559 83.2266 47.0327 80.3908 47.0327C80.2018 47.0327 80.0045 47.0245 79.799 47.008C77.029 46.7861 74.9659 44.049 72.089 44.049C71.604 44.049 71.0944 44.1312 70.5519 44.312C71.4725 44.46 72.4178 44.6819 73.4288 45.0846C75.0316 45.7093 76.7166 47.0738 76.8071 48.43C76.092 47.8547 73.9466 47.0656 72.8781 46.8519C72.4424 46.7697 71.7849 46.6546 71.0287 46.6546C70.2971 46.6546 69.4587 46.7615 68.645 47.082C66.9682 47.756 66.2448 50.5014 66.9353 52.5316C67.2723 53.518 68.1025 54.5783 69.8697 54.5783C69.9848 54.5783 70.1081 54.5701 70.2396 54.5619C71.2917 54.4797 71.8424 53.8632 71.9164 52.3015C73.6178 53.6002 74.5795 56.2305 72.5986 57.0771C72.3438 57.1839 72.0972 57.2333 71.8588 57.2333C71.1931 57.2333 70.593 56.8798 70.0423 56.4935C71.5383 57.9566 73.0671 58.1539 74.6864 60.0115C79.2483 60.3814 84.1554 61.1294 86.6953 62.6336C87.0816 62.8473 87.4926 63.135 87.8789 63.472C88.1584 63.6857 88.7255 64.1295 88.8488 64.598C89.868 63.1103 88.5611 61.3595 85.5445 60.5129C83.0622 59.8224 80.9251 60.2663 79.725 58.7457C78.5167 57.225 79.2894 55.4496 80.4977 54.0112C81.7799 52.4823 83.6129 51.0521 86.1199 49.9424C86.8925 49.589 87.7227 49.2027 88.4872 48.8821C92.0545 47.3286 95.4985 44.8709 95.4163 41.7639C97.8082 43.7284 97.1095 46.1696 95.5314 47.0327C96.0163 46.8601 96.4848 46.7121 96.9862 46.5395C100.644 45.2079 104.524 42.8736 105.025 39.3802C106.266 40.6871 106.168 42.8407 105.362 43.6709C109.316 41.8543 112.973 39.4213 115.053 36.0924C117.642 47.156 107.787 53.5426 98.4 56.7319C98.4165 56.7319 98.4493 56.7401 98.4658 56.7401C99.8467 56.5182 101.211 56.2962 102.551 56.0332C104.384 55.6715 106.217 55.3674 108.017 54.8496C111.601 53.8057 115.045 52.2193 118.201 50.1562L118.267 50.2466C115.267 52.5645 111.888 54.4221 108.28 55.6797C106.472 56.3209 104.631 56.888 102.715 57.11C102.452 57.1428 102.173 57.1593 101.902 57.1839C103.34 57.299 104.894 57.3566 106.521 57.3566C113.023 57.3566 120.626 56.4195 125.895 54.5783C124.621 62.3377 116.787 65.9954 105.609 65.9954C103.398 65.9954 101.047 65.8474 98.5891 65.568C100.052 65.9543 101.499 66.3242 102.962 66.6036C105.05 67.0393 107.146 67.5078 109.275 67.7873C111.14 68.0174 113.023 68.1407 114.913 68.1407C115.176 68.1407 115.439 68.1407 115.702 68.1325C117.856 68.116 120.018 67.9434 122.138 67.5653L122.163 67.6804C119.064 68.4448 115.867 68.7901 112.653 68.7901C111.494 68.7901 110.343 68.749 109.192 68.6585C107.014 68.5024 104.82 68.2558 102.699 67.6722C102.452 67.6064 102.206 67.516 101.959 67.442C109.332 70.8203 121.201 73.4013 127.629 73.4013C128.056 73.4013 128.467 73.3931 128.837 73.3684C126.643 77.5275 121.711 79.8783 115.341 79.8783C109.316 79.8783 102 77.7659 94.5121 73.0725C94.6108 73.1876 94.7176 73.278 94.8245 73.3931C96.3451 74.4698 97.8329 75.5548 99.411 76.5165C101.458 77.8234 103.513 79.1139 105.724 80.1414C110.146 82.1881 114.963 83.347 119.812 84.1032L119.804 84.2183C117.354 83.9882 114.905 83.6429 112.472 83.1251C110.064 82.599 107.672 81.8839 105.37 80.9304C103.414 80.1331 101.491 79.1961 99.7152 78.0289C106.653 83.8977 114.971 87.3993 125.254 90.4899C122.853 92.8571 119.812 93.8353 116.467 93.8353C107.803 93.8353 97.1178 87.2678 90.3694 81.1606C90.4516 81.2921 90.5503 81.4154 90.6325 81.5387C92.0791 82.9854 93.5176 84.4238 95.0546 85.7472C96.9287 87.3911 98.811 89.0432 100.866 90.4899C104.976 93.3667 109.529 95.6107 114.256 97.3861L114.215 97.5012C109.381 96.0135 104.68 93.9832 100.373 91.2132C98.9918 90.3501 97.652 89.4131 96.378 88.3774C103.562 95.5614 114.478 101.94 120.355 104.71C118.431 106.074 116.212 106.674 113.804 106.674C105.115 106.674 94.1094 98.8081 86.8186 90.7118C86.8186 90.7529 86.8103 90.8022 86.8021 90.8433C87.7063 91.9447 88.6187 93.0297 89.5721 94.0572C90.9859 95.6107 92.3915 97.1724 93.945 98.6026C97.0602 101.447 100.554 103.921 104.072 106.313L104.006 106.403C100.323 104.274 96.6739 102.014 93.3614 99.2684C92.1284 98.2574 90.9119 97.1971 89.8187 96.0217C94.693 102.178 102.559 109.354 109.965 113.234C108.379 113.76 106.792 113.998 105.231 113.998C96.3862 113.998 88.2077 106.411 84.402 101.126C84.0814 101.652 83.7198 102.162 83.3088 102.655C83.6622 105.071 84.8952 107.307 86.087 108.121C86.3911 108.335 86.761 108.45 87.1145 108.45C87.8214 108.45 88.4461 107.981 88.331 106.839C90.1146 108.524 89.2434 110.57 87.7803 110.57C87.5172 110.57 87.2378 110.505 86.9501 110.357C88.2241 111.91 90.501 112.847 92.1367 112.847C92.3011 112.847 92.449 112.839 92.597 112.823C92.6216 113.636 91.9312 114.212 91.0763 114.212C90.9859 114.212 90.8873 114.204 90.7886 114.187C92.7285 115.28 94.4957 116.201 95.4081 116.513C96.8794 117.023 98.622 117.163 98.6713 118.132C98.6548 118.354 101.121 119.045 102.592 119.045C103.118 119.045 103.513 118.954 103.628 118.733C104.022 117.976 104.778 117.475 105.666 117.475C105.946 117.475 106.242 117.524 106.546 117.631L107.105 117.828C107.105 117.828 107.22 117.812 107.401 117.812C107.869 117.812 108.757 117.927 109.102 118.724C109.579 119.842 108.913 120.787 108.913 120.787C108.913 120.787 108.691 119.62 108.009 119.579C107.885 119.571 107.779 119.563 107.688 119.563C107.335 119.563 107.137 119.645 107.047 119.974C106.94 120.376 106.718 121.067 105.715 121.067C105.683 121.067 105.65 121.067 105.625 121.067C104.614 121.018 104.129 120.327 103.726 120.327C103.669 120.327 103.611 120.344 103.562 120.368C103.102 120.615 103.052 121.108 103.883 121.412C104.721 121.708 105.707 122.02 106.348 122.078C106.348 122.078 106.899 121.552 107.713 121.552C107.836 121.552 107.976 121.568 108.107 121.593C108.962 121.774 109.431 122.53 109.365 123.303C109.365 123.303 110.368 123.64 110.631 124.593C110.894 125.547 110.039 126.845 110.039 126.845C110.039 126.845 109.957 125.242 108.938 125.242C108.88 125.242 108.823 125.251 108.765 125.259C108.765 125.259 108.354 126.04 107.524 126.089C107.507 126.089 107.491 126.089 107.466 126.089C107.014 126.089 106.052 125.834 105.888 125.021C105.633 123.829 105.041 123.845 103.924 123.451C103.102 123.163 102.773 122.9 102.518 122.9C102.428 122.9 102.345 122.933 102.247 123.015C102.017 123.188 102.461 124.231 103.011 124.421C103.841 124.708 104.721 124.626 105.132 125.497C105.518 126.319 105.115 126.673 105.115 126.673C105.115 126.673 105.691 127.232 105.666 128.202C105.642 129.352 104.91 129.952 104.03 130.15C104.03 130.15 104.655 128.086 103.619 128.078C102.313 128.054 101.466 127.363 101.647 126.508C101.795 125.785 101.474 125.612 101.219 125.473C100.981 125.341 100.66 125.021 100.447 124.421C100.447 124.421 99.0494 123.878 98.6466 122.875C98.3754 122.201 97.9315 121.987 97.5041 121.987C97.2493 121.987 97.0027 122.061 96.7972 122.152C96.7972 122.152 96.3862 122.308 95.9588 122.563C95.3999 122.908 95.3012 123.105 95.2108 123.541C95.1368 123.911 94.2902 124.486 93.6162 124.486C93.5176 124.486 93.4189 124.478 93.3367 124.445C92.8518 124.305 92.6874 123.788 92.2682 123.788C92.0873 123.788 91.8654 123.878 91.5531 124.133C90.8626 124.7 90.764 125.522 90.764 125.522C90.764 125.522 89.5639 123.377 91.4627 122.209C91.775 122.02 91.8325 121.881 92.0216 121.387C92.1613 121.009 92.7778 120.574 93.4107 120.574C93.5833 120.574 93.7642 120.607 93.9285 120.689C94.0518 120.746 94.1751 120.771 94.2902 120.771C94.882 120.771 95.3341 120.081 95.0793 119.505C94.7834 118.839 93.3696 117.837 90.5421 116.431C90.2873 116.3 90.0078 116.143 89.7283 116.004C90.1311 116.727 89.5393 117.943 88.8406 118.1C88.1912 116.02 86.8268 114.549 84.139 113.867C85.1664 115.305 84.2129 116.99 82.9471 117.516C82.5608 117.68 82.1334 117.754 81.706 117.754C80.5717 117.754 79.3962 117.245 78.7222 116.521C80.1031 116.521 80.8593 115.864 81.0895 115.256C81.3032 114.647 81.3772 114.097 80.9004 113.242C80.4566 112.477 79.0921 111.532 77.4646 111.236C75.6974 110.907 72.8781 111.557 70.4615 109.896C70.4204 109.905 70.3958 109.929 70.3711 109.938C70.3711 111.787 72.0315 114.598 74.1686 114.598C74.1686 114.598 74.1686 114.598 74.1768 114.598C75.1878 114.582 76.0015 113.102 74.4727 112.19C74.6124 112.165 74.7604 112.157 74.9001 112.157C76.5276 112.157 77.8181 113.719 77.0043 115.141C76.6098 115.831 75.9358 115.995 75.196 116.176C76.4372 116.9 78.2702 118.461 78.5578 119.374C78.2784 119.431 77.966 119.456 77.6372 119.456C74.7686 119.456 70.33 117.327 68.234 113.168C68.234 113.16 68.2258 113.16 68.2258 113.151C69.9601 117.458 72.3356 119.546 76.0591 121.404C77.9825 122.366 80.3908 122.916 82.4375 122.916C85.0267 122.916 87.0241 122.037 86.7117 120.015C89.3831 121.001 89.2105 124.922 86.4322 125.292C88.3803 126.319 90.016 128.07 90.9777 130.799C91.6764 132.763 91.6271 137.58 87.6981 139.808C88.3063 136.249 86.2103 134.481 83.8842 133.15C80.8182 131.391 78.4099 130.963 74.5631 128.629C70.182 125.974 67.7983 121.683 66.9599 116.472C66.9928 119.908 67.2723 123.442 68.0696 125.218C68.3984 125.949 69.0066 126.459 69.6067 126.459C69.7957 126.459 69.9765 126.41 70.1574 126.303C70.1574 126.311 70.1656 126.319 70.1656 126.319C70.2478 126.278 70.3382 126.237 70.4204 126.163C71.0204 127.528 70.593 128.514 69.9683 128.867C69.8204 128.95 69.6067 128.999 69.3601 128.999C68.9491 128.999 68.4477 128.867 68.0367 128.555C68.4395 130.528 70.0998 131.687 72.0479 132.698C73.0014 133.199 74.5467 133.618 75.8782 133.618C77.1276 133.618 78.1962 133.24 78.4263 132.196C79.8072 133.659 79.0017 135.936 77.0126 136.109C78.7962 138.188 79.6757 141.049 76.7988 143.893C76.2646 141.723 74.8179 140.202 72.1876 138.838C68.9244 137.153 67.7819 134.49 67.3463 130.996C67.1161 131.991 66.8531 132.887 66.7956 133.988C66.7462 136.035 67.1654 138.624 68.8833 140.794C68.6121 142.397 67.0093 145.997 65.5133 147.855C64.0173 145.997 62.4063 142.397 62.135 140.794C63.8529 138.624 64.2803 136.035 64.231 133.988C64.1735 132.887 63.9105 131.991 63.6803 130.996C63.2365 134.49 62.1021 137.153 58.839 138.838C56.2087 140.194 54.762 141.715 54.2195 143.893C51.3509 141.049 52.2222 138.18 54.014 136.109C52.0249 135.928 51.2276 133.659 52.6003 132.196C52.8222 133.248 53.8907 133.618 55.1401 133.618C56.4717 133.618 58.0088 133.191 58.9705 132.698C60.9103 131.687 62.5789 130.528 62.9816 128.555C62.5707 128.876 62.0693 128.999 61.6583 128.999C61.4117 128.999 61.198 128.95 61.05 128.867C60.4171 128.514 59.9979 127.528 60.5897 126.163C60.6801 126.229 60.7623 126.27 60.8528 126.319C60.861 126.319 60.861 126.311 60.861 126.303C61.0336 126.41 61.2226 126.459 61.4035 126.459C62.0035 126.459 62.6035 125.949 62.9323 125.218C63.7296 123.434 64.0173 119.908 64.042 116.472C63.2118 121.692 60.8281 125.974 56.4388 128.629C52.592 130.955 50.1837 131.391 47.1178 133.15C44.7834 134.481 42.7038 136.249 43.2956 139.808C39.3667 137.58 39.3256 132.763 40.016 130.799C40.9695 128.07 42.6052 126.319 44.5615 125.292C41.7832 124.922 41.6106 120.993 44.282 120.015C43.9696 122.037 45.9752 122.916 48.5644 122.916C50.6029 122.916 53.0195 122.366 54.9428 121.404C58.6663 119.546 61.0418 117.458 62.7761 113.151C62.7761 113.16 62.7679 113.16 62.7679 113.168C60.6884 117.327 56.2333 119.456 53.3729 119.456C53.0441 119.456 52.7318 119.431 52.4523 119.374C52.7482 118.461 54.573 116.9 55.8141 116.176C55.0826 116.004 54.4086 115.831 54.014 115.141C53.1921 113.719 54.4825 112.157 56.1183 112.157C56.258 112.157 56.3977 112.165 56.5457 112.19C55.0086 113.102 55.8223 114.582 56.8416 114.598C56.8416 114.598 56.8416 114.598 56.8498 114.598C58.9869 114.598 60.6555 111.787 60.6555 109.938C60.6144 109.929 60.5897 109.905 60.5569 109.896C58.1321 111.557 55.3292 110.916 53.5455 111.236C51.918 111.532 50.5536 112.477 50.1179 113.242C49.633 114.097 49.7069 114.647 49.9207 115.256C50.1508 115.864 50.8988 116.521 52.2797 116.521C51.6139 117.245 50.4385 117.754 49.3042 117.754C48.8768 117.754 48.4493 117.68 48.063 117.516C46.8054 116.99 45.8519 115.305 46.8712 113.867C44.1834 114.549 42.8189 116.02 42.1778 118.1C41.4709 117.943 40.8708 116.727 41.29 116.004C41.0024 116.143 40.7311 116.3 40.4681 116.431C37.6405 117.845 36.2268 118.839 35.9308 119.505C35.6843 120.072 36.1363 120.771 36.7282 120.771C36.8432 120.771 36.9665 120.746 37.0898 120.689C37.2542 120.607 37.4268 120.574 37.6077 120.574C38.2323 120.574 38.8488 121.009 38.9968 121.387C39.1858 121.881 39.2434 122.029 39.5475 122.209C41.4627 123.368 40.2462 125.522 40.2462 125.522C40.2462 125.522 40.1557 124.708 39.4571 124.133C39.1447 123.878 38.9228 123.788 38.742 123.788C38.331 123.788 38.1666 124.297 37.6734 124.445C37.583 124.47 37.4926 124.486 37.3857 124.486C36.7117 124.486 35.8651 123.919 35.7829 123.541C35.7007 123.105 35.6021 122.908 35.0431 122.563C34.6239 122.308 34.2047 122.152 34.2047 122.152C33.9992 122.061 33.7526 121.987 33.4978 121.987C33.0704 121.987 32.6266 122.193 32.3553 122.875C31.9525 123.878 30.5552 124.421 30.5552 124.421C30.3497 125.021 30.0292 125.341 29.7826 125.473C29.536 125.612 29.2072 125.785 29.3551 126.508C29.536 127.363 28.6976 128.045 27.3824 128.078C26.355 128.086 26.9879 130.15 26.9879 130.15C26.1084 129.944 25.3768 129.352 25.3357 128.202C25.3111 127.232 25.8865 126.673 25.8865 126.673C25.8865 126.673 25.4919 126.319 25.8782 125.497C26.2892 124.626 27.1687 124.7 27.9907 124.421C28.5414 124.231 28.9853 123.188 28.7551 123.015C28.6647 122.933 28.5825 122.9 28.4839 122.9C28.2291 122.9 27.8921 123.163 27.0701 123.451C25.9522 123.845 25.3604 123.829 25.1056 125.021C24.9412 125.843 23.9795 126.089 23.5274 126.089C23.511 126.089 23.4863 126.089 23.4699 126.089C22.6315 126.04 22.2287 125.259 22.2287 125.259C22.163 125.251 22.1054 125.242 22.0479 125.242C21.0204 125.242 20.9465 126.845 20.9465 126.845C20.9465 126.845 20.0834 125.547 20.3382 124.593C20.6177 123.64 21.6123 123.303 21.6123 123.303C21.5383 122.538 22.0232 121.774 22.8699 121.593C23.0096 121.56 23.1411 121.552 23.2726 121.552C24.0864 121.552 24.6371 122.078 24.6371 122.078C25.2782 122.029 26.2563 121.708 27.103 121.412C27.9414 121.116 27.8921 120.623 27.4318 120.368C27.3742 120.335 27.3249 120.327 27.2674 120.327C26.8646 120.327 26.3796 121.018 25.3768 121.067C25.344 121.067 25.3111 121.067 25.2864 121.067C24.2836 121.067 24.0617 120.376 23.9466 119.974C23.8562 119.645 23.6672 119.563 23.3055 119.563C23.2069 119.563 23.1 119.571 22.9767 119.579C22.2945 119.62 22.0808 120.787 22.0808 120.787C22.0808 120.787 21.415 119.842 21.8835 118.724C22.2205 117.919 23.1164 117.812 23.585 117.812C23.7658 117.812 23.8809 117.828 23.8809 117.828L24.448 117.631C24.7522 117.524 25.0481 117.475 25.3275 117.475C26.2152 117.475 26.9715 117.976 27.366 118.733C27.4811 118.954 27.8756 119.045 28.4017 119.045C29.873 119.045 32.3389 118.354 32.3142 118.132C32.38 117.163 34.1143 117.023 35.5856 116.513C36.498 116.209 38.2652 115.28 40.2051 114.187C40.1064 114.204 40.016 114.212 39.9174 114.212C39.0625 114.212 38.3803 113.636 38.3967 112.823C38.5447 112.839 38.7009 112.847 38.857 112.847C40.4927 112.847 42.7778 111.91 44.0518 110.357C43.7642 110.505 43.4765 110.57 43.2134 110.57C41.7503 110.57 40.8791 108.524 42.6627 106.839C42.5476 107.981 43.1806 108.45 43.8792 108.45C44.2327 108.45 44.6026 108.335 44.9067 108.121C46.0985 107.315 47.3315 105.071 47.6767 102.655C47.2739 102.162 46.9123 101.652 46.5999 101.126C42.7942 106.411 34.6157 113.998 25.7714 113.998C24.2097 113.998 22.6233 113.76 21.0369 113.234C28.4345 109.354 36.309 102.178 41.1832 96.0217C40.0818 97.1971 38.8735 98.2574 37.6323 99.2684C34.328 102.022 30.6867 104.274 26.9961 106.403L26.9386 106.313C30.4566 103.921 33.9335 101.447 37.0569 98.6026C38.6187 97.1724 40.0242 95.6107 41.438 94.0572C42.3915 93.0297 43.3039 91.9447 44.1916 90.8433C44.1916 90.8104 44.1916 90.7529 44.1834 90.7118C36.9008 98.8081 25.8947 106.674 17.2065 106.674C14.8064 106.674 12.5789 106.074 10.6555 104.71C16.5325 101.94 27.4482 95.5614 34.6321 88.3774C33.3581 89.4049 32.0101 90.3419 30.6374 91.2132C26.3385 93.9832 21.6369 96.0217 16.7873 97.5012L16.7545 97.3861C21.4807 95.6107 26.0344 93.3585 30.1525 90.4899C32.2074 89.0432 34.0979 87.3911 35.9637 85.7472C37.509 84.4238 38.9392 82.9854 40.3777 81.5387C40.4681 81.4072 40.5667 81.2839 40.6489 81.1606C33.8924 87.276 23.2069 93.8353 14.5516 93.8353C11.2062 93.8353 8.16494 92.8571 5.76481 90.4899C16.0476 87.3993 24.3576 83.8977 31.3032 78.0289C29.5278 79.1961 27.6044 80.1331 25.6399 80.9304C23.3384 81.8757 20.9547 82.5908 18.5381 83.1251C16.1133 83.6429 13.6721 83.9799 11.2144 84.2183L11.198 84.1032C16.0558 83.3388 20.8643 82.1798 25.2946 80.1414C27.4975 79.1139 29.5606 77.8234 31.6073 76.5165C33.1773 75.5466 34.6732 74.4698 36.1939 73.3931C36.2925 73.278 36.3994 73.1793 36.498 73.0725C29.0099 77.7659 21.6945 79.8783 15.6695 79.8783C9.30747 79.8783 4.36747 77.5193 2.17283 73.3684C2.55094 73.3931 2.9537 73.4013 3.38112 73.4013C9.80065 73.4013 21.6862 70.8203 29.051 67.442C28.8127 67.5078 28.5578 67.5982 28.3195 67.6722C26.207 68.264 24.0124 68.5106 21.8342 68.6585C20.6834 68.7407 19.5245 68.7901 18.3655 68.7901C15.1516 68.7901 11.9542 68.4448 8.85539 67.6804L8.87183 67.5653C11.0007 67.9434 13.1543 68.116 15.3078 68.1325C15.5708 68.1407 15.8339 68.1407 16.0969 68.1407C17.9874 68.1407 19.8779 68.0174 21.7355 67.7873C23.8727 67.5078 25.9522 67.0393 28.0482 66.6036C29.5195 66.3242 30.958 65.9543 32.4211 65.568C29.9716 65.8556 27.6208 65.9954 25.4015 65.9954C14.2228 65.9954 6.3895 62.3377 5.11546 54.5783C10.376 56.4277 17.9874 57.3566 24.4891 57.3566C26.1166 57.3566 27.6783 57.299 29.1086 57.1839C28.8291 57.1593 28.5661 57.1428 28.2948 57.11C26.3879 56.888 24.5384 56.3209 22.7301 55.6797C19.1135 54.4304 15.7352 52.5727 12.7433 50.2466L12.7926 50.1397C15.9572 52.2028 19.4012 53.7975 22.9849 54.8331C24.7768 55.351 26.618 55.6551 28.451 56.0168C29.799 56.288 31.1552 56.5017 32.5279 56.7236C32.5444 56.7236 32.5772 56.7154 32.5937 56.7154C23.2069 53.5262 13.3597 47.1396 15.9489 36.0759C18.0203 39.4049 21.6862 41.8379 25.6317 43.6544C24.8343 42.8243 24.7357 40.6707 25.9769 39.3638C26.4701 42.8571 30.3579 45.1915 34.0075 46.5231C34.5006 46.6957 34.9774 46.8519 35.4623 47.0163C33.8924 46.1532 33.1855 43.712 35.5774 41.7475C35.4952 44.8627 38.9392 47.3122 42.5065 48.8657C43.271 49.1945 44.0929 49.5726 44.8656 49.926C47.3808 51.0357 49.2055 52.4659 50.496 53.9947C51.7043 55.4332 52.477 57.2086 51.2769 58.7292C50.0686 60.2499 47.9233 59.806 45.4574 60.4965C42.4408 61.3431 41.1257 63.0939 42.1531 64.5816C42.2928 64.1131 42.8518 63.6774 43.1148 63.4555C43.5093 63.1185 43.9285 62.8308 44.3066 62.6171C46.2794 61.4499 49.6576 60.7513 53.1921 60.3074C55.0333 58.9676 55.3292 57.0113 55.3785 56.0743C55.3127 56.0825 55.2552 56.0825 55.1894 56.0825C53.6935 56.0825 52.7811 54.7756 52.7811 53.6413C52.8879 53.6495 52.9866 53.6577 53.077 53.6577C54.6552 53.6577 55.0333 52.4659 55.2552 51.0357C55.3949 50.1315 55.51 49.515 55.7977 48.2903C55.4196 48.4958 55.0497 48.5862 54.6963 48.5862C53.2249 48.5862 52.1071 46.9834 52.477 45.2573C52.9619 45.5367 53.4304 45.66 53.8743 45.66C55.1072 45.66 56.1347 44.6654 56.858 43.227C57.5485 41.8626 58.0334 41.0735 58.8801 40.1447C58.4115 40.3419 57.9266 40.4406 57.4498 40.4406C55.2305 40.4406 53.266 38.4185 54.5894 35.9691C54.7374 36.8815 55.4031 37.202 56.3237 37.202C58.2882 37.202 61.4199 35.7554 63.2118 35.4512C64.5269 35.2293 66.0969 34.8759 68.1518 34.8759ZM70.7574 38.1226C71.2917 38.1226 71.7355 37.876 71.8424 37.3829C71.9246 36.8732 70.856 36.7253 69.5245 36.7253C68.7518 36.7253 67.897 36.7746 67.1243 36.8321C68.16 36.939 68.7518 37.0376 69.2368 37.4897C69.6889 37.9089 70.2642 38.1226 70.7574 38.1226ZM86.4487 56.2716L87.509 56.0414C88.109 55.9099 88.7173 55.8524 89.3256 55.8524C89.9585 55.8524 90.5914 55.9263 91.1832 56.0743C92.3422 56.3702 93.3614 57.0771 93.8381 58.1128C94.0929 58.6306 94.1833 59.1895 94.2491 59.8553C94.3231 60.4554 94.3231 61.1047 94.2491 61.713C94.1258 62.9623 93.7066 64.1706 93.1723 65.3543C92.0956 67.7379 90.7969 70.0394 89.6872 72.456C88.5776 74.8726 87.92 77.5111 87.7803 80.1578L87.8871 80.166C88.183 77.544 88.9885 75.0123 90.1968 72.6944C91.3969 70.3682 92.8189 68.1243 93.9532 65.7077C95.1533 63.3404 95.8437 60.406 94.8409 57.636C94.5368 56.9538 94.0436 56.3373 93.4354 55.8935C92.8353 55.4414 92.1449 55.1701 91.4462 54.9975C90.8873 54.8578 90.3283 54.8002 89.7612 54.8002C89.3338 54.8002 88.8981 54.8331 88.4789 54.8989C88.8653 54.4632 89.3173 54.0769 89.7941 53.7153C90.5914 53.1152 91.4791 52.5809 92.3833 52.1042C94.208 51.1672 96.1232 50.3863 98.0877 49.6959L98.0548 49.589C96.041 50.074 94.0354 50.6904 92.112 51.5535C91.1585 51.9809 90.2133 52.4659 89.3173 53.0659C88.4378 53.6659 87.583 54.3728 86.983 55.3674L86.4487 56.2716ZM42.4737 54.9071C42.0545 54.8496 41.6271 54.8085 41.1914 54.8085C40.6325 54.8085 40.0653 54.866 39.5064 55.0057C38.8077 55.1701 38.1173 55.4496 37.509 55.9017C36.909 56.3455 36.4158 56.962 36.1117 57.6442C35.1007 60.4143 35.7993 63.3487 36.9912 65.7159C38.1337 68.1325 39.5557 70.3764 40.7476 72.7026C41.9558 75.0123 42.7696 77.544 43.0655 80.1742L43.1723 80.166C43.0326 77.5193 42.3833 74.889 41.2654 72.4642C40.1475 70.0477 38.8488 67.7462 37.772 65.3625C37.2378 64.1788 36.8268 62.9706 36.6953 61.7212C36.6295 61.1129 36.6213 60.4636 36.6953 59.8635C36.7692 59.206 36.8597 58.647 37.1063 58.121C37.5912 57.0853 38.6022 56.3866 39.7776 56.0825C40.3777 55.9346 41.0024 55.8606 41.6435 55.8606C42.2517 55.8606 42.86 55.9263 43.46 56.0496L44.5286 56.2798L43.9779 55.3674C43.3696 54.3728 42.523 53.6659 41.6353 53.0659C40.7393 52.4741 39.8023 51.9891 38.8406 51.5535C36.9254 50.6987 34.9198 50.074 32.906 49.589L32.8731 49.6959C34.8294 50.3863 36.7528 51.1672 38.5776 52.1042C39.4817 52.5892 40.3612 53.1152 41.1668 53.7153C41.6353 54.0769 42.0791 54.4715 42.4737 54.9071ZM68.1518 32.7634V34.8183V32.7634C66.212 32.7634 64.6667 33.0429 63.4337 33.273C63.2365 33.3059 63.0392 33.347 62.8501 33.3799C61.9953 33.5279 60.9925 33.8484 59.9322 34.1936C58.7896 34.5717 57.3759 35.0238 56.5046 35.0896C56.2169 34.4649 55.6415 34.0128 54.9346 33.8895C54.8196 33.8731 54.6963 33.8566 54.5812 33.8566C53.8085 33.8566 53.0934 34.2758 52.7153 34.9663C51.8112 36.6431 51.8112 38.4678 52.7071 39.9803C53.2496 40.8926 54.088 41.6077 55.0661 42.0516C55.025 42.1256 54.9922 42.1996 54.9511 42.2818C54.4661 43.2435 54.0058 43.5476 53.8579 43.5476C53.825 43.5476 53.7181 43.5394 53.5126 43.4243C53.1921 43.2352 52.8304 43.1448 52.4605 43.1448C52.1646 43.1448 51.8687 43.2024 51.5975 43.3339C50.981 43.6133 50.5289 44.1641 50.3892 44.8298C50.0686 46.3423 50.4303 47.9451 51.3673 49.0958C51.8687 49.7123 52.4934 50.1726 53.1921 50.4356C53.1756 50.5343 53.1592 50.6329 53.1428 50.7315C53.077 51.159 53.0112 51.4055 52.9619 51.5535C52.9537 51.5535 52.9455 51.5535 52.9373 51.5535C52.8797 51.5453 52.814 51.5453 52.7564 51.5453C52.2961 51.5453 51.8523 51.6932 51.4824 51.9727C49.9453 50.3534 48.0055 49.0301 45.6958 48.0108L45.1779 47.7725C44.5615 47.493 43.9203 47.1971 43.3039 46.9341C39.7941 45.4052 37.6241 43.4407 37.6652 41.8215C37.6898 40.9913 37.2213 40.2268 36.4733 39.8652C36.1774 39.7172 35.8569 39.6515 35.5445 39.6515C35.0596 39.6515 34.5828 39.8159 34.1965 40.1364C33.0704 41.0653 32.3307 42.1749 32.0265 43.3667C30.21 42.3886 28.303 40.9502 28.04 39.0843C27.9249 38.2788 27.3578 37.613 26.5851 37.3664C26.3714 37.3007 26.1577 37.2678 25.944 37.2678C25.3686 37.2678 24.8097 37.4979 24.4069 37.9254C23.8233 38.5418 23.4206 39.2569 23.174 39.9967C20.6752 38.4678 18.8422 36.791 17.7162 34.9745C17.3216 34.3498 16.6394 33.9799 15.9161 33.9799C15.801 33.9799 15.6859 33.9882 15.5708 34.0046C14.7242 34.1443 14.0502 34.7772 13.8529 35.6074C12.5296 41.2625 14.0173 46.4984 18.16 50.7644C16.7051 50.074 15.2831 49.2767 13.9187 48.3807C13.5652 48.1506 13.1625 48.0355 12.7679 48.0355C12.0939 48.0355 11.4281 48.3561 11.0172 48.9561L10.9514 49.0465C10.3185 49.9753 10.5158 51.2329 11.4035 51.9152C12.7104 52.9262 14.0749 53.855 15.4886 54.677C11.8062 54.2167 8.40331 53.4933 5.78125 52.5727C5.5511 52.4905 5.31273 52.4494 5.08258 52.4494C4.5894 52.4494 4.11267 52.6221 3.71812 52.9426C3.14275 53.4194 2.8715 54.1673 2.98658 54.9071C3.81676 59.9704 6.96488 63.6775 12.1268 65.8474C11.124 65.757 10.1459 65.6255 9.1924 65.4611C9.0691 65.4365 8.94581 65.4282 8.82251 65.4282C8.38687 65.4282 7.95945 65.5597 7.59779 65.8146C7.13749 66.1433 6.82514 66.6365 6.72651 67.1954L6.71007 67.3105C6.52924 68.4037 7.21969 69.4476 8.28824 69.7189C9.35679 69.9819 10.4418 70.2038 11.5596 70.3764C8.36221 70.9518 5.45247 71.2724 3.32358 71.2724C2.93726 71.2724 2.5756 71.2642 2.24681 71.2395C2.20571 71.2395 2.15639 71.2395 2.1153 71.2313C1.40019 71.2313 0.726179 71.5929 0.339857 72.2012C-0.0793443 72.8423 -0.112223 73.6643 0.249441 74.3383C2.40298 78.407 6.68541 81.0291 12.2583 81.7606C11.7816 81.8428 11.3048 81.925 10.8117 81.999C10.2527 82.0894 9.75955 82.3935 9.43077 82.8456C9.10198 83.2977 8.96225 83.8731 9.05266 84.4238L9.0691 84.5389C9.23349 85.5745 10.1294 86.3225 11.1569 86.3225C11.2226 86.3225 11.2884 86.3225 11.3542 86.3143C11.4775 86.3061 11.6007 86.2896 11.724 86.2814C9.67735 87.0212 7.47449 87.7445 5.09902 88.4596C4.38391 88.6733 3.8332 89.2487 3.65237 89.9803C3.47153 90.7036 3.68525 91.4762 4.21952 91.9941C6.88268 94.6161 10.3349 95.9477 14.4941 95.9477C14.716 95.9477 14.9379 95.9477 15.1598 95.9395C14.6749 96.4573 14.4612 97.2053 14.6584 97.9369L14.6913 98.0519C14.8393 98.6109 15.2092 99.0794 15.7106 99.3589C15.7928 99.4082 15.875 99.441 15.9654 99.4821C13.4584 100.929 11.2637 102.071 9.70201 102.803C9.01978 103.123 8.55949 103.781 8.49373 104.529C8.42797 105.277 8.76498 106.009 9.38145 106.444C11.5843 108.006 14.1982 108.795 17.1572 108.795C19.6971 108.795 22.3356 108.22 24.9823 107.233C25.0234 107.324 25.0727 107.406 25.1303 107.488L25.1878 107.578C25.2782 107.71 25.3768 107.833 25.4919 107.94C23.6836 109.231 21.8342 110.398 20.0094 111.36C19.2614 111.754 18.8176 112.56 18.8833 113.406C18.9491 114.253 19.5163 114.976 20.3218 115.247C21.0287 115.486 21.752 115.675 22.4835 115.815C21.2835 116.086 20.3547 116.826 19.8944 117.911C19.3601 119.176 19.5327 120.434 19.9354 121.338C19.8204 121.552 19.7217 121.766 19.6478 122.004C19.0642 122.472 18.5381 123.138 18.2833 124.001C17.7901 125.777 18.834 127.528 19.1628 128.021C19.5656 128.621 20.2314 128.966 20.9218 128.966C21.1109 128.966 21.2999 128.941 21.489 128.892C21.9575 128.76 22.3602 128.473 22.6315 128.095C22.8041 128.144 22.9932 128.177 23.1822 128.193C23.1822 128.21 23.1822 128.226 23.1822 128.243C23.2397 130.24 24.5056 131.761 26.4783 132.204C26.6344 132.237 26.7906 132.254 26.9468 132.254C27.5304 132.254 28.0893 132.015 28.5003 131.58C28.9277 131.119 29.125 130.495 29.051 129.878C29.7497 129.624 30.3415 129.221 30.7689 128.686C31.2128 128.128 31.4512 127.478 31.4676 126.796C31.7142 126.558 31.9279 126.286 32.1169 125.974C32.6594 125.662 33.3417 125.168 33.8431 124.462C34.4102 125.736 36.0377 126.59 37.3528 126.59C37.657 126.59 37.9529 126.549 38.2241 126.467C38.3967 126.927 38.7502 127.289 39.2105 127.511C38.7337 128.292 38.331 129.155 38.0022 130.092C36.9172 133.158 37.509 138.961 42.2353 141.641C42.5641 141.821 42.9175 141.92 43.2792 141.92C43.7066 141.92 44.1258 141.789 44.4957 141.542C45.1615 141.073 45.5067 140.26 45.367 139.454C45.0382 137.481 45.7369 136.355 48.1452 134.983C48.6959 134.662 49.2384 134.391 49.7727 134.144C49.7974 134.58 49.8878 135.016 50.0522 135.443C50.2577 135.986 50.57 136.47 50.9563 136.881C49.5426 139.799 50.1344 142.865 52.7071 145.422C53.1099 145.816 53.6441 146.038 54.1949 146.038C54.3839 146.038 54.5812 146.013 54.7702 145.956C55.5018 145.75 56.0689 145.167 56.2498 144.427C56.521 143.326 57.1375 142.117 59.7842 140.753C59.8582 140.712 59.9322 140.679 59.9979 140.638C59.9815 140.819 59.9897 140.999 60.0226 141.18C60.3514 143.112 62.0939 147.041 63.8447 149.211C64.2475 149.712 64.8557 150 65.4886 150C66.1298 150 66.738 149.712 67.1326 149.211C68.8833 147.041 70.6259 143.112 70.9465 141.172C70.9793 140.991 70.9793 140.81 70.9629 140.63C71.0369 140.671 71.1109 140.712 71.1848 140.745C73.8233 142.109 74.4398 143.317 74.7111 144.427C74.8919 145.167 75.459 145.75 76.1906 145.956C76.3796 146.005 76.5687 146.038 76.766 146.038C77.3167 146.038 77.851 145.824 78.2537 145.422C80.8265 142.874 81.4183 139.808 80.0045 136.881C80.3908 136.47 80.7032 135.986 80.9087 135.443C81.0648 135.024 81.1635 134.588 81.1881 134.153C81.7224 134.399 82.2567 134.679 82.8074 134.991C85.224 136.372 85.9226 137.498 85.5856 139.454C85.4459 140.26 85.7911 141.073 86.4569 141.542C86.8186 141.797 87.246 141.928 87.6734 141.928C88.0351 141.928 88.3967 141.838 88.7173 141.649C93.4436 138.961 94.0354 133.166 92.9422 130.092C92.6134 129.155 92.2106 128.292 91.7339 127.511C92.186 127.289 92.5312 126.927 92.712 126.467H92.7203C92.9833 126.549 93.2874 126.59 93.5998 126.59C94.9149 126.59 96.5424 125.736 97.1095 124.462C97.6109 125.177 98.3014 125.67 98.8439 125.982C99.0329 126.286 99.2466 126.566 99.485 126.796C99.5014 127.47 99.7316 128.119 100.175 128.678C100.603 129.221 101.203 129.624 101.91 129.878C101.836 130.495 102.041 131.119 102.469 131.58C102.871 132.007 103.439 132.246 104.014 132.246C104.17 132.246 104.326 132.229 104.483 132.196C106.455 131.744 107.713 130.224 107.754 128.234C107.754 128.218 107.754 128.202 107.754 128.185C107.943 128.169 108.132 128.136 108.305 128.086C108.584 128.473 108.987 128.76 109.472 128.892C109.653 128.941 109.842 128.966 110.023 128.966C110.721 128.966 111.395 128.613 111.798 128.004C112.127 127.511 113.154 125.76 112.661 124.018C112.414 123.138 111.88 122.464 111.297 121.996C111.223 121.766 111.124 121.552 111.009 121.346C111.403 120.434 111.584 119.176 111.042 117.911C110.59 116.834 109.653 116.094 108.461 115.823C109.192 115.683 109.916 115.494 110.623 115.256C111.428 114.984 111.995 114.261 112.061 113.414C112.127 112.568 111.683 111.762 110.935 111.368C109.102 110.406 107.261 109.247 105.452 107.957C105.551 107.866 105.642 107.759 105.715 107.652L105.781 107.562C105.847 107.463 105.913 107.365 105.962 107.258C108.601 108.244 111.239 108.82 113.779 108.82C116.738 108.82 119.352 108.031 121.555 106.469C122.171 106.033 122.508 105.302 122.442 104.554C122.377 103.806 121.916 103.148 121.234 102.828C119.672 102.096 117.478 100.953 114.971 99.4986C115.53 99.2767 115.998 98.8164 116.204 98.1999L116.245 98.0848C116.5 97.3204 116.294 96.5149 115.776 95.9641C115.998 95.9724 116.22 95.9724 116.442 95.9724C120.601 95.9724 124.053 94.6408 126.717 92.0187C127.251 91.4927 127.465 90.7282 127.284 90.0049C127.103 89.2816 126.552 88.698 125.837 88.4843C123.462 87.7692 121.259 87.0459 119.212 86.3061C119.335 86.3143 119.45 86.3307 119.574 86.339C119.64 86.3472 119.705 86.3472 119.779 86.3472C120.856 86.3472 121.777 85.5334 121.883 84.4402L121.892 84.3252C122.007 83.2073 121.226 82.1963 120.116 82.0237C119.623 81.9497 119.146 81.8675 118.67 81.7853C124.243 81.0455 128.533 78.4317 130.678 74.363C131.04 73.689 130.999 72.867 130.588 72.2259C130.194 71.6176 129.528 71.2559 128.813 71.2559C128.772 71.2559 128.722 71.2559 128.681 71.2559C128.352 71.2806 127.991 71.2888 127.604 71.2888C125.484 71.2888 122.574 70.9683 119.377 70.3929C120.486 70.2203 121.579 69.9983 122.648 69.7353C123.749 69.4641 124.44 68.3709 124.218 67.2612L124.193 67.1461C123.996 66.1433 123.108 65.4447 122.122 65.4447C121.999 65.4447 121.875 65.4529 121.744 65.4776C120.807 65.6419 119.829 65.7735 118.818 65.8639C123.971 63.6939 127.119 59.9868 127.95 54.9235C128.073 54.1838 127.793 53.4358 127.218 52.9591C126.832 52.6303 126.347 52.4659 125.854 52.4659C125.615 52.4659 125.385 52.507 125.155 52.5892C122.525 53.5098 119.122 54.2331 115.439 54.6934C116.853 53.8714 118.218 52.9508 119.524 51.9316C120.429 51.2329 120.609 49.9342 119.944 49.0136L119.878 48.9232C119.467 48.3561 118.818 48.0519 118.16 48.0519C117.765 48.0519 117.363 48.167 117.001 48.3972C115.628 49.2931 114.215 50.0904 112.76 50.7809C116.902 46.5149 118.39 41.2707 117.067 35.6239C116.87 34.7937 116.196 34.1608 115.349 34.0128C115.234 33.9964 115.119 33.9882 115.004 33.9882C114.28 33.9882 113.598 34.358 113.204 34.9827C112.069 36.7993 110.236 38.4843 107.746 40.0049C107.499 39.2569 107.096 38.5418 106.513 37.9336C106.11 37.5062 105.551 37.276 104.976 37.276C104.762 37.276 104.54 37.3089 104.335 37.3746C103.562 37.6212 102.995 38.287 102.88 39.0925C102.617 40.9502 100.71 42.3968 98.885 43.375C98.5808 42.1831 97.8411 41.0735 96.7068 40.1447C96.3205 39.8241 95.8437 39.6679 95.367 39.6679C95.0464 39.6679 94.7341 39.7419 94.4382 39.8816C93.6902 40.2433 93.2299 41.0077 93.2545 41.8379C93.2956 43.4572 91.1339 45.4217 87.5994 46.9587C86.9254 47.2464 86.2021 47.5834 85.5034 47.904L85.2075 48.0437C82.6019 49.1945 80.4483 50.7562 78.8373 52.6796C76.9632 54.9153 76.7742 56.7976 77.0865 58.1456C76.6098 58.0963 76.1248 58.047 75.6234 57.9977C75.4755 57.858 75.3275 57.7182 75.1796 57.5949C75.4837 57.1264 75.681 56.5839 75.7549 56.0003C76.018 53.8797 74.6453 51.7919 73.1658 50.6576C72.7877 50.3699 72.3356 50.2219 71.8835 50.2219C71.5794 50.2219 71.2753 50.2877 70.9876 50.4192C70.2725 50.7562 69.8039 51.4549 69.7711 52.2439C69.7628 52.3426 69.7628 52.4248 69.7546 52.4988C69.2779 52.4823 69.0642 52.3179 68.9162 51.8905C68.4888 50.6411 69.0642 49.2273 69.4094 49.0876C69.8697 48.9068 70.404 48.8081 71.004 48.8081C71.5876 48.8081 72.1054 48.8986 72.4424 48.9643C73.3548 49.1451 75.0727 49.8274 75.459 50.1233C75.8454 50.4274 76.3139 50.5918 76.7824 50.5918C77.1194 50.5918 77.4564 50.5096 77.7605 50.3534C78.2866 50.0822 78.6565 49.6054 78.8126 49.0629C79.0675 49.1123 79.3305 49.1534 79.6017 49.1698C79.8565 49.1862 80.1196 49.2027 80.3662 49.2027C82.3964 49.2027 84.1225 48.5122 85.2157 47.2629C86.1199 46.2354 86.5391 44.8709 86.3665 43.5311C86.087 41.4023 84.3198 39.709 82.2567 39.5528C82.1252 39.1665 81.9443 38.7966 81.7224 38.4596C80.4566 36.4951 78.0647 35.7143 75.6728 35.3033C74.9987 34.1772 73.8644 33.5196 72.1219 33.1826C70.7574 32.8867 69.4587 32.7634 68.1518 32.7634ZM27.6126 116.012C30.4566 115.716 33.3499 114.762 36.2596 113.151C36.2761 113.373 36.3254 113.595 36.3829 113.809C35.4788 114.261 35.0513 114.434 34.8705 114.491C34.5499 114.598 34.2129 114.688 33.8595 114.787C32.8814 115.05 31.4265 115.445 30.6621 116.521C30.1114 116.678 29.2894 116.85 28.6483 116.9C28.3441 116.554 27.9989 116.25 27.6126 116.012ZM94.5861 113.817C94.6519 113.603 94.693 113.382 94.7094 113.16C97.6192 114.771 100.504 115.724 103.356 116.012C102.97 116.25 102.625 116.554 102.321 116.908C101.688 116.867 100.858 116.686 100.307 116.53C99.5508 115.445 98.0877 115.058 97.1095 114.795C96.7643 114.705 96.4109 114.606 96.1067 114.508C95.9177 114.434 95.4821 114.261 94.5861 113.817ZM81.6977 119.85C82.4293 119.85 83.1197 119.719 83.7526 119.456C84.739 119.045 85.5856 118.272 86.1035 117.327C86.2432 117.5 86.3583 117.689 86.4733 117.894C86.0706 117.935 85.6843 118.1 85.3637 118.363C84.7801 118.839 84.5006 119.587 84.6075 120.327C84.6075 120.344 84.6075 120.352 84.6157 120.36C84.4349 120.492 83.7855 120.787 82.4293 120.787C81.7471 120.787 81.0073 120.713 80.2757 120.574C80.3086 120.524 80.3415 120.483 80.3662 120.434C80.4894 120.228 80.5717 119.998 80.621 119.768C80.9744 119.818 81.3361 119.85 81.6977 119.85ZM44.4957 117.894C44.6026 117.689 44.7258 117.5 44.8574 117.327C45.3834 118.272 46.2218 119.045 47.2164 119.456C47.8411 119.719 48.5398 119.85 49.2713 119.85C49.633 119.85 49.9946 119.818 50.3563 119.752C50.4056 119.982 50.4878 120.212 50.6111 120.418C50.6358 120.467 50.6686 120.516 50.7015 120.557C49.97 120.697 49.2384 120.771 48.548 120.771C47.1917 120.771 46.5424 120.475 46.3533 120.344C46.3533 120.335 46.3533 120.319 46.3616 120.302C46.4766 119.563 46.1889 118.815 45.6054 118.338C45.2848 118.091 44.8985 117.935 44.4957 117.894ZM39.7612 119.16C39.8187 119.127 39.8845 119.094 39.9502 119.053C40.2708 119.431 40.6654 119.735 41.0846 119.941C40.9941 120.081 40.9037 120.22 40.8297 120.368C40.5832 119.9 40.2133 119.489 39.7612 119.16ZM89.8845 119.941C90.3119 119.744 90.6982 119.439 91.0188 119.053C91.0845 119.086 91.1421 119.119 91.1996 119.152C90.7476 119.481 90.3694 119.891 90.1393 120.36C90.0653 120.228 89.9831 120.081 89.8845 119.941ZM55.6744 131.465C56.258 131.161 56.8662 130.815 57.5156 130.429C57.9512 130.166 58.3787 129.887 58.7814 129.591C58.9047 129.78 59.0444 129.952 59.2006 130.108C58.8554 130.33 58.4444 130.569 57.9677 130.815C57.4416 131.087 56.5375 131.374 55.6744 131.465ZM71.7684 130.108C71.9164 129.952 72.0643 129.78 72.1876 129.591C72.5904 129.887 73.0178 130.166 73.4535 130.429C74.1028 130.824 74.7111 131.161 75.2946 131.465C74.4398 131.366 73.5274 131.087 73.0096 130.815C72.5246 130.569 72.1136 130.33 71.7684 130.108Z" fill="#041241"/>
<path d="M85.0595 65.3378C82.4785 63.8254 74.6124 62.7897 65.4886 62.7897C56.3484 62.7897 48.4904 63.8172 45.9012 65.3378C44.7011 66.0447 44.7011 66.4228 44.7011 66.6036C44.7011 67.0393 44.8655 67.4914 45.0628 68.0667C45.1532 68.3215 45.2354 68.5763 45.3176 68.8558C45.7039 70.1052 46.1971 73.2287 46.4273 75.8261C46.567 77.396 46.6656 79.4756 46.7807 81.8757C47.052 87.5144 47.4218 95.2408 48.589 98.1341C50.0768 101.825 53.9071 104.422 61.3788 106.822C63.5159 107.505 64.5844 108.746 65.4886 110.34C66.3927 108.746 67.4531 107.505 69.5902 106.822C77.07 104.422 80.8922 101.825 82.3881 98.1341C83.5553 95.2408 83.917 87.5144 84.1965 81.8757C84.3115 79.4756 84.402 77.396 84.5499 75.8261C84.7801 73.2204 85.2814 70.1052 85.6595 68.8558C85.7417 68.5763 85.8404 68.3215 85.9226 68.0667C86.1199 67.4996 86.276 67.0475 86.276 66.6036C86.2678 66.431 86.2678 66.0529 85.0595 65.3378ZM52.8468 68.6092C54.9264 68.6668 56.8333 68.7161 58.5841 68.7161C60.1212 68.7161 61.8144 68.675 63.6474 68.6092V69.9655C62.3651 70.0559 61.6089 70.1463 61.3623 70.2614C61.1157 70.3765 61.0007 70.5655 61.0007 70.8203C61.0007 71.1491 67.0667 85.9362 67.0667 85.9362L69.0312 81.1359C69.5491 81.9743 69.771 83.1826 69.8039 84.3169L69.0395 86.1417C67.9956 88.5172 67.2558 90.4241 66.8037 91.8297H64.4282C64.4282 91.8297 56.3073 72.6862 55.7648 71.5765C55.4606 70.9272 55.2058 70.4833 54.9757 70.3518C54.7455 70.2038 54.0386 70.0641 52.855 69.9655V68.6092H52.8468ZM75.8782 95.5614C74.8425 99.9836 70.0998 101.044 70.0998 101.044C69.0066 101.455 67.7736 101.578 66.4585 101.578C58.6663 101.578 54.3181 95.9888 54.3181 89.0761C54.3181 85.5499 55.7894 82.3771 58.132 80.1003L60.7541 86.339C60.6308 87.2349 60.5568 88.1637 60.5568 89.1336C60.5568 94.8709 62.8994 99.515 66.9681 99.515C70.5437 99.515 72.7876 95.8573 72.7876 91.2954C74.4315 91.6982 76.2892 93.3339 75.8782 95.5614ZM72.3438 86.1746L71.0122 85.8211C71.2259 83.6923 71.0286 78.7851 66.9599 78.7851C66.4667 78.7851 65.9818 78.8673 65.5297 78.9988L64.6173 76.8124C65.316 76.6891 66.0311 76.6151 66.7708 76.6151C70.3299 76.6151 73.289 77.5604 76.0426 79.3441C74.3329 81.3579 72.9931 83.7087 72.3438 86.1746ZM77.9578 69.9737C76.8645 70.0723 76.2152 70.2121 76.0344 70.3765C75.7713 70.5737 75.1302 71.8231 74.1192 74.1164L73.1246 76.459C72.4999 76.2288 71.8506 76.0316 71.193 75.8672C72.3027 73.1054 72.8616 71.4039 72.8616 70.8039C72.8616 70.5408 72.763 70.36 72.5164 70.2532C72.278 70.1463 71.4807 70.0559 70.1162 69.9819V68.6257C72.1218 68.6832 73.4616 68.7325 74.1521 68.7325C74.8672 68.7325 76.133 68.6914 77.966 68.6257V69.9737H77.9578Z" fill="#041241"/>
</svg>
