<svg width="312" height="374" viewBox="0 0 312 374" fill="none" xmlns="http://www.w3.org/2000/svg">
<path d="M-52.063 296.349C-52.063 296.349 -17.023 316.759 18.977 311.939C42.977 308.729 51.087 301.719 51.597 285.979C52.167 268.489 67.467 259.209 85.417 261.409C101.237 263.339 110.897 280.539 105.477 302.369C99.087 328.119 60.637 348.089 11.477 344.899C-37.683 341.699 -77.953 296.849 -77.953 296.849C-77.953 296.849 -82.413 282.709 -52.063 296.349Z" fill="#0482C5" stroke="#3D1063" stroke-width="0.6511" stroke-miterlimit="10" stroke-linejoin="round"/>
<path d="M-77.9429 296.839C-77.9429 296.839 -37.6729 341.699 11.4871 344.889C60.6471 348.089 99.0971 328.119 105.487 302.359C110.907 280.529 101.237 263.339 85.4271 261.399C85.4271 261.399 116.317 266.479 98.1671 305.109C74.2371 356.029 -27.1729 313.739 -47.1129 312.029C-67.0529 310.339 -77.9429 296.839 -77.9429 296.839Z" fill="#243A76" stroke="#041241" stroke-width="1.7" stroke-miterlimit="10" stroke-linecap="round" stroke-linejoin="round"/>
<path d="M68.8371 294.789C68.8371 294.789 66.9971 302.829 60.9671 307.689C54.9371 312.539 50.2671 314.279 44.6771 315.919C40.3871 317.179 37.5971 316.729 38.5871 318.399C39.5671 320.079 47.6371 319.799 61.9971 316.489C80.8271 312.139 88.2571 302.709 92.3671 294.839C101.817 276.759 91.8571 265.159 80.3571 269.589C67.6571 274.479 70.6371 286.809 68.8371 294.789Z" fill="#ABE1FA" stroke="#041241" stroke-width="1.7" stroke-miterlimit="10" stroke-linecap="round" stroke-linejoin="round"/>
<path d="M148.347 398.829C81.2169 414.959 40.5469 410.609 -15.6531 391.969C-71.8531 373.319 -134.723 304.489 -154.423 260.929C-174.113 217.359 -191.483 107.259 -147.013 32.6694L-200.973 29.2994C-200.973 29.2994 -221.853 120.549 -212.663 202.439C-201.943 297.959 -168.423 341.959 -117.593 384.329C-77.353 417.879 -1.83305 446.789 44.3669 453.749C94.067 461.239 147.597 461.609 200.287 443.279C200.287 443.279 260.427 420.949 285.367 387.179C313.497 349.099 319.637 307.519 293.577 288.259C269.457 270.439 247.047 295.219 242.317 323.499C236.687 357.159 203.097 385.669 148.347 398.829Z" fill="#0482C5" stroke="#3D1063" stroke-width="0.6511" stroke-miterlimit="10" stroke-linejoin="round"/>
<path d="M-147.013 32.6694C-191.483 107.259 -174.123 217.369 -154.423 260.929C-134.723 304.499 -71.8529 373.329 -15.6529 391.969C40.5471 410.609 81.2071 414.959 148.347 398.829C203.097 385.679 236.687 357.159 242.317 323.509C247.047 295.229 269.457 270.449 293.577 288.269C305.537 297.109 310.567 309.919 310.097 326.389C310.097 326.389 311.557 310.999 300.457 300.399C293.107 293.379 280.587 292.169 270.227 302.369C248.837 323.429 271.417 342.359 229.327 380.509C193.157 413.289 140.417 425.249 89.3871 430.069C38.3571 434.889 -24.2029 418.979 -76.4529 387.969C-128.693 356.959 -158.483 317.669 -175.753 267.039C-193.003 216.389 -202.003 155.869 -191.023 105.459C-180.043 55.0494 -147.013 32.6694 -147.013 32.6694Z" fill="#243A76" stroke="#041241" stroke-width="1.7" stroke-miterlimit="10" stroke-linecap="round" stroke-linejoin="round"/>
<path d="M-106.953 34.6594C-106.953 34.6594 -136.303 68.1694 -144.623 107.119C-153.653 149.389 -136.603 255.989 -106.263 296.429C-75.923 336.869 2.96701 360.359 34.737 364.709C66.507 369.059 133.217 357.469 154.167 333.849C175.107 310.229 192.987 292.169 195.537 271.949C198.627 247.479 197.377 208.499 169.477 194.439C144.267 181.739 136.737 155.159 160.357 136.719C188.597 114.659 216.697 151.379 235.507 200.969C252.527 245.839 251.207 314.859 207.927 363.369C161.747 415.139 70.337 424.099 32.377 416.479C-5.58298 408.859 -68.593 393.059 -114.333 346.599C-163.503 296.669 -178.943 245.459 -185.563 193.929C-192.183 142.409 -193.203 78.5894 -152.193 32.4294L-106.953 34.6594Z" fill="#0482C5" stroke="#3D1063" stroke-width="0.6511" stroke-miterlimit="10" stroke-linejoin="round"/>
<path d="M185.117 138.379C175.517 139.879 158.827 151.349 161.707 165.369C166.737 189.869 182.237 176.959 199.847 206.519C222.937 245.289 215.477 287.349 203.587 312.379C191.697 337.409 165.107 366.809 112.747 382.809C60.3869 398.819 -9.1131 386.479 -51.4931 365.719C-86.5631 348.539 -145.203 306.559 -166.203 207.279C-187.203 107.999 -141.683 47.8894 -131.463 37.8294C-121.243 27.7694 -106.953 34.6494 -106.953 34.6494C-106.953 34.6494 -136.303 68.1594 -144.623 107.109C-153.653 149.379 -136.603 255.979 -106.263 296.419C-75.9231 336.859 2.9669 360.349 34.7369 364.699C66.5069 369.049 133.217 357.459 154.167 333.839C175.107 310.219 193.627 294.479 196.177 274.259C199.267 249.789 197.377 208.479 169.477 194.429C144.267 181.729 136.737 155.149 160.357 136.709C179.337 121.889 198.237 133.599 214.317 157.919C214.307 157.919 200.437 135.979 185.117 138.379Z" fill="#243A76" stroke="#041241" stroke-width="1.7" stroke-miterlimit="10" stroke-linecap="round" stroke-linejoin="round"/>
<path d="M-41.3431 16.7194C-41.3431 16.7194 -115.033 62.3294 -113.043 149.089C-111.053 235.849 -82.3131 291.089 -37.9531 312.859C6.40692 334.629 68.9869 331.379 109.507 314.759C128.817 306.839 145.267 293.819 144.577 274.039C144.107 260.439 131.597 252.319 143.937 234.379C151.037 224.069 168.947 220.219 180.117 225.009C202.417 234.569 210.977 257.389 195.577 296.639C176.027 346.449 120.707 376.889 39.7069 372.569C-35.8731 368.529 -82.3131 344.219 -117.443 294.729C-150.523 248.149 -168.033 174.369 -155.253 110.609C-140.293 35.9394 -86.3731 7.42937 -86.3731 7.42937L-41.3431 16.7194Z" fill="#0482C5" stroke="#3D1063" stroke-width="0.6511" stroke-miterlimit="10" stroke-linejoin="round"/>
<path d="M180.127 224.989C168.947 220.199 151.037 224.049 143.947 234.359C131.607 252.299 144.117 260.429 144.587 274.019C145.267 293.799 128.827 306.819 109.517 314.739C68.997 331.359 6.41702 334.609 -37.943 312.839C-82.303 291.069 -111.043 235.829 -113.033 149.069C-115.023 62.3094 -41.333 16.6994 -41.333 16.6994C-41.333 16.6994 -48.223 -5.95063 -68.243 9.14937C-88.263 24.2494 -118.583 61.1894 -132.603 113.479C-149.113 175.079 -132.773 212.699 -124.023 238.309C-115.273 263.919 -92.933 300.689 -47.823 322.239C2.48701 346.269 36.407 345.289 83.397 337.199C120.607 330.799 142.757 315.149 152.177 299.759C158.517 289.399 161.767 274.029 154.247 261.999C148.237 252.379 147.947 241.559 156.977 231.679C167.577 220.139 180.127 224.989 180.127 224.989Z" fill="#243A76" stroke="#041241" stroke-width="1.7" stroke-miterlimit="10" stroke-linecap="round" stroke-linejoin="round"/>
<path d="M214.917 168.609C214.917 168.609 199.077 137.639 178.757 148.259C172.537 151.509 163.347 166.029 204.177 184.649C211.677 188.069 217.657 197.089 222.347 208.399C233.297 234.759 230.707 246.239 236.967 244.139C241.517 242.619 236.877 217.249 230.807 202.479C224.917 188.139 223.507 185.069 214.917 168.609Z" fill="#ABE1FA" stroke="#041241" stroke-width="1.7" stroke-miterlimit="10" stroke-linecap="round" stroke-linejoin="round"/>
<path d="M182.237 232.859C182.237 232.859 200.297 242.319 197.807 267.389C195.037 295.219 184.927 302.609 179.727 299.999C175.147 297.699 185.107 281.509 181.077 270.199C176.657 257.769 162.177 261.839 159.887 249.259C158.137 239.639 167.907 225.579 182.237 232.859Z" fill="#ABE1FA" stroke="#041241" stroke-width="1.7" stroke-miterlimit="10" stroke-linecap="round" stroke-linejoin="round"/>
<path d="M177.757 317.569C177.757 317.569 183.377 309.899 178.337 307.459C174.497 305.599 172.097 309.819 168.577 314.599C165.057 319.379 152.487 335.359 135.767 343.109C121.047 349.939 115.047 352.439 116.277 355.399C117.487 358.299 129.867 354.339 138.357 350.429C146.847 346.509 166.507 335.059 177.757 317.569Z" fill="#ABE1FA" stroke="#041241" stroke-width="1.7" stroke-miterlimit="10" stroke-linecap="round" stroke-linejoin="round"/>
<path d="M236.677 258.049C236.677 258.049 241.197 256.309 240.977 268.629C240.777 279.569 235.877 316.219 214.217 346.979C193.187 376.859 164.517 389.799 164.517 389.799C164.517 389.799 158.007 393.419 156.507 390.159C155.007 386.899 159.877 385.169 163.857 382.919C167.837 380.669 190.497 369.029 210.057 340.759C228.937 313.459 232.647 277.609 232.927 271.149C233.307 262.469 231.537 258.789 236.677 258.049Z" fill="#ABE1FA" stroke="#041241" stroke-width="1.7" stroke-miterlimit="10" stroke-linecap="round" stroke-linejoin="round"/>
<path d="M104.377 359.359C104.377 359.359 105.437 362.039 97.6269 363.869C82.9269 367.319 55.6269 369.679 39.8069 367.809C23.9869 365.939 22.2569 365.409 22.7769 363.379C23.1869 361.789 31.4369 362.449 40.5969 362.589C52.6069 362.779 72.7769 362.009 91.4769 359.369C98.1969 358.419 103.447 355.829 104.377 359.359Z" fill="#ABE1FA" stroke="#041241" stroke-width="1.7" stroke-miterlimit="10" stroke-linecap="round" stroke-linejoin="round"/>
<path d="M18.9868 311.949C42.9868 308.739 51.0968 301.729 51.6068 285.989C52.1768 268.499 67.4768 259.219 85.4268 261.419C85.4268 261.419 61.6368 259.779 59.3968 280.569C57.3668 299.449 55.6568 303.179 45.1668 308.239C34.6768 313.289 18.9868 311.949 18.9868 311.949Z" fill="#243A76" stroke="#041241" stroke-width="1.7" stroke-miterlimit="10" stroke-linecap="round" stroke-linejoin="round"/>
<path d="M302.817 337.399C304.217 332.279 304.667 326.929 303.877 321.689C303.407 318.579 302.487 315.289 300.767 312.569C295.907 304.879 286.827 298.409 276.917 308.149C264.627 320.239 272.177 326.139 272.547 342.069C273.027 362.869 266.027 374.049 272.337 377.709C278.387 381.209 292.687 374.529 302.817 337.399Z" fill="#ABE1FA" stroke="#041241" stroke-width="1.7" stroke-miterlimit="10" stroke-linecap="round" stroke-linejoin="round"/>
<path d="M-1.08295 26.9594C-1.08295 26.9594 -82.883 76.2294 -82.893 170.219C-82.903 209.569 -69.643 263.419 -45.303 273.259C-28.903 279.879 -20.813 251.979 10.067 254.079C25.237 255.109 33.667 262.619 36.057 278.459C39.687 302.509 17.597 328.709 -33.523 322.839C-73.973 318.199 -98.163 288.829 -115.153 233.289C-132.143 177.749 -122.143 81.9694 -62.473 27.9094C-44.463 11.5994 -38.013 3.25937 -29.423 1.55937C-4.12297 -3.46063 -1.08295 26.9594 -1.08295 26.9594Z" fill="#0482C5" stroke="#3D1063" stroke-width="0.6511" stroke-miterlimit="10" stroke-linejoin="round"/>
<path d="M-73.2329 232.799C-66.8729 252.409 -57.4729 268.329 -45.3029 273.249C-28.9029 279.869 -20.8129 251.969 10.0671 254.069C25.2371 255.099 33.6671 262.609 36.0571 278.449C36.0571 278.449 34.6671 260.459 14.3271 260.429C1.47709 260.409 -9.52291 264.029 -21.3229 278.729C-29.4229 288.819 -45.5229 291.199 -60.2429 266.839C-71.7429 247.799 -73.2329 232.799 -73.2329 232.799Z" fill="#243A76" stroke="#041241" stroke-width="1.7" stroke-miterlimit="10" stroke-linecap="round" stroke-linejoin="round"/>
<path d="M8.53713 312.539C8.53713 312.539 26.3971 305.459 29.6671 289.569C32.5771 275.429 26.2471 270.329 19.2871 270.669C7.28713 271.239 17.3671 282.429 3.50713 294.589C-10.2929 306.699 -40.3129 310.409 -27.5829 315.659C-14.8529 320.899 -1.78287 316.769 8.53713 312.539Z" fill="#ABE1FA" stroke="#041241" stroke-width="1.7" stroke-miterlimit="10" stroke-linecap="round" stroke-linejoin="round"/>
</svg>
