<svg width="50" height="50" viewBox="0 0 50 50" fill="none" xmlns="http://www.w3.org/2000/svg">
<path d="M25 0L46.6506 12.5V37.5L25 50L3.34937 37.5V12.5L25 0Z" fill="#ABE1FA"/>
<path fill-rule="evenodd" clip-rule="evenodd" d="M23.6795 13.0037C23.9342 13.0033 24.2083 13.0034 24.5041 13.0035L24.9917 13.0037C28.8973 13.0037 29.3602 13.0177 30.9025 13.0878C32.3287 13.153 33.1027 13.3913 33.6184 13.5915C34.301 13.8566 34.7877 14.1736 35.2993 14.6855C35.8113 15.1975 36.1282 15.6851 36.394 16.3677C36.5942 16.8827 36.8328 17.6568 36.8977 19.083C36.9678 20.625 36.983 21.0882 36.983 24.992C36.983 28.8958 36.9678 29.359 36.8977 30.901C36.8325 32.3272 36.5942 33.1012 36.394 33.6162C36.1289 34.2989 35.8113 34.7849 35.2993 35.2966C34.7874 35.8086 34.3013 36.1255 33.6184 36.3906C33.1034 36.5918 32.3287 36.8295 30.9025 36.8947C29.3605 36.9648 28.8973 36.98 24.9917 36.98C21.0858 36.98 20.6229 36.9648 19.0809 36.8947C17.6547 36.8288 16.8806 36.5905 16.3647 36.3903C15.6821 36.1252 15.1945 35.8083 14.6825 35.2963C14.1705 34.7843 13.8536 34.2979 13.5879 33.615C13.3876 33.1 13.149 32.3259 13.0841 30.8997C13.014 29.3577 13 28.8945 13 24.9883C13 21.0821 13.014 20.6213 13.0841 19.0793C13.1493 17.6531 13.3876 16.8791 13.5879 16.3635C13.853 15.6808 14.1705 15.1932 14.6825 14.6813C15.1945 14.1693 15.6821 13.8524 16.3647 13.5866C16.8803 13.3855 17.6547 13.1478 19.0809 13.0823C20.4303 13.0213 20.9532 13.003 23.6795 13V13.0037ZM32.7998 15.4325C31.8307 15.4325 31.0445 16.2178 31.0445 17.1872C31.0445 18.1563 31.8307 18.9425 32.7998 18.9425C33.7689 18.9425 34.5551 18.1563 34.5551 17.1872C34.5551 16.2181 33.7689 15.4319 32.7998 15.4319V15.4325ZM17.4797 24.9954C17.4797 20.847 20.8429 17.4836 24.9913 17.4835C29.1398 17.4835 32.5023 20.8469 32.5023 24.9954C32.5023 29.1439 29.1401 32.5058 24.9916 32.5058C20.8431 32.5058 17.4797 29.1439 17.4797 24.9954Z" fill="#243A76"/>
<path d="M24.9916 20.1193C27.6843 20.1193 29.8675 22.3022 29.8675 24.9952C29.8675 27.6879 27.6843 29.8711 24.9916 29.8711C22.2986 29.8711 20.1157 27.6879 20.1157 24.9952C20.1157 22.3022 22.2986 20.1193 24.9916 20.1193Z" fill="#243A76"/>
</svg>
