<svg width="50" height="50" viewBox="0 0 50 50" fill="none" xmlns="http://www.w3.org/2000/svg">
<path d="M25 0L46.6506 12.5V37.5L25 50L3.34937 37.5V12.5L25 0Z" fill="#F58220"/>
<path d="M18.3623 20.796H24.6153V22.668H20.3903V24.384H24.3813V26.256H20.3903V28.128H24.8493V30H18.3623V20.796ZM26.8758 23.682H28.7478V24.54H28.7738C28.8345 24.4187 28.9211 24.2973 29.0338 24.176C29.1465 24.0547 29.2808 23.9463 29.4368 23.851C29.5928 23.7557 29.7705 23.6777 29.9698 23.617C30.1691 23.5563 30.3858 23.526 30.6198 23.526C31.1138 23.526 31.5125 23.604 31.8158 23.76C32.1191 23.9073 32.3531 24.1153 32.5178 24.384C32.6911 24.6527 32.8081 24.969 32.8688 25.333C32.9295 25.697 32.9598 26.0913 32.9598 26.516V30H31.0098V26.906C31.0098 26.724 31.0011 26.5377 30.9838 26.347C30.9751 26.1477 30.9361 25.9657 30.8668 25.801C30.8061 25.6363 30.7065 25.502 30.5678 25.398C30.4378 25.294 30.2471 25.242 29.9958 25.242C29.7445 25.242 29.5408 25.2897 29.3848 25.385C29.2288 25.4717 29.1075 25.593 29.0208 25.749C28.9428 25.8963 28.8908 26.0653 28.8648 26.256C28.8388 26.4467 28.8258 26.646 28.8258 26.854V30H26.8758V23.682Z" fill="#790000"/>
</svg>
