<svg width="58" height="58" viewBox="0 0 58 58" fill="none" xmlns="http://www.w3.org/2000/svg">
<g filter="url(#filter0_d)">
<path d="M29 0L50.6506 12.5V37.5L29 50L7.34937 37.5V12.5L29 0Z" fill="#F58220"/>
<path fill-rule="evenodd" clip-rule="evenodd" d="M27.6884 13.0037C27.9434 13.0033 28.2177 13.0034 28.5137 13.0035L29.0017 13.0037C32.9105 13.0037 33.3738 13.0177 34.9174 13.0878C36.3448 13.1531 37.1195 13.3916 37.6356 13.592C38.3188 13.8573 38.8058 14.1745 39.3179 14.6869C39.8303 15.1993 40.1475 15.6873 40.4135 16.3705C40.6139 16.886 40.8527 17.6607 40.9177 19.0881C40.9878 20.6314 41.003 21.095 41.003 25.002C41.003 28.909 40.9878 29.3726 40.9177 30.9159C40.8524 32.3433 40.6139 33.118 40.4135 33.6334C40.1481 34.3166 39.8303 34.8031 39.3179 35.3152C38.8055 35.8276 38.3191 36.1448 37.6356 36.4101C37.1201 36.6114 36.3448 36.8493 34.9174 36.9146C33.3741 36.9848 32.9105 37 29.0017 37C25.0925 37 24.6292 36.9848 23.0859 36.9146C21.6585 36.8487 20.8838 36.6102 20.3675 36.4098C19.6843 36.1445 19.1963 35.8273 18.6839 35.3149C18.1715 34.8025 17.8543 34.3157 17.5883 33.6322C17.388 33.1168 17.1491 32.3421 17.0842 30.9147C17.014 29.3714 17 28.9078 17 24.9983C17 21.0889 17.014 20.6277 17.0842 19.0844C17.1494 17.657 17.388 16.8823 17.5883 16.3663C17.8537 15.6831 18.1715 15.1951 18.6839 14.6827C19.1963 14.1703 19.6843 13.8531 20.3675 13.5871C20.8835 13.3858 21.6585 13.1479 23.0859 13.0823C24.4365 13.0213 24.9598 13.0031 27.6884 13V13.0037ZM36.8164 15.4344C35.8465 15.4344 35.0596 16.2204 35.0596 17.1906C35.0596 18.1605 35.8465 18.9474 36.8164 18.9474C37.7862 18.9474 38.5731 18.1605 38.5731 17.1906C38.5731 16.2207 37.7862 15.4338 36.8164 15.4338V15.4344ZM21.4833 25.0055C21.4833 20.8536 24.8494 17.4874 29.0012 17.4872C33.1532 17.4872 36.5185 20.8535 36.5185 25.0055C36.5185 29.1574 33.1535 32.5221 29.0015 32.5221C24.8496 32.5221 21.4833 29.1574 21.4833 25.0055Z" fill="#790000"/>
<path d="M29.0016 20.1255C31.6965 20.1255 33.8815 22.3102 33.8815 25.0055C33.8815 27.7004 31.6965 29.8854 29.0016 29.8854C26.3063 29.8854 24.1216 27.7004 24.1216 25.0055C24.1216 22.3102 26.3063 20.1255 29.0016 20.1255Z" fill="#790000"/>
</g>
<defs>
<filter id="filter0_d" x="0" y="0" width="58" height="58" filterUnits="userSpaceOnUse" color-interpolation-filters="sRGB">
<feFlood flood-opacity="0" result="BackgroundImageFix"/>
<feColorMatrix in="SourceAlpha" type="matrix" values="0 0 0 0 0 0 0 0 0 0 0 0 0 0 0 0 0 0 127 0"/>
<feOffset dy="4"/>
<feGaussianBlur stdDeviation="2"/>
<feColorMatrix type="matrix" values="0 0 0 0 0 0 0 0 0 0 0 0 0 0 0 0 0 0 0.25 0"/>
<feBlend mode="normal" in2="BackgroundImageFix" result="effect1_dropShadow"/>
<feBlend mode="normal" in="SourceGraphic" in2="effect1_dropShadow" result="shape"/>
</filter>
</defs>
</svg>
