<svg width="166" height="73" viewBox="0 0 166 73" fill="none" xmlns="http://www.w3.org/2000/svg">
<path d="M161.085 -15.0639C157.2 -18.9463 155.741 -26.2776 157.842 -31.356C159.95 -36.4344 157.516 -42.307 152.438 -44.408C147.366 -46.5058 143.211 -52.7233 143.211 -58.2162C143.211 -63.7123 138.718 -68.2054 133.219 -68.2054C127.726 -68.2054 121.512 -72.3567 119.417 -77.4351C117.826 -81.2732 114.076 -83.5988 110.153 -83.5988C108.887 -83.5988 107.596 -83.3552 106.362 -82.8458C104.786 -82.194 102.989 -81.8839 101.151 -81.8839C97.0627 -81.8839 92.7469 -83.409 90.0669 -86.089C88.1241 -88.0286 85.5643 -89 83.0014 -89C80.4385 -89 77.8787 -88.0286 75.9328 -86.089C73.2591 -83.409 68.9369 -81.8839 64.8489 -81.8839C63.0137 -81.8839 61.2196 -82.194 59.647 -82.8458C58.4067 -83.3584 57.1221 -83.5988 55.8501 -83.5988C51.9234 -83.5988 48.1834 -81.2732 46.5919 -77.4351C44.4846 -72.3567 38.2703 -68.2054 32.7774 -68.2054C27.2845 -68.2054 22.7851 -63.7123 22.7851 -58.2162C22.7851 -52.7233 18.6338 -46.5058 13.5554 -44.408C8.48327 -42.307 6.05007 -36.4344 8.15737 -31.356C10.2647 -26.2776 8.79969 -18.9463 4.91415 -15.0639C1.02862 -11.1815 1.02862 -4.81847 4.91415 -0.936089C8.79969 2.9463 10.2647 10.2776 8.15737 15.356C6.05007 20.4344 8.48327 26.307 13.5554 28.4143C18.6338 30.5185 22.7851 36.736 22.7851 42.2257C22.7851 47.7155 27.2845 52.2149 32.7774 52.2149C38.2703 52.2149 44.4846 56.3662 46.5919 61.4446C48.1834 65.2795 51.9266 67.6084 55.8469 67.6084C57.1189 67.6084 58.4067 67.3647 59.6502 66.849C61.2259 66.1971 63.0168 65.8871 64.8615 65.8871C68.9464 65.8871 73.2622 67.4122 75.9359 70.0858C77.8787 72.0286 80.4385 73 83.0014 73C85.5612 73 88.1241 72.0286 90.0669 70.0858C92.7469 67.4122 97.0627 65.8871 101.151 65.8871C102.995 65.8871 104.783 66.1971 106.365 66.849C107.602 67.3647 108.89 67.6084 110.162 67.6084C114.083 67.6084 117.826 65.2827 119.411 61.4446C121.518 56.3662 127.733 52.2149 133.222 52.2149C138.718 52.2149 143.215 47.7187 143.215 42.2257C143.215 36.7328 147.366 30.5153 152.441 28.4143C157.52 26.3102 159.95 20.4344 157.845 15.356C155.744 10.2776 157.203 2.94313 161.089 -0.936089C164.971 -4.81847 164.971 -11.1784 161.085 -15.0639Z" fill="#EEEEEE"/>
<path d="M49.3926 17.964H52.4186L55.3936 25.852H55.4276L58.4536 17.964H61.2926L56.3286 30H54.2036L49.3926 17.964ZM62.7563 23.982C62.7563 23.0187 62.915 22.146 63.2323 21.364C63.561 20.582 64.0143 19.919 64.5923 19.375C65.1703 18.8197 65.856 18.3947 66.6493 18.1C67.4427 17.8053 68.3097 17.658 69.2503 17.658C70.191 17.658 71.058 17.8053 71.8513 18.1C72.6447 18.3947 73.3303 18.8197 73.9083 19.375C74.4863 19.919 74.934 20.582 75.2513 21.364C75.58 22.146 75.7443 23.0187 75.7443 23.982C75.7443 24.9453 75.58 25.818 75.2513 26.6C74.934 27.382 74.4863 28.0507 73.9083 28.606C73.3303 29.15 72.6447 29.5693 71.8513 29.864C71.058 30.1587 70.191 30.306 69.2503 30.306C68.3097 30.306 67.4427 30.1587 66.6493 29.864C65.856 29.5693 65.1703 29.15 64.5923 28.606C64.0143 28.0507 63.561 27.382 63.2323 26.6C62.915 25.818 62.7563 24.9453 62.7563 23.982ZM65.5103 23.982C65.5103 24.5487 65.5953 25.07 65.7653 25.546C65.9467 26.0107 66.2017 26.4187 66.5303 26.77C66.859 27.11 67.25 27.3763 67.7033 27.569C68.168 27.7617 68.6837 27.858 69.2503 27.858C69.817 27.858 70.327 27.7617 70.7803 27.569C71.245 27.3763 71.6417 27.11 71.9703 26.77C72.299 26.4187 72.5483 26.0107 72.7183 25.546C72.8997 25.07 72.9903 24.5487 72.9903 23.982C72.9903 23.4267 72.8997 22.911 72.7183 22.435C72.5483 21.959 72.299 21.551 71.9703 21.211C71.6417 20.8597 71.245 20.5877 70.7803 20.395C70.327 20.2023 69.817 20.106 69.2503 20.106C68.6837 20.106 68.168 20.2023 67.7033 20.395C67.25 20.5877 66.859 20.8597 66.5303 21.211C66.2017 21.551 65.9467 21.959 65.7653 22.435C65.5953 22.911 65.5103 23.4267 65.5103 23.982ZM78.3969 17.964H82.3749C83.3382 17.964 84.2505 18.0717 85.1119 18.287C85.9845 18.5023 86.7439 18.8537 87.3899 19.341C88.0359 19.817 88.5459 20.4403 88.9199 21.211C89.3052 21.9817 89.4979 22.9167 89.4979 24.016C89.4979 24.9907 89.3109 25.852 88.9369 26.6C88.5742 27.3367 88.0812 27.96 87.4579 28.47C86.8345 28.9687 86.1149 29.3483 85.2989 29.609C84.4829 29.8697 83.6272 30 82.7319 30H78.3969V17.964ZM81.0489 27.552H82.4259C83.0379 27.552 83.6045 27.4897 84.1259 27.365C84.6585 27.2403 85.1175 27.0363 85.5029 26.753C85.8882 26.4583 86.1885 26.0787 86.4039 25.614C86.6305 25.138 86.7439 24.56 86.7439 23.88C86.7439 23.2907 86.6305 22.7807 86.4039 22.35C86.1885 21.908 85.8939 21.5453 85.5199 21.262C85.1459 20.9787 84.7039 20.769 84.1939 20.633C83.6952 20.4857 83.1682 20.412 82.6129 20.412H81.0489V27.552ZM92.2483 17.964H94.9003V22.962L99.5753 17.964H103.043L97.6883 23.557L103.502 30H99.7963L94.9003 24.288V30H92.2483V17.964ZM109.226 17.964H111.419L116.655 30H113.663L112.626 27.45H107.951L106.948 30H104.024L109.226 17.964ZM110.246 21.466L108.784 25.206H111.725L110.246 21.466ZM53.6524 41.092C53.3918 40.7747 53.0688 40.531 52.6834 40.361C52.3094 40.191 51.8731 40.106 51.3744 40.106C50.8758 40.106 50.4111 40.2023 49.9804 40.395C49.5611 40.5877 49.1928 40.8597 48.8754 41.211C48.5694 41.551 48.3258 41.959 48.1444 42.435C47.9744 42.911 47.8894 43.4267 47.8894 43.982C47.8894 44.5487 47.9744 45.07 48.1444 45.546C48.3258 46.0107 48.5694 46.4187 48.8754 46.77C49.1814 47.11 49.5384 47.3763 49.9464 47.569C50.3658 47.7617 50.8134 47.858 51.2894 47.858C51.8334 47.858 52.3151 47.7447 52.7344 47.518C53.1538 47.2913 53.4994 46.974 53.7714 46.566L55.9814 48.215C55.4714 48.929 54.8254 49.456 54.0434 49.796C53.2614 50.136 52.4568 50.306 51.6294 50.306C50.6888 50.306 49.8218 50.1587 49.0284 49.864C48.2351 49.5693 47.5494 49.15 46.9714 48.606C46.3934 48.0507 45.9401 47.382 45.6114 46.6C45.2941 45.818 45.1354 44.9453 45.1354 43.982C45.1354 43.0187 45.2941 42.146 45.6114 41.364C45.9401 40.582 46.3934 39.919 46.9714 39.375C47.5494 38.8197 48.2351 38.3947 49.0284 38.1C49.8218 37.8053 50.6888 37.658 51.6294 37.658C51.9694 37.658 52.3208 37.692 52.6834 37.76C53.0574 37.8167 53.4201 37.913 53.7714 38.049C54.1341 38.185 54.4798 38.3663 54.8084 38.593C55.1371 38.8197 55.4318 39.0973 55.6924 39.426L53.6524 41.092ZM58.2691 37.964H62.9271C63.5391 37.964 64.1171 38.0263 64.6611 38.151C65.2165 38.2643 65.6981 38.4627 66.1061 38.746C66.5255 39.018 66.8541 39.392 67.0921 39.868C67.3415 40.3327 67.4661 40.9163 67.4661 41.619C67.4661 42.469 67.2451 43.1943 66.8031 43.795C66.3611 44.3843 65.7151 44.7583 64.8651 44.917L67.9251 50H64.7461L62.2301 45.189H60.9211V50H58.2691V37.964ZM60.9211 42.945H62.4851C62.7231 42.945 62.9725 42.9393 63.2331 42.928C63.5051 42.9053 63.7488 42.8543 63.9641 42.775C64.1795 42.6843 64.3551 42.5483 64.4911 42.367C64.6385 42.1857 64.7121 41.9307 64.7121 41.602C64.7121 41.296 64.6498 41.0523 64.5251 40.871C64.4005 40.6897 64.2418 40.5537 64.0491 40.463C63.8565 40.361 63.6355 40.293 63.3861 40.259C63.1368 40.225 62.8931 40.208 62.6551 40.208H60.9211V42.945ZM80.2916 45.359C80.2916 46.073 80.1839 46.7303 79.9686 47.331C79.7532 47.9317 79.4302 48.453 78.9996 48.895C78.5802 49.337 78.0532 49.6827 77.4186 49.932C76.7839 50.1813 76.0529 50.306 75.2256 50.306C74.3869 50.306 73.6502 50.1813 73.0156 49.932C72.3809 49.6827 71.8482 49.337 71.4176 48.895C70.9982 48.453 70.6809 47.9317 70.4656 47.331C70.2502 46.7303 70.1426 46.073 70.1426 45.359V37.964H72.7946V45.257C72.7946 45.631 72.8512 45.9767 72.9646 46.294C73.0892 46.6113 73.2592 46.889 73.4746 47.127C73.6899 47.3537 73.9449 47.535 74.2396 47.671C74.5456 47.7957 74.8742 47.858 75.2256 47.858C75.5769 47.858 75.8999 47.7957 76.1946 47.671C76.4892 47.535 76.7442 47.3537 76.9596 47.127C77.1749 46.889 77.3392 46.6113 77.4526 46.294C77.5772 45.9767 77.6396 45.631 77.6396 45.257V37.964H80.2916V45.359ZM83.5591 37.964H86.2111V50H83.5591V37.964ZM95.4234 40.905C95.2081 40.633 94.9134 40.4347 94.5394 40.31C94.1768 40.174 93.8311 40.106 93.5024 40.106C93.3098 40.106 93.1114 40.1287 92.9074 40.174C92.7034 40.2193 92.5108 40.293 92.3294 40.395C92.1481 40.4857 92.0008 40.6103 91.8874 40.769C91.7741 40.9277 91.7174 41.1203 91.7174 41.347C91.7174 41.7097 91.8534 41.9873 92.1254 42.18C92.3974 42.3727 92.7374 42.537 93.1454 42.673C93.5648 42.809 94.0124 42.945 94.4884 43.081C94.9644 43.217 95.4064 43.4097 95.8144 43.659C96.2338 43.9083 96.5794 44.2427 96.8514 44.662C97.1234 45.0813 97.2594 45.6423 97.2594 46.345C97.2594 47.0137 97.1348 47.5973 96.8854 48.096C96.6361 48.5947 96.2961 49.0083 95.8654 49.337C95.4461 49.6657 94.9531 49.9093 94.3864 50.068C93.8311 50.2267 93.2418 50.306 92.6184 50.306C91.8364 50.306 91.1111 50.187 90.4424 49.949C89.7738 49.711 89.1504 49.3257 88.5724 48.793L90.4594 46.719C90.7314 47.0817 91.0714 47.365 91.4794 47.569C91.8988 47.7617 92.3294 47.858 92.7714 47.858C92.9868 47.858 93.2021 47.8353 93.4174 47.79C93.6441 47.7333 93.8424 47.654 94.0124 47.552C94.1938 47.45 94.3354 47.3197 94.4374 47.161C94.5508 47.0023 94.6074 46.8153 94.6074 46.6C94.6074 46.2373 94.4658 45.954 94.1824 45.75C93.9104 45.5347 93.5648 45.3533 93.1454 45.206C92.7261 45.0587 92.2728 44.9113 91.7854 44.764C91.2981 44.6167 90.8448 44.4183 90.4254 44.169C90.0061 43.9197 89.6548 43.591 89.3714 43.183C89.0994 42.775 88.9634 42.2367 88.9634 41.568C88.9634 40.922 89.0881 40.3553 89.3374 39.868C89.5981 39.3807 89.9381 38.9727 90.3574 38.644C90.7881 38.3153 91.2811 38.0717 91.8364 37.913C92.3918 37.743 92.9641 37.658 93.5534 37.658C94.2334 37.658 94.8908 37.7543 95.5254 37.947C96.1601 38.1397 96.7324 38.4627 97.2424 38.916L95.4234 40.905ZM100.187 37.964H108.364V40.412H102.839V42.656H108.058V45.104H102.839V47.552H108.67V50H100.187V37.964ZM111.643 37.964H116.301C116.913 37.964 117.491 38.0263 118.035 38.151C118.59 38.2643 119.072 38.4627 119.48 38.746C119.899 39.018 120.228 39.392 120.466 39.868C120.715 40.3327 120.84 40.9163 120.84 41.619C120.84 42.469 120.619 43.1943 120.177 43.795C119.735 44.3843 119.089 44.7583 118.239 44.917L121.299 50H118.12L115.604 45.189H114.295V50H111.643V37.964ZM114.295 42.945H115.859C116.097 42.945 116.346 42.9393 116.607 42.928C116.879 42.9053 117.123 42.8543 117.338 42.775C117.553 42.6843 117.729 42.5483 117.865 42.367C118.012 42.1857 118.086 41.9307 118.086 41.602C118.086 41.296 118.024 41.0523 117.899 40.871C117.774 40.6897 117.616 40.5537 117.423 40.463C117.23 40.361 117.009 40.293 116.76 40.259C116.511 40.225 116.267 40.208 116.029 40.208H114.295V42.945Z" fill="#8F499C"/>
</svg>
