<svg width="24" height="23" viewBox="0 0 24 23" fill="none" xmlns="http://www.w3.org/2000/svg">
<path fill-rule="evenodd" clip-rule="evenodd" d="M10.5924 0.0903924C10.8347 0.0900131 11.0954 0.0901301 11.3768 0.0902564L11.8405 0.0903924C15.5553 0.0903924 15.9956 0.103726 17.4626 0.170393C18.8191 0.232423 19.5553 0.459092 20.0458 0.649529C20.6951 0.901705 21.158 1.20316 21.6446 1.69012C22.1316 2.17708 22.4331 2.64085 22.6858 3.29014C22.8763 3.78 23.1032 4.51624 23.165 5.87277C23.2316 7.33945 23.2461 7.78004 23.2461 11.4931C23.2461 15.2062 23.2316 15.6468 23.165 17.1135C23.1029 18.47 22.8763 19.2062 22.6858 19.6961C22.4336 20.3454 22.1316 20.8077 21.6446 21.2944C21.1577 21.7813 20.6954 22.0828 20.0458 22.335C19.5559 22.5263 18.8191 22.7524 17.4626 22.8144C15.9959 22.8811 15.5553 22.8956 11.8405 22.8956C8.12537 22.8956 7.68508 22.8811 6.2184 22.8144C4.86186 22.7518 4.12562 22.5251 3.63489 22.3347C2.98561 22.0825 2.52184 21.7811 2.03488 21.2941C1.54792 20.8071 1.24646 20.3445 0.993707 19.6949C0.80327 19.2051 0.576311 18.4688 0.514571 17.1123C0.447904 15.6456 0.43457 15.205 0.43457 11.4896C0.43457 7.77424 0.447904 7.33598 0.514571 5.86929C0.576601 4.51276 0.80327 3.77652 0.993707 3.28608C1.24588 2.6368 1.54792 2.17302 2.03488 1.68606C2.52184 1.1991 2.98561 0.897647 3.63489 0.644891C4.12533 0.453585 4.86186 0.227495 6.2184 0.165176C7.50189 0.107204 7.99929 0.0898127 10.5924 0.0869141V0.0903924ZM19.2672 2.40059C18.3454 2.40059 17.5976 3.14755 17.5976 4.06959C17.5976 4.99134 18.3454 5.73917 19.2672 5.73917C20.1889 5.73917 20.9368 4.99134 20.9368 4.06959C20.9368 3.14784 20.1889 2.40001 19.2672 2.40001V2.40059ZM4.69528 11.4963C4.69528 7.55046 7.89444 4.3513 11.8403 4.3513H11.84C15.7858 4.3513 18.9841 7.55046 18.9841 11.4963C18.9841 15.4421 15.7861 18.6399 11.8403 18.6399C7.89444 18.6399 4.69528 15.4421 4.69528 11.4963Z" fill="#006838"/>
<path d="M11.8404 6.85852C14.4016 6.85852 16.4781 8.93477 16.4781 11.4963C16.4781 14.0574 14.4016 16.134 11.8404 16.134C9.27889 16.134 7.20264 14.0574 7.20264 11.4963C7.20264 8.93477 9.27889 6.85852 11.8404 6.85852Z" fill="#006838"/>
</svg>
