<svg width="50" height="50" viewBox="0 0 50 50" fill="none" xmlns="http://www.w3.org/2000/svg">
<path d="M25 0L46.6506 12.5V37.5L25 50L3.34937 37.5V12.5L25 0Z" fill="#72BF44"/>
<path fill-rule="evenodd" clip-rule="evenodd" d="M23.6884 13.0037C23.9434 13.0033 24.2177 13.0034 24.5137 13.0035L25.0017 13.0037C28.9105 13.0037 29.3738 13.0177 30.9174 13.0878C32.3448 13.1531 33.1195 13.3916 33.6356 13.592C34.3188 13.8573 34.8058 14.1745 35.3179 14.6869C35.8303 15.1993 36.1475 15.6873 36.4135 16.3705C36.6139 16.886 36.8527 17.6607 36.9177 19.0881C36.9878 20.6314 37.003 21.095 37.003 25.002C37.003 28.909 36.9878 29.3726 36.9177 30.9159C36.8524 32.3433 36.6139 33.118 36.4135 33.6334C36.1481 34.3166 35.8303 34.8031 35.3179 35.3152C34.8055 35.8276 34.3191 36.1448 33.6356 36.4101C33.1201 36.6114 32.3448 36.8493 30.9174 36.9146C29.3741 36.9848 28.9105 37 25.0017 37C21.0925 37 20.6292 36.9848 19.0859 36.9146C17.6585 36.8487 16.8838 36.6102 16.3675 36.4098C15.6843 36.1445 15.1963 35.8273 14.6839 35.3149C14.1715 34.8025 13.8543 34.3157 13.5883 33.6322C13.388 33.1168 13.1491 32.3421 13.0842 30.9147C13.014 29.3714 13 28.9078 13 24.9983C13 21.0889 13.014 20.6277 13.0842 19.0844C13.1494 17.657 13.388 16.8823 13.5883 16.3663C13.8537 15.6831 14.1715 15.1951 14.6839 14.6827C15.1963 14.1703 15.6843 13.8531 16.3675 13.5871C16.8835 13.3858 17.6585 13.1479 19.0859 13.0823C20.4365 13.0213 20.9598 13.0031 23.6884 13V13.0037ZM32.5956 15.4345C31.7476 15.4345 31.0596 16.1217 31.0596 16.9699C31.0596 17.8179 31.7476 18.506 32.5956 18.506C33.4436 18.506 34.1316 17.8179 34.1316 16.9699C34.1316 16.1219 33.4436 15.4339 32.5956 15.4339V15.4345ZM17.4833 25.0053C17.4833 20.8535 20.8494 17.4873 25.0012 17.4871C29.1532 17.4871 32.5185 20.8534 32.5185 25.0053C32.5185 29.1572 29.1535 32.522 25.0015 32.522C20.8496 32.522 17.4833 29.1572 17.4833 25.0053Z" fill="#006838"/>
<path d="M25.0016 20.1252C27.6965 20.1252 29.8815 22.3099 29.8815 25.0052C29.8815 27.7002 27.6965 29.8852 25.0016 29.8852C22.3063 29.8852 20.1216 27.7002 20.1216 25.0052C20.1216 22.3099 22.3063 20.1252 25.0016 20.1252Z" fill="#006838"/>
</svg>
