<svg width="288" height="144" viewBox="0 0 288 144" fill="none" xmlns="http://www.w3.org/2000/svg">
<path d="M257.364 79.2225C261.664 81.5515 266.051 84.7138 270.553 88.9371C289.854 107.031 289.277 120.115 285.393 127.904C278.861 141.003 259.467 145.392 244.534 142.877C231.433 140.667 222.871 133.525 221.63 123.758C221.163 120.073 223.78 116.704 227.477 116.238C231.174 115.772 234.554 118.381 235.021 122.066C235.556 126.253 241.444 128.706 246.782 129.607C257.93 131.485 270.32 127.888 273.3 121.916C275.876 116.751 271.504 108.299 261.3 98.7344C245.261 83.6994 232.856 85.9404 214.075 89.3304C198.518 92.1407 179.161 95.6342 153.977 88.1918C108.699 74.8026 85.7587 57.4489 84.8085 56.7191C81.854 54.4522 81.3036 50.2289 83.5779 47.284C85.8522 44.3391 90.0892 43.7905 93.0386 46.0523C100.531 51.7609 123.705 65.2071 157.82 75.2942C179.919 81.8258 196.789 78.7826 211.671 76.0913C226.973 73.3327 241.611 70.6932 257.364 79.2225Z" fill="#FFCB05" stroke="#041241" stroke-width="1.7" stroke-miterlimit="10" stroke-linecap="round" stroke-linejoin="round"/>
<path d="M41.7371 40.5558L82.6433 62.7176C86.3299 64.7154 92.0936 61.2478 95.5154 54.975C98.9372 48.7022 98.7191 41.9946 95.0325 39.9968L54.1263 17.835" fill="#0082C6"/>
<path d="M41.7371 40.5558L82.6433 62.7176C86.3299 64.7154 92.0936 61.2478 95.5154 54.975C98.9372 48.7022 98.7191 41.9946 95.0325 39.9968L54.1263 17.835" stroke="#041241" stroke-width="1.7" stroke-miterlimit="10" stroke-linecap="round" stroke-linejoin="round"/>
<path d="M41.2541 25.5777C37.8322 31.8505 38.0503 38.558 41.737 40.5558C45.4236 42.5536 51.1873 39.0859 54.6091 32.8132C58.0309 26.5404 57.8128 19.8328 54.1262 17.835C50.4395 15.8373 44.6759 19.3049 41.2541 25.5777Z" fill="#44C8F5" stroke="#041241" stroke-width="1.7" stroke-miterlimit="10" stroke-linecap="round" stroke-linejoin="round"/>
<path d="M41.2541 25.5777C38.8551 29.9718 39.0109 34.6712 41.5916 36.0686C44.1774 37.466 48.212 35.0387 50.6109 30.6446C53.0098 26.2505 52.854 21.5511 50.2734 20.1537C47.6875 18.7511 43.653 21.1836 41.2541 25.5777Z" fill="#0082C6" stroke="#041241" stroke-width="1.7" stroke-miterlimit="10" stroke-linecap="round" stroke-linejoin="round"/>
<path d="M13.8794 18.9167L36.5133 31.1777L41.5241 33.8948C43.5751 35.0024 46.7737 33.0771 48.6741 29.5939C50.5745 26.1108 50.4551 22.3844 48.4041 21.2716L20.7594 6.29868" fill="#44C8F5"/>
<path d="M13.8794 18.9167L36.5133 31.1777L41.5241 33.8948C43.5751 35.0024 46.7737 33.0771 48.6741 29.5939C50.5745 26.1108 50.4551 22.3844 48.4041 21.2716L20.7594 6.29868" stroke="#041241" stroke-width="1.7" stroke-miterlimit="10" stroke-linecap="round" stroke-linejoin="round"/>
<path d="M13.6094 10.5996C11.709 14.0827 11.8284 17.8092 13.8794 18.9219C15.9253 20.0295 19.129 18.1042 21.0295 14.621C22.9299 11.1378 22.8105 7.41142 20.7594 6.30385C18.7084 5.18592 15.5099 7.11641 13.6094 10.5996Z" fill="#0082C6" stroke="#041241" stroke-width="1.7" stroke-miterlimit="10" stroke-linecap="round" stroke-linejoin="round"/>
<path d="M2.31067 11.4277L13.407 15.9252C14.9803 16.7792 17.0832 15.9459 18.5423 13.2702C20.0014 10.5944 19.5548 8.38443 17.9867 7.53046L7.96526 0.579666" fill="#44C8F5"/>
<path d="M2.31067 11.4277L13.407 15.9252C14.9803 16.7792 17.0832 15.9459 18.5423 13.2702C20.0014 10.5944 19.5548 8.38443 17.9867 7.53046L7.96526 0.579666" stroke="#041241" stroke-width="1.7" stroke-miterlimit="10" stroke-linecap="round" stroke-linejoin="round"/>
<path d="M0.825589 3.67466C-0.150594 5.47059 0.913861 10.6876 2.10293 11.3293C3.8476 12.2765 6.57365 10.6358 8.19369 7.66503C9.81374 4.69425 9.70989 1.52163 7.96523 0.579671C6.86442 -0.0206952 2.07178 1.38706 0.825589 3.67466Z" fill="#0082C6" stroke="#041241" stroke-width="1.7" stroke-miterlimit="10" stroke-linecap="round" stroke-linejoin="round"/>
<path d="M0.825618 3.67466C0.327142 4.58556 0.358297 5.55857 0.898313 5.8484C1.43314 6.13824 2.26912 5.63621 2.7676 4.7253C3.26608 3.8144 3.23492 2.8414 2.69491 2.55156C2.15489 2.26173 1.3189 2.76376 0.825618 3.67466Z" fill="#44C8F5" stroke="#041241" stroke-width="1.7" stroke-miterlimit="10" stroke-linecap="round" stroke-linejoin="round"/>
<path d="M23.1481 12.4473L48.3263 26.0849C48.3263 26.0849 48.2277 27.3581 47.3917 28.8901L22.0836 15.18C22.0836 15.18 22.9196 13.9792 23.1481 12.4473Z" fill="#ABE1FA" stroke="#041241" stroke-width="1.7" stroke-miterlimit="10" stroke-linejoin="round"/>
<path d="M23.4128 9.27982L47.3501 22.2498C47.3501 22.2498 48.6898 23.2487 48.6378 24.3459L23.6517 10.8066C23.6517 10.8066 23.7815 9.96299 23.4128 9.27982Z" fill="#ABE1FA" stroke="#041241" stroke-width="1.7" stroke-miterlimit="10" stroke-linejoin="round"/>
<path d="M28.517 10.5012C30.568 11.6088 30.3707 15.1644 28.4703 18.6528C26.5698 22.1359 23.6828 24.232 21.637 23.1245L19.0511 21.7219C21.1022 22.8295 24.3007 20.9041 26.2012 17.421C28.1016 13.9378 27.9822 10.2114 25.9312 9.09866L28.517 10.5012Z" fill="#243A76" stroke="#041241" stroke-width="1.7" stroke-miterlimit="10" stroke-linejoin="round"/>
<path d="M38.284 15.7959C40.335 16.9034 40.1377 20.4591 38.2372 23.9422C36.3368 27.4254 33.4498 29.5215 31.404 28.4139L28.8181 27.0113C30.8691 28.1189 34.0677 26.1936 35.9681 22.7104C37.8686 19.2273 37.7491 15.5009 35.6981 14.3881L38.284 15.7959Z" fill="#243A76" stroke="#041241" stroke-width="1.7" stroke-miterlimit="10" stroke-linejoin="round"/>
<path d="M18.2723 10.1234L10.3901 4.84435C10.3901 4.84435 10.4368 6.07096 9.63721 7.6288L17.6648 12.6388C17.6648 12.6388 18.4955 11.5208 18.2723 10.1234Z" fill="#ABE1FA" stroke="#041241" stroke-width="1.7" stroke-miterlimit="10" stroke-linejoin="round"/>
<path d="M6.12199 8.67945L3.33883 5.92604C3.33883 5.92604 2.79881 6.75931 1.82263 7.01809L4.24751 10.1752C4.24751 10.1752 5.26523 9.89053 6.12199 8.67945Z" fill="#ABE1FA" stroke="#041241" stroke-width="1.7" stroke-miterlimit="10" stroke-linejoin="round"/>
<path d="M17.4622 15.6975L18.5422 16.7637C18.5422 16.7637 17.8413 17.7108 17.0935 17.892L16.2004 16.6498C16.2004 16.6498 17.026 16.0857 17.4622 15.6975Z" fill="#ABE1FA" stroke="#041241" stroke-width="1.7" stroke-miterlimit="10" stroke-linejoin="round"/>
</svg>
