<svg width="540" height="77" viewBox="0 0 540 77" fill="none" xmlns="http://www.w3.org/2000/svg">
<path d="M11.1303 36.6678L43.149 18.0571L43.1044 33.2563L11.0858 51.867L11.1303 36.6678Z" fill="#F58220" stroke="#041241" stroke-width="1.3" stroke-miterlimit="10" stroke-linejoin="round"/>
<path d="M11.0858 51.8671L43.1044 33.2565L65.4163 46.1442L33.3977 64.7474L11.0858 51.8671Z" fill="#EF5B88" stroke="#041241" stroke-width="1.3" stroke-miterlimit="10" stroke-linejoin="round"/>
<path d="M33.3977 64.7474L65.4163 46.1442L65.3866 57.1366L33.368 75.7473L33.3977 64.7474Z" fill="#F58220" stroke="#041241" stroke-width="1.3" stroke-miterlimit="10" stroke-linejoin="round"/>
<path d="M33.472 38.5557L33.4423 49.5482L11.1303 36.6679L11.0857 51.867L33.3977 64.7473L33.368 75.7472L1 57.0548L1.10405 19.8633L33.472 38.5557Z" fill="#FFCB05" stroke="#041241" stroke-width="1.3" stroke-miterlimit="10" stroke-linejoin="round"/>
<path d="M33.472 38.5557L65.4906 19.9451L65.4609 30.9375L33.4423 49.5482L33.472 38.5557Z" fill="#F58220" stroke="#041241" stroke-width="1.3" stroke-miterlimit="10" stroke-linejoin="round"/>
<path d="M1.10406 19.8633L33.1227 1.25269L65.4906 19.9451L33.472 38.5557L1.10406 19.8633Z" fill="#EF5B88" stroke="#041241" stroke-width="1.3" stroke-miterlimit="10" stroke-linejoin="round"/>
<path d="M89.9506 51.2575L122.118 32.5725L134.195 39.5441L102.036 58.2365L89.9506 51.2575Z" fill="#EF5B88" stroke="#041241" stroke-width="1.3" stroke-miterlimit="10" stroke-linejoin="round"/>
<path d="M89.9952 37.4186L122.155 18.7262L122.118 32.5727L89.9506 51.2577L89.9952 37.4186Z" fill="#F58220" stroke="#041241" stroke-width="1.3" stroke-miterlimit="10" stroke-linejoin="round"/>
<path d="M102.102 32.7362L112.24 38.5929L112.21 50.2469L112.173 64.1305L112.144 75.7845L102.006 69.9278L89.9283 62.9562L79.7831 57.0995L79.8128 45.4456L79.85 31.5619L79.8797 19.908L90.0249 25.7647L102.102 32.7362ZM102.073 44.3902L89.9951 37.4186L89.958 51.2651L102.036 58.2367L102.073 44.3902Z" fill="#FFCB05" stroke="#041241" stroke-width="1.3" stroke-miterlimit="10" stroke-linejoin="round"/>
<path d="M112.248 38.5929L112.211 50.2469L112.173 64.1305L112.144 75.7845L144.303 57.0921L144.333 45.4381L144.37 31.5545L144.408 19.9005L112.248 38.5929Z" fill="#F58220" stroke="#041241" stroke-width="1.3" stroke-miterlimit="10" stroke-linejoin="round"/>
<path d="M134.262 14.0511L122.185 7.07216L112.04 1.21545L79.8797 19.9079L90.0249 25.7646L102.102 32.7361L112.248 38.5928L144.408 19.9004L134.262 14.0511Z" fill="#EF5B88" stroke="#041241" stroke-width="1.3" stroke-miterlimit="10" stroke-linejoin="round"/>
<path d="M168.741 51.3021L200.901 32.6097L212.979 39.5813L180.819 58.2737L168.741 51.3021Z" fill="#EF5B88" stroke="#041241" stroke-width="1.3" stroke-miterlimit="10" stroke-linejoin="round"/>
<path d="M158.67 19.9004L190.83 1.21545L200.975 7.07216L168.815 25.7646L158.67 19.9004Z" fill="#EF5B88" stroke="#041241" stroke-width="1.3" stroke-miterlimit="10" stroke-linejoin="round"/>
<path d="M168.815 25.7647L200.975 7.07227L200.901 32.6099L168.741 51.3023L168.815 25.7647Z" fill="#F58220" stroke="#041241" stroke-width="1.3" stroke-miterlimit="10" stroke-linejoin="round"/>
<path d="M180.893 32.7361L213.053 14.0437L223.198 19.9004L191.038 38.5928L180.893 32.7361Z" fill="#EF5B88" stroke="#041241" stroke-width="1.3" stroke-miterlimit="10" stroke-linejoin="round"/>
<path d="M191.038 38.5929L190.964 64.1305L190.934 75.7845L223.094 57.0995L223.124 45.4381L223.198 19.9005L191.038 38.5929Z" fill="#F58220" stroke="#041241" stroke-width="1.3" stroke-miterlimit="10" stroke-linejoin="round"/>
<path d="M191.038 38.5929L190.964 64.1305L190.934 75.7845L180.789 69.9278L168.711 62.9562L158.566 57.0995L158.596 45.4381L158.67 19.9005L168.815 25.7646L168.741 51.3023L180.819 58.2738L180.893 32.7362L191.038 38.5929Z" fill="#FFCB05" stroke="#041241" stroke-width="1.3" stroke-miterlimit="10" stroke-linejoin="round"/>
<path d="M495.698 57.9468L527.858 40.5476L527.821 53.8887L495.661 72.5811L495.698 57.9468Z" fill="#F58220" stroke="#041241" stroke-width="1.3" stroke-miterlimit="10" stroke-linejoin="round"/>
<path d="M484.654 28.9679L516.821 10.283L516.784 22.4646L484.624 41.157L484.654 28.9679Z" fill="#F58220" stroke="#041241" stroke-width="1.3" stroke-miterlimit="10" stroke-linejoin="round"/>
<path d="M474.516 23.1114L506.676 4.42639L516.821 10.2831L484.654 28.9681L474.516 23.1114Z" fill="#EF5B88" stroke="#041241" stroke-width="1.3" stroke-miterlimit="10" stroke-linejoin="round"/>
<path d="M484.624 41.157L516.784 22.4646L528.862 29.4436L496.702 48.1286L484.624 41.157Z" fill="#EF5B88" stroke="#041241" stroke-width="1.3" stroke-miterlimit="10" stroke-linejoin="round"/>
<path d="M496.739 35.947L528.899 17.2546L539.044 23.1113L506.877 41.8037L496.739 35.947Z" fill="#EF5B88" stroke="#041241" stroke-width="1.3" stroke-miterlimit="10" stroke-linejoin="round"/>
<path d="M506.877 41.8036L506.847 53.9853L506.81 64.3608L538.97 45.6684L539.007 35.3003L539.044 23.1112L506.877 41.8036Z" fill="#F58220" stroke="#041241" stroke-width="1.3" stroke-miterlimit="10" stroke-linejoin="round"/>
<path d="M506.877 41.8036L506.847 53.9853L506.81 64.3608L495.698 57.9467L495.661 72.581L485.516 66.7169L485.561 52.0826L474.442 45.6684L474.479 35.3003L474.516 23.1112L484.654 28.9679L484.624 41.157L496.702 48.1285L496.739 35.9469L506.877 41.8036Z" fill="#FFCB05" stroke="#041241" stroke-width="1.3" stroke-miterlimit="10" stroke-linejoin="round"/>
<path d="M337.389 47.0435L369.549 28.3511L369.482 53.8887L337.322 72.5811L337.389 47.0435Z" fill="#F58220" stroke="#041241" stroke-width="1.3" stroke-miterlimit="10" stroke-linejoin="round"/>
<path d="M348.537 41.8036L348.5 53.4576L337.389 47.0434L337.322 72.581L327.177 66.7169L327.244 41.1867L316.132 34.7652L316.169 23.1112L327.281 29.5328L337.426 35.3895L348.537 41.8036Z" fill="#FFCB05" stroke="#041241" stroke-width="1.3" stroke-miterlimit="10" stroke-linejoin="round"/>
<path d="M348.537 41.8036L380.697 23.1112L380.66 34.7652L348.5 53.4576L348.537 41.8036Z" fill="#F58220" stroke="#041241" stroke-width="1.3" stroke-miterlimit="10" stroke-linejoin="round"/>
<path d="M369.586 16.6972L359.441 10.8405L348.329 4.42639L316.169 23.1114L327.281 29.5329L337.426 35.3896L348.537 41.8038L380.697 23.1114L369.586 16.6972Z" fill="#EF5B88" stroke="#041241" stroke-width="1.3" stroke-miterlimit="10" stroke-linejoin="round"/>
<path d="M247.532 49.0798L279.691 30.3875L279.654 44.2637L247.494 62.9561L247.532 49.0798Z" fill="#F58220" stroke="#041241" stroke-width="1.3" stroke-miterlimit="10" stroke-linejoin="round"/>
<path d="M237.453 19.9079L269.613 1.21545L279.758 7.07216L247.591 25.7646L237.453 19.9079Z" fill="#EF5B88" stroke="#041241" stroke-width="1.3" stroke-miterlimit="10" stroke-linejoin="round"/>
<path d="M247.591 25.7647L279.758 7.07227L291.799 27.9275L259.639 46.6199L247.591 25.7647Z" fill="#F58220" stroke="#041241" stroke-width="1.3" stroke-miterlimit="10" stroke-linejoin="round"/>
<path d="M269.814 38.5929L269.71 75.7845L259.572 69.9278L247.532 49.08L247.494 62.9562L237.349 57.0995L237.453 19.908L247.591 25.7647L259.639 46.6199L259.676 32.7362L269.814 38.5929Z" fill="#FFCB05" stroke="#041241" stroke-width="1.3" stroke-miterlimit="10" stroke-linejoin="round"/>
<path d="M269.814 38.5929L301.981 19.9005L301.87 57.0921L269.71 75.7845L269.814 38.5929Z" fill="#F58220" stroke="#041241" stroke-width="1.3" stroke-miterlimit="10" stroke-linejoin="round"/>
<path d="M259.676 32.7361L291.836 14.0511L301.981 19.9004L269.814 38.5928L259.676 32.7361Z" fill="#EF5B88" stroke="#041241" stroke-width="1.3" stroke-miterlimit="10" stroke-linejoin="round"/>
<path d="M405.462 53.7475L438.365 34.624L438.335 44.2638L405.432 63.3798L405.462 53.7475Z" fill="#F58220" stroke="#041241" stroke-width="1.3" stroke-miterlimit="10" stroke-linejoin="round"/>
<path d="M405.514 36.6606L438.41 17.5371L438.395 25.1404L405.492 44.2639L405.514 36.6606Z" fill="#F58220" stroke="#041241" stroke-width="1.3" stroke-miterlimit="10" stroke-linejoin="round"/>
<path d="M421.932 63.2535L454.835 44.13L460.194 56.8765L427.291 76L421.932 63.2535Z" fill="#F58220" stroke="#041241" stroke-width="1.3" stroke-miterlimit="10" stroke-linejoin="round"/>
<path d="M405.492 44.2637L438.395 25.1403L449.632 31.6287L416.729 50.7522L405.492 44.2637Z" fill="#EF5B88" stroke="#041241" stroke-width="1.3" stroke-miterlimit="10" stroke-linejoin="round"/>
<path d="M395.027 20.1235L427.93 1L460.164 19.6181L427.268 38.7341L395.027 20.1235Z" fill="#EF5B88" stroke="#041241" stroke-width="1.3" stroke-miterlimit="10" stroke-linejoin="round"/>
<path d="M421.932 63.2534L427.291 75.9999L415.919 69.4371L410.962 56.921L405.462 53.74L405.432 63.3798L394.915 57.3075L395.019 20.116L427.261 38.734L427.187 66.2858L421.932 63.2534ZM416.729 49.0056L416.752 43.1489L405.507 36.6604L405.484 44.2637L416.729 50.7522V49.0056Z" fill="#FFCB05" stroke="#041241" stroke-width="1.3" stroke-miterlimit="10" stroke-linejoin="round"/>
<path d="M427.268 38.7342L460.164 19.6182L460.09 47.1699L427.187 66.286L427.268 38.7342Z" fill="#F58220" stroke="#041241" stroke-width="1.3" stroke-miterlimit="10" stroke-linejoin="round"/>
</svg>
