<svg width="149" height="77" viewBox="0 0 149 77" fill="none" xmlns="http://www.w3.org/2000/svg">
<path d="M11.0212 53.6132L44.4693 34.1763L58.2863 42.156L24.8383 61.5852L11.0212 53.6132Z" fill="#EF5B88" stroke="#041241" stroke-width="1.3" stroke-miterlimit="10" stroke-linejoin="round"/>
<path d="M11.0678 37.5918L44.5081 18.1548L44.4693 34.1763L11.0212 53.6133L11.0678 37.5918Z" fill="#F58220" stroke="#041241" stroke-width="1.3" stroke-miterlimit="10" stroke-linejoin="round"/>
<path d="M34.8982 45.4862L34.8827 51.339L34.8361 67.4149L34.8206 73.2599L68.2608 53.8307L68.2764 47.9779L68.3229 31.902L68.3385 26.0492L34.8982 45.4862Z" fill="#F58220" stroke="#041241" stroke-width="1.3" stroke-miterlimit="10" stroke-linejoin="round"/>
<path d="M30.0545 37.1493L34.8983 45.4861L34.8827 51.3389L34.8362 67.4148L34.8206 73.2676L29.9459 76L24.8149 73.0348L10.9979 65.0551L1 59.2799L1.03105 47.8925L1.07762 31.8166L1.10867 20.4292L11.0988 26.1966L24.9159 34.1764L30.0545 37.1493ZM24.8848 45.5637L11.0678 37.584L11.0212 53.6056L24.8382 61.5853L24.8848 45.5637Z" fill="#FFCB05" stroke="#041241" stroke-width="1.3" stroke-miterlimit="10" stroke-linejoin="round"/>
<path d="M58.364 14.7472L44.547 6.76744L34.549 1L1.10876 20.437L11.0989 26.2044L24.9159 34.1841L30.0546 37.1493L63.4949 17.7124L58.364 14.7472Z" fill="#EF5B88" stroke="#041241" stroke-width="1.3" stroke-miterlimit="10" stroke-linejoin="round"/>
<path d="M63.4934 17.7125L30.0508 37.1492L34.8992 45.4914L68.3418 26.0547L63.4934 17.7125Z" fill="#EF5B88" stroke="#041241" stroke-width="1.3" stroke-miterlimit="10" stroke-linejoin="round"/>
<path d="M90.469 53.6132L123.917 34.1763L137.734 42.156L104.286 61.5852L90.469 53.6132Z" fill="#EF5B88" stroke="#041241" stroke-width="1.3" stroke-miterlimit="10" stroke-linejoin="round"/>
<path d="M90.5156 37.5918L123.956 18.1548L123.917 34.1763L90.469 53.6133L90.5156 37.5918Z" fill="#F58220" stroke="#041241" stroke-width="1.3" stroke-miterlimit="10" stroke-linejoin="round"/>
<path d="M114.346 45.4862L114.331 51.339L114.284 67.4149L114.268 73.2599L147.709 53.8307L147.724 47.9779L147.771 31.902L147.786 26.0492L114.346 45.4862Z" fill="#F58220" stroke="#041241" stroke-width="1.3" stroke-miterlimit="10" stroke-linejoin="round"/>
<path d="M109.502 37.1493L114.346 45.4861L114.331 51.3389L114.284 67.4148L114.268 73.2676L109.394 76L104.263 73.0348L90.4457 65.0551L80.4478 59.2799L80.4789 47.8925L80.5254 31.8166L80.5565 20.4292L90.5467 26.1966L104.364 34.1764L109.502 37.1493ZM104.333 45.5637L90.5156 37.584L90.469 53.6056L104.286 61.5853L104.333 45.5637Z" fill="#FFCB05" stroke="#041241" stroke-width="1.3" stroke-miterlimit="10" stroke-linejoin="round"/>
<path d="M137.812 14.7472L123.995 6.76744L113.997 1L80.5565 20.437L90.5467 26.2044L104.364 34.1841L109.502 37.1493L142.943 17.7124L137.812 14.7472Z" fill="#EF5B88" stroke="#041241" stroke-width="1.3" stroke-miterlimit="10" stroke-linejoin="round"/>
<path d="M142.941 17.7125L109.499 37.1492L114.347 45.4914L147.79 26.0547L142.941 17.7125Z" fill="#EF5B88" stroke="#041241" stroke-width="1.3" stroke-miterlimit="10" stroke-linejoin="round"/>
</svg>
