<svg width="144" height="77" viewBox="0 0 144 77" fill="none" xmlns="http://www.w3.org/2000/svg">
<path d="M11.2337 51.4361L43.5795 32.6356L43.5496 44.2971L11.1964 63.0976L11.2337 51.4361Z" fill="#EF5B88" stroke="#041241" stroke-width="1.3" stroke-miterlimit="10" stroke-linejoin="round"/>
<path d="M1.10468 19.8005L33.4504 1L43.6019 6.86066L11.2562 25.6536L1.10468 19.8005Z" fill="#EF5B88" stroke="#041241" stroke-width="1.3" stroke-miterlimit="10" stroke-linejoin="round"/>
<path d="M11.2562 25.6536L43.6019 6.8606L49.7093 17.4382L17.3635 36.2386L11.2562 25.6536Z" fill="#F58220" stroke="#041241" stroke-width="1.3" stroke-miterlimit="10" stroke-linejoin="round"/>
<path d="M17.3635 36.2388L49.7093 17.4383L55.854 13.9324L23.5082 32.7328L17.3635 36.2388Z" fill="#EF5B88" stroke="#041241" stroke-width="1.3" stroke-miterlimit="10" stroke-linejoin="round"/>
<path d="M33.6597 38.5934L33.5551 76L23.3512 70.1094L23.3811 58.4479L17.2887 61.9239L11.2337 51.436L11.1964 63.0975L1 57.207L1.10465 19.8004L11.2562 25.6536L17.3635 36.2387L23.5082 32.7327L33.6597 38.5934Z" fill="#FFCB05" stroke="#041241" stroke-width="1.3" stroke-miterlimit="10" stroke-linejoin="round"/>
<path d="M23.5082 32.7328L55.8539 13.9324L66.0054 19.793L33.6597 38.5935L23.5082 32.7328Z" fill="#EF5B88" stroke="#041241" stroke-width="1.3" stroke-miterlimit="10" stroke-linejoin="round"/>
<path d="M33.6597 38.5934L66.0055 19.793L65.9008 57.1995L33.5551 76L33.6597 38.5934Z" fill="#F58220" stroke="#041241" stroke-width="1.3" stroke-miterlimit="10" stroke-linejoin="round"/>
<path d="M88.2297 51.4361L120.575 32.6356L120.546 44.2971L88.1923 63.0976L88.2297 51.4361Z" fill="#EF5B88" stroke="#041241" stroke-width="1.3" stroke-miterlimit="10" stroke-linejoin="round"/>
<path d="M78.1006 19.8005L110.446 1L120.598 6.86066L88.2521 25.6536L78.1006 19.8005Z" fill="#EF5B88" stroke="#041241" stroke-width="1.3" stroke-miterlimit="10" stroke-linejoin="round"/>
<path d="M88.2521 25.6536L120.598 6.8606L126.705 17.4382L94.3594 36.2386L88.2521 25.6536Z" fill="#F58220" stroke="#041241" stroke-width="1.3" stroke-miterlimit="10" stroke-linejoin="round"/>
<path d="M94.3594 36.2388L126.705 17.4383L132.85 13.9324L100.504 32.7328L94.3594 36.2388Z" fill="#EF5B88" stroke="#041241" stroke-width="1.3" stroke-miterlimit="10" stroke-linejoin="round"/>
<path d="M110.656 38.5934L110.551 76L100.347 70.1094L100.377 58.4479L94.2847 61.9239L88.2296 51.436L88.1923 63.0975L77.9959 57.207L78.1006 19.8004L88.2521 25.6536L94.3594 36.2387L100.504 32.7327L110.656 38.5934Z" fill="#FFCB05" stroke="#041241" stroke-width="1.3" stroke-miterlimit="10" stroke-linejoin="round"/>
<path d="M100.504 32.7328L132.85 13.9324L143.001 19.793L110.656 38.5935L100.504 32.7328Z" fill="#EF5B88" stroke="#041241" stroke-width="1.3" stroke-miterlimit="10" stroke-linejoin="round"/>
<path d="M110.656 38.5934L143.001 19.793L142.897 57.1995L110.551 76L110.656 38.5934Z" fill="#F58220" stroke="#041241" stroke-width="1.3" stroke-miterlimit="10" stroke-linejoin="round"/>
</svg>
