<svg width="113" height="104" viewBox="0 0 113 104" fill="none" xmlns="http://www.w3.org/2000/svg">
<path d="M108.882 38.5024L97.9352 31.5547L67.8069 -2.22028L78.7534 4.72743L108.882 38.5024Z" fill="#243A76" stroke="#2C004B" stroke-width="1.7" stroke-miterlimit="10" stroke-linejoin="round"/>
<path d="M63.8032 3.92869L72.7986 -24.0396L61.8521 -31L52.8567 -3.03169L35.436 51.0919L46.3826 58.0396L63.8032 3.92869Z" fill="#243A76" stroke="#2C004B" stroke-width="1.7" stroke-miterlimit="10" stroke-linejoin="round"/>
<path d="M72.7988 -24.0396L111.884 29.1965L108.882 38.5151L78.7535 4.72743L53.5663 82.9905C49.4361 95.8336 37.0705 104.594 25.9593 102.553C14.8481 100.512 9.19746 88.4295 13.3277 75.5864C17.458 62.7306 29.8235 53.9699 40.9348 56.0238C42.9366 56.3915 44.7483 57.0888 46.37 58.0523L63.8034 3.92869L72.7988 -24.0396Z" fill="#44C8F5" stroke="#2C004B" stroke-width="1.7" stroke-miterlimit="10" stroke-linejoin="round"/>
<path d="M13.3403 75.5737C13.5051 75.0666 13.6824 74.5721 13.8725 74.0777C13.9231 73.9382 13.9738 73.7987 14.0245 73.672C14.1765 73.2789 14.3539 72.8859 14.5186 72.4929C14.5693 72.3914 14.6073 72.29 14.6453 72.1886C14.8607 71.7195 15.0888 71.2504 15.3295 70.794C15.3802 70.6926 15.4435 70.5784 15.5068 70.477C15.6969 70.1094 15.8996 69.7544 16.115 69.3994C16.191 69.2726 16.2544 69.1458 16.3304 69.0317C16.5331 68.6894 16.7485 68.3597 16.9765 68.0301C17.0145 67.9667 17.0652 67.8907 17.1032 67.8273C17.3693 67.4342 17.6353 67.0539 17.9141 66.6735C17.9901 66.5721 18.0788 66.4707 18.1548 66.3693C18.3702 66.0903 18.5729 65.8241 18.8009 65.5578C18.9023 65.4311 19.0037 65.317 19.0923 65.2029C19.3204 64.9366 19.5358 64.683 19.7638 64.4295C19.8525 64.3281 19.9412 64.2393 20.0299 64.1379C20.3466 63.7956 20.6634 63.4659 20.9801 63.149C21.0308 63.0983 21.0815 63.0602 21.1321 63.0095C21.4109 62.7306 21.7023 62.477 21.981 62.2108C22.095 62.1094 22.1964 62.0206 22.3104 61.9192C22.5511 61.7163 22.7919 61.5135 23.0326 61.3106C23.1466 61.2219 23.2606 61.1204 23.3747 61.0317C23.6534 60.8162 23.9448 60.6006 24.2235 60.3978C24.2995 60.3471 24.3629 60.2837 24.4389 60.233C24.933 59.878 25.4398 59.5483 25.9593 59.2314C26.0353 59.1807 26.124 59.13 26.2 59.0792C26.7068 58.775 27.2135 58.496 27.7203 58.2298C27.809 58.1791 27.9104 58.141 27.9991 58.0903C28.5185 57.8368 29.038 57.5832 29.5701 57.3677C29.6461 57.3423 29.7221 57.3043 29.7981 57.2789C30.3556 57.0507 30.9131 56.8479 31.4832 56.6704C31.5339 56.6577 31.5719 56.645 31.6226 56.6323C31.9393 56.5309 32.2687 56.4422 32.5854 56.3534C32.7121 56.3154 32.8388 56.29 32.9655 56.2647C33.2063 56.2013 33.4596 56.1506 33.7004 56.0998C33.8524 56.0745 33.9918 56.0491 34.1438 56.0238C34.3719 55.9857 34.5999 55.9477 34.828 55.9097C34.98 55.8843 35.132 55.8716 35.2967 55.8463C35.5248 55.8209 35.7402 55.7956 35.9682 55.7702C36.1203 55.7575 36.285 55.7449 36.437 55.7322C36.6651 55.7195 36.8804 55.7068 37.1085 55.7068C37.2605 55.7068 37.4126 55.6941 37.5646 55.6941C37.7926 55.6941 38.0207 55.7068 38.2487 55.7068C38.4008 55.7068 38.5401 55.7195 38.6922 55.7195C38.9456 55.7322 39.199 55.7575 39.4397 55.7829C39.5664 55.7956 39.6804 55.8082 39.8071 55.8209C40.1872 55.8716 40.5546 55.9223 40.922 55.9857C41.2134 56.0364 41.5048 56.1125 41.7836 56.1886C41.9863 56.2393 42.2017 56.2773 42.3917 56.3281C42.6831 56.4041 42.9618 56.5055 43.2406 56.607C43.4179 56.6704 43.608 56.7211 43.7854 56.7845C44.0768 56.8986 44.3682 57.0254 44.6596 57.1521C44.8116 57.2155 44.9636 57.2789 45.1157 57.3423C45.5464 57.5452 45.9645 57.7734 46.3573 58.0143L35.4361 51.0919C35.0307 50.851 34.6126 50.6228 34.1945 50.42C34.0551 50.3566 33.8904 50.2932 33.751 50.2298C33.4596 50.103 33.1809 49.9635 32.8768 49.8621C32.6995 49.7987 32.5094 49.748 32.3194 49.6846C32.0407 49.5959 31.7746 49.4944 31.4832 49.4184C31.2805 49.3677 31.0651 49.317 30.8624 49.2662C30.5836 49.2029 30.3176 49.1268 30.0389 49.0761C30.0262 49.0761 30.0135 49.0761 30.0008 49.0634C29.6334 49 29.266 48.9366 28.8859 48.8986C28.7592 48.8859 28.6325 48.8732 28.5185 48.8605C28.2651 48.8352 28.0244 48.8098 27.771 48.7971C27.619 48.7845 27.4796 48.7845 27.3276 48.7845C27.0995 48.7718 26.8715 48.7718 26.6434 48.7718C26.4914 48.7718 26.3393 48.7845 26.1746 48.7845C25.9466 48.7971 25.7312 48.7971 25.5031 48.8098C25.3511 48.8225 25.1864 48.8352 25.0344 48.8479C24.8063 48.8732 24.5909 48.8859 24.3629 48.9239C24.2108 48.9493 24.0588 48.962 23.8941 48.9873C23.6661 49.0254 23.438 49.0634 23.21 49.1014C23.0579 49.1268 22.9186 49.1521 22.7665 49.1902C22.5258 49.2409 22.2724 49.2916 22.0317 49.355C21.905 49.3804 21.7783 49.4184 21.6516 49.4437C21.3222 49.5325 21.0054 49.6212 20.676 49.7227C20.638 49.7353 20.6 49.748 20.5493 49.7607H20.5367C19.9665 49.9382 19.4091 50.141 18.8516 50.3693C18.7756 50.3946 18.6996 50.4326 18.6236 50.458C18.0914 50.6735 17.572 50.9144 17.0525 51.1807C16.9638 51.2314 16.8625 51.2694 16.7738 51.3201C16.267 51.5864 15.7476 51.8653 15.2535 52.1696C15.1648 52.2203 15.0888 52.271 15.0127 52.3217C14.4933 52.6387 13.9865 52.9683 13.4924 53.3233C13.4797 53.336 13.467 53.336 13.4544 53.3486C13.391 53.3867 13.3277 53.4374 13.277 53.4881C12.9856 53.691 12.7069 53.9065 12.4281 54.1347C12.3141 54.2235 12.2001 54.3122 12.0861 54.4136C11.8453 54.6165 11.5919 54.8193 11.3639 55.0222C11.2499 55.1236 11.1485 55.2124 11.0345 55.3138C10.7431 55.5674 10.4644 55.8336 10.173 56.1125C10.1476 56.1252 10.0969 56.1632 10.0463 56.2139C9.71685 56.5309 9.40011 56.8605 9.08337 57.2029C9.05803 57.2282 9.03269 57.2536 9.00735 57.2789C8.944 57.3423 8.88066 57.4184 8.82998 57.4945C8.60192 57.748 8.37387 58.0016 8.15849 58.2678C8.05713 58.3819 7.95578 58.5087 7.85442 58.6228C7.63904 58.8891 7.42365 59.1553 7.20827 59.4342C7.13225 59.5357 7.04357 59.6371 6.96755 59.7385C6.68882 60.1189 6.41009 60.4992 6.14403 60.8922C6.10602 60.9556 6.05534 61.019 6.01733 61.0824C5.80195 61.412 5.58656 61.7544 5.37118 62.0967C5.33317 62.1474 5.30783 62.1981 5.26982 62.2488C5.23182 62.3122 5.19381 62.3883 5.14313 62.4643C4.92775 62.8193 4.7377 63.1743 4.53499 63.542C4.47164 63.6434 4.42096 63.7448 4.35761 63.859C4.11689 64.3154 3.88884 64.7718 3.67346 65.2409C3.62278 65.3423 3.58477 65.4437 3.54676 65.5452C3.36939 65.9382 3.20468 66.3185 3.05265 66.7242C3.00197 66.8637 2.95129 66.9905 2.88794 67.13C2.6979 67.6244 2.52053 68.1189 2.35582 68.626C-0.976279 78.9715 2.03908 88.8098 9.14672 93.3233L20.0932 100.271C13.0236 95.7702 10.0082 85.9192 13.3403 75.5737Z" fill="#243A76" stroke="#2C004B" stroke-width="1.7" stroke-miterlimit="10" stroke-linejoin="round"/>
</svg>
