<svg width="274" height="360" viewBox="0 0 274 360" fill="none" xmlns="http://www.w3.org/2000/svg">
<path d="M363.223 197.349C363.223 197.349 328.183 217.759 292.183 212.939C268.183 209.729 260.073 202.719 259.563 186.979C258.993 169.489 243.693 160.209 225.743 162.409C209.923 164.339 200.263 181.539 205.683 203.369C212.073 229.119 250.523 249.089 299.683 245.899C348.843 242.699 389.113 197.849 389.113 197.849C389.113 197.849 393.573 183.709 363.223 197.349Z" fill="#0482C5" stroke="#3D1063" stroke-width="0.6511" stroke-miterlimit="10" stroke-linejoin="round"/>
<path d="M389.103 197.839C389.103 197.839 348.833 242.699 299.673 245.889C250.513 249.089 212.063 229.119 205.673 203.359C200.253 181.529 209.923 164.339 225.733 162.399C225.733 162.399 194.843 167.479 212.993 206.109C236.923 257.029 338.333 214.739 358.273 213.029C378.213 211.339 389.103 197.839 389.103 197.839Z" fill="#243A76" stroke="#041241" stroke-width="1.7" stroke-miterlimit="10" stroke-linecap="round" stroke-linejoin="round"/>
<path d="M242.323 195.789C242.323 195.789 244.163 203.829 250.193 208.689C256.223 213.539 260.893 215.279 266.483 216.919C270.773 218.179 273.563 217.729 272.573 219.399C271.593 221.079 263.523 220.799 249.163 217.489C230.333 213.139 222.903 203.709 218.793 195.839C209.343 177.759 219.303 166.159 230.803 170.589C243.503 175.479 240.523 187.809 242.323 195.789Z" fill="#ABE1FA" stroke="#041241" stroke-width="1.7" stroke-miterlimit="10" stroke-linecap="round" stroke-linejoin="round"/>
<path d="M162.813 299.829C229.943 315.959 270.613 311.609 326.813 292.969C383.013 274.319 445.883 205.489 465.583 161.929C485.273 118.359 502.643 8.25938 458.173 -66.3306L512.133 -69.7006C512.133 -69.7006 533.013 21.5494 523.823 103.439C513.103 198.959 479.583 242.959 428.753 285.329C388.513 318.879 312.993 347.789 266.793 354.749C217.093 362.239 163.563 362.609 110.873 344.279C110.873 344.279 50.7333 321.949 25.7933 288.179C-2.33667 250.099 -8.47668 208.519 17.5833 189.259C41.7033 171.439 64.1133 196.219 68.8433 224.499C74.4733 258.159 108.063 286.669 162.813 299.829Z" fill="#0482C5" stroke="#3D1063" stroke-width="0.6511" stroke-miterlimit="10" stroke-linejoin="round"/>
<path d="M458.173 -66.3306C502.643 8.25937 485.283 118.369 465.583 161.929C445.883 205.499 383.013 274.329 326.813 292.969C270.613 311.609 229.953 315.959 162.813 299.829C108.063 286.679 74.4733 258.159 68.8433 224.509C64.1133 196.229 41.7033 171.449 17.5833 189.269C5.62335 198.109 0.593353 210.919 1.06335 227.389C1.06335 227.389 -0.396698 211.999 10.7033 201.399C18.0533 194.379 30.5734 193.169 40.9333 203.369C62.3234 224.429 39.7433 243.359 81.8333 281.509C118.003 314.289 170.743 326.249 221.773 331.069C272.803 335.889 335.363 319.979 387.613 288.969C439.853 257.959 469.643 218.669 486.913 168.039C504.163 117.389 513.163 56.8694 502.183 6.45937C491.203 -43.9506 458.173 -66.3306 458.173 -66.3306Z" fill="#243A76" stroke="#041241" stroke-width="1.7" stroke-miterlimit="10" stroke-linecap="round" stroke-linejoin="round"/>
<path d="M418.113 -64.3406C418.113 -64.3406 447.463 -30.8307 455.783 8.11935C464.813 50.3893 447.763 156.989 417.423 197.429C387.083 237.869 308.193 261.359 276.423 265.709C244.653 270.059 177.943 258.469 156.993 234.849C136.053 211.229 118.173 193.169 115.623 172.949C112.533 148.479 113.783 109.499 141.683 95.4394C166.893 82.7394 174.423 56.1594 150.803 37.7194C122.563 15.6594 94.4634 52.3794 75.6534 101.969C58.6334 146.839 59.9534 215.859 103.233 264.369C149.413 316.139 240.823 325.099 278.783 317.479C316.743 309.859 379.753 294.059 425.493 247.599C474.663 197.669 490.103 146.459 496.723 94.9294C503.343 43.4093 504.363 -20.4106 463.353 -66.5706L418.113 -64.3406Z" fill="#0482C5" stroke="#3D1063" stroke-width="0.6511" stroke-miterlimit="10" stroke-linejoin="round"/>
<path d="M126.043 39.3794C135.643 40.8794 152.333 52.3493 149.453 66.3694C144.423 90.8694 128.923 77.9594 111.313 107.519C88.2234 146.289 95.6833 188.349 107.573 213.379C119.463 238.409 146.053 267.809 198.413 283.809C250.773 299.819 320.273 287.479 362.653 266.719C397.723 249.539 456.363 207.559 477.363 108.279C498.363 8.99936 452.843 -51.1106 442.623 -61.1706C432.403 -71.2306 418.113 -64.3506 418.113 -64.3506C418.113 -64.3506 447.463 -30.8406 455.783 8.10936C464.813 50.3794 447.763 156.979 417.423 197.419C387.083 237.859 308.193 261.349 276.423 265.699C244.653 270.049 177.943 258.459 156.993 234.839C136.053 211.219 117.533 195.479 114.983 175.259C111.893 150.789 113.783 109.479 141.683 95.4294C166.893 82.7294 174.423 56.1494 150.803 37.7094C131.823 22.8894 112.923 34.5994 96.8434 58.9194C96.8534 58.9194 110.723 36.9794 126.043 39.3794Z" fill="#243A76" stroke="#041241" stroke-width="1.7" stroke-miterlimit="10" stroke-linecap="round" stroke-linejoin="round"/>
<path d="M352.503 -82.2806C352.503 -82.2806 426.193 -36.6706 424.203 50.0894C422.213 136.849 393.473 192.089 349.113 213.859C304.753 235.629 242.173 232.379 201.653 215.759C182.343 207.839 165.893 194.819 166.583 175.039C167.053 161.439 179.563 153.319 167.223 135.379C160.123 125.069 142.213 121.219 131.043 126.009C108.743 135.569 100.183 158.389 115.583 197.639C135.133 247.449 190.453 277.889 271.453 273.569C347.033 269.529 393.473 245.219 428.603 195.729C461.683 149.149 479.193 75.3694 466.413 11.6094C451.453 -63.0606 397.533 -91.5706 397.533 -91.5706L352.503 -82.2806Z" fill="#0482C5" stroke="#3D1063" stroke-width="0.6511" stroke-miterlimit="10" stroke-linejoin="round"/>
<path d="M131.033 125.989C142.213 121.199 160.123 125.049 167.213 135.359C179.553 153.299 167.043 161.429 166.573 175.019C165.893 194.799 182.333 207.819 201.643 215.739C242.163 232.359 304.743 235.609 349.103 213.839C393.463 192.069 422.203 136.829 424.193 50.0694C426.183 -36.6906 352.493 -82.3006 352.493 -82.3006C352.493 -82.3006 359.383 -104.951 379.403 -89.8506C399.423 -74.7506 429.743 -37.8106 443.763 14.4794C460.273 76.0794 443.933 113.699 435.183 139.309C426.433 164.919 404.093 201.689 358.983 223.239C308.673 247.269 274.753 246.289 227.763 238.199C190.553 231.799 168.403 216.149 158.983 200.759C152.643 190.399 149.393 175.029 156.913 162.999C162.923 153.379 163.213 142.559 154.183 132.679C143.583 121.139 131.033 125.989 131.033 125.989Z" fill="#243A76" stroke="#041241" stroke-width="1.7" stroke-miterlimit="10" stroke-linecap="round" stroke-linejoin="round"/>
<path d="M96.2433 69.6094C96.2433 69.6094 112.083 38.6394 132.403 49.2594C138.623 52.5094 147.813 67.0294 106.983 85.6494C99.4833 89.0694 93.5033 98.0894 88.8133 109.399C77.8633 135.759 80.4533 147.239 74.1933 145.139C69.6433 143.619 74.2833 118.249 80.3533 103.479C86.2433 89.1394 87.6533 86.0694 96.2433 69.6094Z" fill="#ABE1FA" stroke="#041241" stroke-width="1.7" stroke-miterlimit="10" stroke-linecap="round" stroke-linejoin="round"/>
<path d="M128.923 133.859C128.923 133.859 110.863 143.319 113.353 168.389C116.123 196.219 126.233 203.609 131.433 200.999C136.013 198.699 126.053 182.509 130.083 171.199C134.503 158.769 148.983 162.839 151.273 150.259C153.023 140.639 143.253 126.579 128.923 133.859Z" fill="#ABE1FA" stroke="#041241" stroke-width="1.7" stroke-miterlimit="10" stroke-linecap="round" stroke-linejoin="round"/>
<path d="M133.403 218.569C133.403 218.569 127.783 210.899 132.823 208.459C136.663 206.599 139.063 210.819 142.583 215.599C146.103 220.379 158.673 236.359 175.393 244.109C190.113 250.939 196.113 253.439 194.883 256.399C193.673 259.299 181.293 255.339 172.803 251.429C164.313 247.509 144.653 236.059 133.403 218.569Z" fill="#ABE1FA" stroke="#041241" stroke-width="1.7" stroke-miterlimit="10" stroke-linecap="round" stroke-linejoin="round"/>
<path d="M74.4834 159.049C74.4834 159.049 69.9634 157.309 70.1834 169.629C70.3834 180.569 75.2834 217.219 96.9434 247.979C117.973 277.859 146.643 290.799 146.643 290.799C146.643 290.799 153.153 294.419 154.653 291.159C156.153 287.899 151.283 286.169 147.303 283.919C143.323 281.669 120.663 270.029 101.103 241.759C82.2234 214.459 78.5134 178.609 78.2334 172.149C77.8534 163.469 79.6234 159.789 74.4834 159.049Z" fill="#ABE1FA" stroke="#041241" stroke-width="1.7" stroke-miterlimit="10" stroke-linecap="round" stroke-linejoin="round"/>
<path d="M206.783 260.359C206.783 260.359 205.723 263.039 213.533 264.869C228.233 268.319 255.533 270.679 271.353 268.809C287.173 266.939 288.903 266.409 288.383 264.379C287.973 262.789 279.723 263.449 270.563 263.589C258.553 263.779 238.383 263.009 219.683 260.369C212.963 259.419 207.713 256.829 206.783 260.359Z" fill="#ABE1FA" stroke="#041241" stroke-width="1.7" stroke-miterlimit="10" stroke-linecap="round" stroke-linejoin="round"/>
<path d="M195.843 307.999C195.843 307.999 176.203 304.239 177.123 299.689C177.883 295.909 185.123 300.909 201.903 303.599C214.863 305.679 237.703 308.979 245.883 308.639C254.053 308.289 254.133 313.409 244.933 313.879C229.513 314.659 208.583 310.349 195.843 307.999Z" fill="#ABE1FA" stroke="#041241" stroke-width="1.7" stroke-miterlimit="10" stroke-linecap="round" stroke-linejoin="round"/>
<path d="M292.173 212.949C268.173 209.739 260.063 202.729 259.553 186.989C258.983 169.499 243.683 160.219 225.733 162.419C225.733 162.419 249.523 160.779 251.763 181.569C253.793 200.449 255.503 204.179 265.993 209.239C276.483 214.289 292.173 212.949 292.173 212.949Z" fill="#243A76" stroke="#041241" stroke-width="1.7" stroke-miterlimit="10" stroke-linecap="round" stroke-linejoin="round"/>
<path d="M8.34338 238.399C6.94338 233.279 6.49339 227.929 7.28339 222.689C7.75339 219.579 8.67337 216.289 10.3934 213.569C15.2534 205.879 24.3334 199.409 34.2434 209.149C46.5334 221.239 38.9834 227.139 38.6134 243.069C38.1334 263.869 45.1334 275.049 38.8234 278.709C32.7734 282.209 18.4734 275.529 8.34338 238.399Z" fill="#ABE1FA" stroke="#041241" stroke-width="1.7" stroke-miterlimit="10" stroke-linecap="round" stroke-linejoin="round"/>
<path d="M52.4034 304.779C52.4034 304.779 33.9233 292.339 42.2233 285.179C48.3933 279.859 54.5833 288.779 64.3633 296.729C72.2933 303.169 98.6333 323.429 125.923 332.319C155.563 341.969 155.413 342.659 154.353 346.149C153.283 349.659 137.403 345.509 122.453 340.909C107.503 336.309 86.2733 330.299 52.4034 304.779Z" fill="#ABE1FA" stroke="#041241" stroke-width="1.7" stroke-miterlimit="10" stroke-linecap="round" stroke-linejoin="round"/>
<path d="M191.673 352.589C182.473 352.409 172.683 351.099 172.693 346.989C172.703 342.159 179.863 344.609 192.033 345.259C202.383 345.809 216.423 345.389 215.753 350.509C215.233 354.489 200.533 352.759 191.673 352.589Z" fill="#ABE1FA" stroke="#041241" stroke-width="1.7" stroke-miterlimit="10" stroke-linecap="round" stroke-linejoin="round"/>
<path d="M279.933 347.239C279.933 347.239 262.503 350.589 261.943 347.529C261.363 344.359 269.183 343.339 281.273 341.559C293.353 339.779 332.663 332.269 373.663 309.129C373.663 309.129 384.643 302.739 386.053 305.439C387.253 307.729 382.693 310.289 374.863 313.969C368.553 316.929 328.863 337.669 279.933 347.239Z" fill="#ABE1FA" stroke="#041241" stroke-width="1.7" stroke-miterlimit="10" stroke-linecap="round" stroke-linejoin="round"/>
<path d="M312.243 -72.0406C312.243 -72.0406 394.043 -22.7706 394.053 71.2194C394.063 110.569 380.803 164.419 356.463 174.259C340.063 180.879 331.973 152.979 301.093 155.079C285.923 156.109 277.493 163.619 275.103 179.459C271.473 203.509 293.563 229.709 344.683 223.839C385.133 219.199 409.323 189.829 426.313 134.289C443.303 78.7494 433.303 -17.0306 373.633 -71.0906C355.623 -87.4006 349.173 -95.7406 340.583 -97.4406C315.283 -102.461 312.243 -72.0406 312.243 -72.0406Z" fill="#0482C5" stroke="#3D1063" stroke-width="0.6511" stroke-miterlimit="10" stroke-linejoin="round"/>
</svg>
