<svg width="326" height="77" viewBox="0 0 326 77" fill="none" xmlns="http://www.w3.org/2000/svg">
<path d="M24.3915 59.8958L59.7813 40.7491L59.7405 55.4302L24.3506 76L24.3915 59.8958Z" fill="#F58220" stroke="#041241" stroke-width="1.3" stroke-miterlimit="10" stroke-linejoin="round"/>
<path d="M12.2377 28.0147L47.6276 7.44495L47.5867 20.8583L12.1968 41.4199L12.2377 28.0147Z" fill="#F58220" stroke="#041241" stroke-width="1.3" stroke-miterlimit="10" stroke-linejoin="round"/>
<path d="M1.07361 21.5698L36.4635 1L47.6276 7.44493L12.2377 28.0147L1.07361 21.5698Z" fill="#EF5B88" stroke="#041241" stroke-width="1.3" stroke-miterlimit="10" stroke-linejoin="round"/>
<path d="M12.1968 41.4199L47.5867 20.8583L60.8855 28.53L25.4875 49.0998L12.1968 41.4199Z" fill="#EF5B88" stroke="#041241" stroke-width="1.3" stroke-miterlimit="10" stroke-linejoin="round"/>
<path d="M25.5284 35.6865L60.9182 15.1167L72.0823 21.5616L36.6925 42.1314L25.5284 35.6865Z" fill="#EF5B88" stroke="#041241" stroke-width="1.3" stroke-miterlimit="10" stroke-linejoin="round"/>
<path d="M36.6925 42.1314L36.6516 55.5447L36.6189 66.9542L72.0087 46.3844L72.0414 34.9749L72.0823 21.5616L36.6925 42.1314Z" fill="#F58220" stroke="#041241" stroke-width="1.3" stroke-miterlimit="10" stroke-linejoin="round"/>
<path d="M36.6925 42.1314L36.6516 55.5447L36.6189 66.9542L24.3915 59.8959L24.3506 76L13.1865 69.5551L13.2274 53.451L1 46.3926L1.03272 34.9749L1.07361 21.5698L12.2377 28.0148L12.1968 41.4199L25.4875 49.0998L25.5284 35.6865L36.6925 42.1314Z" fill="#FFCB05" stroke="#041241" stroke-width="1.3" stroke-miterlimit="10" stroke-linejoin="round"/>
<path d="M108.634 59.8958L144.023 40.7491L143.983 55.4302L108.593 76L108.634 59.8958Z" fill="#F58220" stroke="#041241" stroke-width="1.3" stroke-miterlimit="10" stroke-linejoin="round"/>
<path d="M96.4798 28.0147L131.87 7.44495L131.829 20.8583L96.4389 41.4199L96.4798 28.0147Z" fill="#F58220" stroke="#041241" stroke-width="1.3" stroke-miterlimit="10" stroke-linejoin="round"/>
<path d="M85.3157 21.5698L120.706 1L131.87 7.44493L96.4798 28.0147L85.3157 21.5698Z" fill="#EF5B88" stroke="#041241" stroke-width="1.3" stroke-miterlimit="10" stroke-linejoin="round"/>
<path d="M96.4389 41.4199L131.829 20.8583L145.128 28.53L109.73 49.0998L96.4389 41.4199Z" fill="#EF5B88" stroke="#041241" stroke-width="1.3" stroke-miterlimit="10" stroke-linejoin="round"/>
<path d="M109.77 35.6865L145.16 15.1167L156.324 21.5616L120.935 42.1314L109.77 35.6865Z" fill="#EF5B88" stroke="#041241" stroke-width="1.3" stroke-miterlimit="10" stroke-linejoin="round"/>
<path d="M120.935 42.1314L120.894 55.5447L120.861 66.9542L156.251 46.3844L156.284 34.9749L156.324 21.5616L120.935 42.1314Z" fill="#F58220" stroke="#041241" stroke-width="1.3" stroke-miterlimit="10" stroke-linejoin="round"/>
<path d="M120.935 42.1314L120.894 55.5447L120.861 66.9542L108.634 59.8959L108.593 76L97.4286 69.5551L97.4695 53.451L85.2421 46.3926L85.2748 34.9749L85.3157 21.5698L96.4798 28.0148L96.4389 41.4199L109.73 49.0998L109.77 35.6865L120.935 42.1314Z" fill="#FFCB05" stroke="#041241" stroke-width="1.3" stroke-miterlimit="10" stroke-linejoin="round"/>
<path d="M192.876 59.8958L228.266 40.7491L228.225 55.4302L192.835 76L192.876 59.8958Z" fill="#F58220" stroke="#041241" stroke-width="1.3" stroke-miterlimit="10" stroke-linejoin="round"/>
<path d="M180.722 28.0147L216.112 7.44495L216.071 20.8583L180.681 41.4199L180.722 28.0147Z" fill="#F58220" stroke="#041241" stroke-width="1.3" stroke-miterlimit="10" stroke-linejoin="round"/>
<path d="M169.558 21.5698L204.948 1L216.112 7.44493L180.722 28.0147L169.558 21.5698Z" fill="#EF5B88" stroke="#041241" stroke-width="1.3" stroke-miterlimit="10" stroke-linejoin="round"/>
<path d="M180.681 41.4199L216.071 20.8583L229.37 28.53L193.972 49.0998L180.681 41.4199Z" fill="#EF5B88" stroke="#041241" stroke-width="1.3" stroke-miterlimit="10" stroke-linejoin="round"/>
<path d="M194.013 35.6865L229.402 15.1167L240.567 21.5616L205.177 42.1314L194.013 35.6865Z" fill="#EF5B88" stroke="#041241" stroke-width="1.3" stroke-miterlimit="10" stroke-linejoin="round"/>
<path d="M205.177 42.1314L205.136 55.5447L205.103 66.9542L240.493 46.3844L240.526 34.9749L240.567 21.5616L205.177 42.1314Z" fill="#F58220" stroke="#041241" stroke-width="1.3" stroke-miterlimit="10" stroke-linejoin="round"/>
<path d="M205.177 42.1314L205.136 55.5447L205.103 66.9542L192.876 59.8959L192.835 76L181.671 69.5551L181.712 53.451L169.484 46.3926L169.517 34.9749L169.558 21.5698L180.722 28.0148L180.681 41.4199L193.972 49.0998L194.013 35.6865L205.177 42.1314Z" fill="#FFCB05" stroke="#041241" stroke-width="1.3" stroke-miterlimit="10" stroke-linejoin="round"/>
<path d="M277.118 59.8958L312.508 40.7491L312.467 55.4302L277.077 76L277.118 59.8958Z" fill="#F58220" stroke="#041241" stroke-width="1.3" stroke-miterlimit="10" stroke-linejoin="round"/>
<path d="M264.964 28.0147L300.354 7.44495L300.313 20.8583L264.923 41.4199L264.964 28.0147Z" fill="#F58220" stroke="#041241" stroke-width="1.3" stroke-miterlimit="10" stroke-linejoin="round"/>
<path d="M253.8 21.5698L289.19 1L300.354 7.44493L264.964 28.0147L253.8 21.5698Z" fill="#EF5B88" stroke="#041241" stroke-width="1.3" stroke-miterlimit="10" stroke-linejoin="round"/>
<path d="M264.923 41.4199L300.313 20.8583L313.612 28.53L278.214 49.0998L264.923 41.4199Z" fill="#EF5B88" stroke="#041241" stroke-width="1.3" stroke-miterlimit="10" stroke-linejoin="round"/>
<path d="M278.255 35.6865L313.644 15.1167L324.809 21.5616L289.419 42.1314L278.255 35.6865Z" fill="#EF5B88" stroke="#041241" stroke-width="1.3" stroke-miterlimit="10" stroke-linejoin="round"/>
<path d="M289.419 42.1314L289.378 55.5447L289.345 66.9542L324.735 46.3844L324.768 34.9749L324.809 21.5616L289.419 42.1314Z" fill="#F58220" stroke="#041241" stroke-width="1.3" stroke-miterlimit="10" stroke-linejoin="round"/>
<path d="M289.419 42.1314L289.378 55.5447L289.345 66.9542L277.118 59.8959L277.077 76L265.913 69.5551L265.954 53.451L253.726 46.3926L253.759 34.9749L253.8 21.5698L264.964 28.0148L264.923 41.4199L278.214 49.0998L278.255 35.6865L289.419 42.1314Z" fill="#FFCB05" stroke="#041241" stroke-width="1.3" stroke-miterlimit="10" stroke-linejoin="round"/>
</svg>
